#N canvas 0 23 1280 751 12;
#X obj 493 349 f \$1;
#X obj 547 661 f \$2;
#X obj 547 689 until;
#X text 593 692 for 0 bis number of pitches..do;
#X obj 547 746 f 0;
#X obj 578 746 + 1;
#X text 705 49 creation argument1 = number of steps (rows);
#X text 705 81 creation argument2 = number of pitches for each step
(columns);
#X obj 493 379 until;
#X obj 493 438 f 0;
#X obj 524 438 + 1;
#X obj 493 249 t b b;
#X msg 525 274 0;
#X msg 607 596 0;
#X text 615 745 current Inner Iteration;
#X obj 497 823 pack f f;
#X obj 547 561 t b b, f 9;
#X obj 493 464 t b f;
#X text 542 380 for each column/step;
#X text 723 358 Outer Loop = steps = columns;
#X text 779 574 Inner Loop = pitches = rows;
#X msg 711 909 symbol bt_send_\$2_\$1;
#X text 426 885 init_receive_symbol for each button;
#X text 719 888 new send symbol for each button;
#X floatatom 525 85 5 0 0 0 - - -;
#X obj 497 987 pack s s f, f 30;
#X obj 497 857 t a a, f 31;
#X text 612 1038 give each button the new send symbol in the format
column_row_buttonset;
#X msg 497 911 symbol bt_init_\$2_\$1;
#X msg 497 1038 \; \$1 send \$2_\$3;
#X obj 493 53 t b f;
#X text 712 134 a change in current button set \; changes the the names
for the button's send symbols.;
#X obj 493 20 inlet currentButtonSet;
#X obj 525 118 s BI_currentButtonSet;
#X obj 525 296 s BI_resetOuterCounter;
#X obj 511 405 r BI_resetOuterCounter;
#X obj 525 493 s BI_currentOuterIteration;
#X obj 607 618 s BI_resetInnerCounter;
#X obj 550 796 r BI_currentOuterIteration;
#X obj 565 716 r BI_resetInnerCounter;
#X obj 704 954 r BI_currentButtonSet;
#X connect 0 0 8 0;
#X connect 1 0 2 0;
#X connect 2 0 4 0;
#X connect 4 0 5 0;
#X connect 4 0 15 0;
#X connect 5 0 4 1;
#X connect 8 0 9 0;
#X connect 9 0 10 0;
#X connect 9 0 17 0;
#X connect 10 0 9 1;
#X connect 11 0 0 0;
#X connect 11 1 12 0;
#X connect 12 0 34 0;
#X connect 13 0 37 0;
#X connect 15 0 26 0;
#X connect 16 0 1 0;
#X connect 16 1 13 0;
#X connect 17 0 16 0;
#X connect 17 1 36 0;
#X connect 21 0 25 1;
#X connect 24 0 33 0;
#X connect 25 0 29 0;
#X connect 26 0 28 0;
#X connect 26 1 21 0;
#X connect 28 0 25 0;
#X connect 30 0 11 0;
#X connect 30 1 24 0;
#X connect 32 0 30 0;
#X connect 35 0 9 1;
#X connect 38 0 15 1;
#X connect 39 0 4 1;
#X connect 40 0 25 2;
