#N canvas 266 85 958 570 12;
#X obj 103 50 inlet midiNote;
#X obj 275 51 inlet instrumentNumber;
#X obj 103 236 instruments/instrument1 1;
#X obj 300 236 instruments/instrument2 2;
#X obj 515 237 instruments/instrument3 3;
#X obj 749 236 instruments/instrument4 4;
#X obj 103 404 throw~ audioLeftButtonSet_\$1;
#X obj 352 404 throw~ audioRightButtonSet_\$1;
#X connect 0 0 2 0;
#X connect 0 0 3 0;
#X connect 0 0 4 0;
#X connect 0 0 5 0;
#X connect 1 0 2 2;
#X connect 1 0 3 1;
#X connect 1 0 4 1;
#X connect 1 0 5 1;
#X connect 2 0 6 0;
#X connect 2 0 7 0;
#X connect 3 0 6 0;
#X connect 3 1 7 0;
#X connect 4 0 6 0;
#X connect 4 1 7 0;
#X connect 5 0 6 0;
#X connect 5 1 7 0;
