#N canvas 64 23 1199 750 12;
#X obj 18 30 inlet stepSequencerStepNumberAndBang;
#X floatatom 18 54 5 0 0 0 - - -;
#N canvas 583 154 450 298 genericStates_ButtonSet_1 0;
#X obj 10 10 r bt_send_0_0_1;
#X msg 60 35 0;
#X obj 15 60 r bt_send_0_1_1;
#X msg 65 85 1;
#X obj 20 110 r bt_send_0_2_1;
#X msg 70 135 2;
#X obj 25 160 r bt_send_0_3_1;
#X msg 75 185 3;
#X obj 30 210 r bt_send_0_4_1;
#X msg 80 235 4;
#X obj 35 260 r bt_send_0_5_1;
#X msg 85 285 5;
#X obj 40 310 r bt_send_0_6_1;
#X msg 90 335 6;
#X obj 45 360 r bt_send_0_7_1;
#X msg 95 385 7;
#X obj 50 410 r bt_send_0_8_1;
#X msg 100 435 8;
#X obj 55 460 r bt_send_0_9_1;
#X msg 105 485 9;
#X obj 60 510 r bt_send_1_0_1;
#X msg 110 535 10;
#X obj 65 560 r bt_send_1_1_1;
#X msg 115 585 11;
#X obj 70 610 r bt_send_1_2_1;
#X msg 120 635 12;
#X obj 75 660 r bt_send_1_3_1;
#X msg 125 685 13;
#X obj 80 710 r bt_send_1_4_1;
#X msg 130 735 14;
#X obj 85 760 r bt_send_1_5_1;
#X msg 135 785 15;
#X obj 90 810 r bt_send_1_6_1;
#X msg 140 835 16;
#X obj 95 860 r bt_send_1_7_1;
#X msg 145 885 17;
#X obj 100 910 r bt_send_1_8_1;
#X msg 150 935 18;
#X obj 105 960 r bt_send_1_9_1;
#X msg 155 985 19;
#X obj 110 1010 r bt_send_2_0_1;
#X msg 160 1035 20;
#X obj 115 1060 r bt_send_2_1_1;
#X msg 165 1085 21;
#X obj 120 1110 r bt_send_2_2_1;
#X msg 170 1135 22;
#X obj 125 1160 r bt_send_2_3_1;
#X msg 175 1185 23;
#X obj 130 1210 r bt_send_2_4_1;
#X msg 180 1235 24;
#X obj 135 1260 r bt_send_2_5_1;
#X msg 185 1285 25;
#X obj 140 1310 r bt_send_2_6_1;
#X msg 190 1335 26;
#X obj 145 1360 r bt_send_2_7_1;
#X msg 195 1385 27;
#X obj 150 1410 r bt_send_2_8_1;
#X msg 200 1435 28;
#X obj 155 1460 r bt_send_2_9_1;
#X msg 205 1485 29;
#X obj 160 1510 r bt_send_3_0_1;
#X msg 210 1535 30;
#X obj 165 1560 r bt_send_3_1_1;
#X msg 215 1585 31;
#X obj 170 1610 r bt_send_3_2_1;
#X msg 220 1635 32;
#X obj 175 1660 r bt_send_3_3_1;
#X msg 225 1685 33;
#X obj 180 1710 r bt_send_3_4_1;
#X msg 230 1735 34;
#X obj 185 1760 r bt_send_3_5_1;
#X msg 235 1785 35;
#X obj 190 1810 r bt_send_3_6_1;
#X msg 240 1835 36;
#X obj 195 1860 r bt_send_3_7_1;
#X msg 245 1885 37;
#X obj 200 1910 r bt_send_3_8_1;
#X msg 250 1935 38;
#X obj 205 1960 r bt_send_3_9_1;
#X msg 255 1985 39;
#X obj 210 2010 r bt_send_4_0_1;
#X msg 260 2035 40;
#X obj 215 2060 r bt_send_4_1_1;
#X msg 265 2085 41;
#X obj 220 2110 r bt_send_4_2_1;
#X msg 270 2135 42;
#X obj 225 2160 r bt_send_4_3_1;
#X msg 275 2185 43;
#X obj 230 2210 r bt_send_4_4_1;
#X msg 280 2235 44;
#X obj 235 2260 r bt_send_4_5_1;
#X msg 285 2285 45;
#X obj 240 2310 r bt_send_4_6_1;
#X msg 290 2335 46;
#X obj 245 2360 r bt_send_4_7_1;
#X msg 295 2385 47;
#X obj 250 2410 r bt_send_4_8_1;
#X msg 300 2435 48;
#X obj 255 2460 r bt_send_4_9_1;
#X msg 305 2485 49;
#X obj 260 2510 r bt_send_5_0_1;
#X msg 310 2535 50;
#X obj 265 2560 r bt_send_5_1_1;
#X msg 315 2585 51;
#X obj 270 2610 r bt_send_5_2_1;
#X msg 320 2635 52;
#X obj 275 2660 r bt_send_5_3_1;
#X msg 325 2685 53;
#X obj 280 2710 r bt_send_5_4_1;
#X msg 330 2735 54;
#X obj 285 2760 r bt_send_5_5_1;
#X msg 335 2785 55;
#X obj 290 2810 r bt_send_5_6_1;
#X msg 340 2835 56;
#X obj 295 2860 r bt_send_5_7_1;
#X msg 345 2885 57;
#X obj 300 2910 r bt_send_5_8_1;
#X msg 350 2935 58;
#X obj 305 2960 r bt_send_5_9_1;
#X msg 355 2985 59;
#X obj 310 3010 r bt_send_6_0_1;
#X msg 360 3035 60;
#X obj 315 3060 r bt_send_6_1_1;
#X msg 365 3085 61;
#X obj 320 3110 r bt_send_6_2_1;
#X msg 370 3135 62;
#X obj 325 3160 r bt_send_6_3_1;
#X msg 375 3185 63;
#X obj 330 3210 r bt_send_6_4_1;
#X msg 380 3235 64;
#X obj 335 3260 r bt_send_6_5_1;
#X msg 385 3285 65;
#X obj 340 3310 r bt_send_6_6_1;
#X msg 390 3335 66;
#X obj 345 3360 r bt_send_6_7_1;
#X msg 395 3385 67;
#X obj 350 3410 r bt_send_6_8_1;
#X msg 400 3435 68;
#X obj 355 3460 r bt_send_6_9_1;
#X msg 405 3485 69;
#X obj 360 3510 r bt_send_7_0_1;
#X msg 410 3535 70;
#X obj 365 3560 r bt_send_7_1_1;
#X msg 415 3585 71;
#X obj 370 3610 r bt_send_7_2_1;
#X msg 420 3635 72;
#X obj 375 3660 r bt_send_7_3_1;
#X msg 425 3685 73;
#X obj 380 3710 r bt_send_7_4_1;
#X msg 430 3735 74;
#X obj 385 3760 r bt_send_7_5_1;
#X msg 435 3785 75;
#X obj 390 3810 r bt_send_7_6_1;
#X msg 440 3835 76;
#X obj 395 3860 r bt_send_7_7_1;
#X msg 445 3885 77;
#X obj 400 3910 r bt_send_7_8_1;
#X msg 450 3935 78;
#X obj 405 3960 r bt_send_7_9_1;
#X msg 455 3985 79;
#X restore 941 171 pd genericStates_ButtonSet_1;
#X text 425 535 add receive object;
#X obj 519 164 bng 15 250 50 0 empty empty empty 17 7 0 10 -262144
-1 -1;
#X obj 493 349 f \$1;
#X obj 547 661 f \$2;
#X obj 547 689 until;
#X text 593 692 for 0 bis number of pitches..do;
#X obj 547 746 f 0;
#X obj 578 746 + 1;
#X text 705 49 creation argument1 = number of steps (rows);
#X text 705 81 creation argument2 = number of pitches for each step
(columns);
#X obj 493 379 until;
#X obj 493 438 f 0;
#X obj 524 438 + 1;
#X obj 493 249 t b b;
#X msg 525 274 0;
#X msg 607 596 0;
#X text 615 745 current Inner Iteration;
#X obj 497 823 pack f f;
#X obj 547 561 t b b, f 9;
#X obj 493 464 t b f;
#X text 542 380 for each column/step;
#X text 723 358 Outer Loop = steps = columns;
#X text 779 574 Inner Loop = pitches = rows;
#X msg 711 909 symbol bt_send_\$2_\$1;
#X text 426 885 init_receive_symbol for each button;
#X text 719 888 new send symbol for each button;
#X floatatom 525 85 5 0 0 0 - - -;
#X obj 497 987 pack s s f, f 30;
#X obj 497 857 t a a, f 31;
#X text 612 1038 give each button the new send symbol in the format
column_row_buttonset;
#X msg 497 911 symbol bt_init_\$2_\$1;
#X msg 497 1038 \; \$1 send \$2_\$3;
#X obj 493 53 t b f;
#X text 712 134 a change in current button set \; changes the the names
for the button's send symbols.;
#X obj 493 20 inlet currentButtonSet;
#X obj 525 118 s BI_currentButtonSet;
#X obj 525 296 s BI_resetOuterCounter;
#X obj 511 405 r BI_resetOuterCounter;
#X obj 525 493 s BI_currentOuterIteration;
#X obj 607 618 s BI_resetInnerCounter;
#X obj 550 796 r BI_currentOuterIteration;
#X obj 704 954 r BI__currentButtonSet;
#X obj 565 716 r BI_resetInnerCounter;
#X connect 0 0 1 0;
#X connect 5 0 13 0;
#X connect 6 0 7 0;
#X connect 7 0 9 0;
#X connect 9 0 10 0;
#X connect 9 0 20 0;
#X connect 10 0 9 1;
#X connect 13 0 14 0;
#X connect 14 0 15 0;
#X connect 14 0 22 0;
#X connect 15 0 14 1;
#X connect 16 0 5 0;
#X connect 16 1 17 0;
#X connect 17 0 39 0;
#X connect 18 0 42 0;
#X connect 20 0 31 0;
#X connect 21 0 6 0;
#X connect 21 1 18 0;
#X connect 22 0 21 0;
#X connect 22 1 41 0;
#X connect 26 0 30 1;
#X connect 29 0 38 0;
#X connect 30 0 34 0;
#X connect 31 0 33 0;
#X connect 31 1 26 0;
#X connect 33 0 30 0;
#X connect 35 0 16 0;
#X connect 35 1 29 0;
#X connect 37 0 35 0;
#X connect 40 0 14 1;
#X connect 43 0 20 1;
#X connect 44 0 30 2;
#X connect 45 0 9 1;
