#N canvas 0 23 1280 750 10;
#N canvas 64 102 954 630 poly_blip1 0;
#N canvas 42 139 517 419 blip 0;
#X obj 120 253 osc~;
#X obj 181 251 vline~;
#X obj 169 286 *~;
#X obj 137 342 *~;
#X obj 137 369 outlet~;
#X obj 104 117 mtof;
#X obj 301 42 inlet;
#X obj 103 82 unpack f f;
#X obj 184 117 t b f;
#X obj 104 35 inlet;
#X msg 180 216 1 2 0 \, 0 \$1 3;
#X obj 182 320 *~;
#X obj 166 158 float;
#X connect 0 0 3 0;
#X connect 1 0 2 0;
#X connect 1 0 2 1;
#X connect 2 0 11 0;
#X connect 3 0 4 0;
#X connect 5 0 0 0;
#X connect 6 0 12 1;
#X connect 7 0 5 0;
#X connect 7 1 8 0;
#X connect 8 0 12 0;
#X connect 8 1 11 1;
#X connect 9 0 7 0;
#X connect 10 0 1 0;
#X connect 11 0 3 1;
#X connect 12 0 10 0;
#X restore 82 277 pd blip;
#X obj 242 -41 inlet;
#X obj 106 117 hsl 100 30 10 1000 1 1 empty empty decay 2 5 0 10 -4034
-1 -1 8300 1;
#X obj 321 160 pack 0 0 0;
#X obj 315 106 poly 16 1;
#X obj 405 -31 inlet;
#X obj 319 181 route 1 2 3 4 5 6 7 8 9 10 11 12 13 14 15 16;
#N canvas 42 139 517 419 blip 0;
#X obj 120 253 osc~;
#X obj 181 251 vline~;
#X obj 169 286 *~;
#X obj 137 342 *~;
#X obj 137 369 outlet~;
#X obj 104 117 mtof;
#X obj 301 42 inlet;
#X obj 103 82 unpack f f;
#X obj 184 117 t b f;
#X obj 104 35 inlet;
#X msg 180 216 1 2 0 \, 0 \$1 3;
#X obj 182 320 *~;
#X obj 166 158 float;
#X connect 0 0 3 0;
#X connect 1 0 2 0;
#X connect 1 0 2 1;
#X connect 2 0 11 0;
#X connect 3 0 4 0;
#X connect 5 0 0 0;
#X connect 6 0 12 1;
#X connect 7 0 5 0;
#X connect 7 1 8 0;
#X connect 8 0 12 0;
#X connect 8 1 11 1;
#X connect 9 0 7 0;
#X connect 10 0 1 0;
#X connect 11 0 3 1;
#X connect 12 0 10 0;
#X restore 148 277 pd blip;
#N canvas 42 139 517 419 blip 0;
#X obj 120 253 osc~;
#X obj 181 251 vline~;
#X obj 169 286 *~;
#X obj 137 342 *~;
#X obj 137 369 outlet~;
#X obj 104 117 mtof;
#X obj 301 42 inlet;
#X obj 103 82 unpack f f;
#X obj 184 117 t b f;
#X obj 104 35 inlet;
#X msg 180 216 1 2 0 \, 0 \$1 3;
#X obj 182 320 *~;
#X obj 166 158 float;
#X connect 0 0 3 0;
#X connect 1 0 2 0;
#X connect 1 0 2 1;
#X connect 2 0 11 0;
#X connect 3 0 4 0;
#X connect 5 0 0 0;
#X connect 6 0 12 1;
#X connect 7 0 5 0;
#X connect 7 1 8 0;
#X connect 8 0 12 0;
#X connect 8 1 11 1;
#X connect 9 0 7 0;
#X connect 10 0 1 0;
#X connect 11 0 3 1;
#X connect 12 0 10 0;
#X restore 208 278 pd blip;
#N canvas 42 139 517 419 blip 0;
#X obj 120 253 osc~;
#X obj 181 251 vline~;
#X obj 169 286 *~;
#X obj 137 342 *~;
#X obj 137 369 outlet~;
#X obj 104 117 mtof;
#X obj 301 42 inlet;
#X obj 103 82 unpack f f;
#X obj 184 117 t b f;
#X obj 104 35 inlet;
#X msg 180 216 1 2 0 \, 0 \$1 3;
#X obj 182 320 *~;
#X obj 166 158 float;
#X connect 0 0 3 0;
#X connect 1 0 2 0;
#X connect 1 0 2 1;
#X connect 2 0 11 0;
#X connect 3 0 4 0;
#X connect 5 0 0 0;
#X connect 6 0 12 1;
#X connect 7 0 5 0;
#X connect 7 1 8 0;
#X connect 8 0 12 0;
#X connect 8 1 11 1;
#X connect 9 0 7 0;
#X connect 10 0 1 0;
#X connect 11 0 3 1;
#X connect 12 0 10 0;
#X restore 274 278 pd blip;
#N canvas 42 139 517 419 blip 0;
#X obj 120 253 osc~;
#X obj 181 251 vline~;
#X obj 169 286 *~;
#X obj 137 342 *~;
#X obj 137 369 outlet~;
#X obj 104 117 mtof;
#X obj 301 42 inlet;
#X obj 103 82 unpack f f;
#X obj 184 117 t b f;
#X obj 104 35 inlet;
#X msg 180 216 1 2 0 \, 0 \$1 3;
#X obj 182 320 *~;
#X obj 166 158 float;
#X connect 0 0 3 0;
#X connect 1 0 2 0;
#X connect 1 0 2 1;
#X connect 2 0 11 0;
#X connect 3 0 4 0;
#X connect 5 0 0 0;
#X connect 6 0 12 1;
#X connect 7 0 5 0;
#X connect 7 1 8 0;
#X connect 8 0 12 0;
#X connect 8 1 11 1;
#X connect 9 0 7 0;
#X connect 10 0 1 0;
#X connect 11 0 3 1;
#X connect 12 0 10 0;
#X restore 337 282 pd blip;
#N canvas 42 139 517 419 blip 0;
#X obj 120 253 osc~;
#X obj 181 251 vline~;
#X obj 169 286 *~;
#X obj 137 342 *~;
#X obj 137 369 outlet~;
#X obj 104 117 mtof;
#X obj 301 42 inlet;
#X obj 103 82 unpack f f;
#X obj 184 117 t b f;
#X obj 104 35 inlet;
#X msg 180 216 1 2 0 \, 0 \$1 3;
#X obj 182 320 *~;
#X obj 166 158 float;
#X connect 0 0 3 0;
#X connect 1 0 2 0;
#X connect 1 0 2 1;
#X connect 2 0 11 0;
#X connect 3 0 4 0;
#X connect 5 0 0 0;
#X connect 6 0 12 1;
#X connect 7 0 5 0;
#X connect 7 1 8 0;
#X connect 8 0 12 0;
#X connect 8 1 11 1;
#X connect 9 0 7 0;
#X connect 10 0 1 0;
#X connect 11 0 3 1;
#X connect 12 0 10 0;
#X restore 403 282 pd blip;
#N canvas 42 139 517 419 blip 0;
#X obj 120 253 osc~;
#X obj 181 251 vline~;
#X obj 169 286 *~;
#X obj 137 342 *~;
#X obj 137 369 outlet~;
#X obj 104 117 mtof;
#X obj 301 42 inlet;
#X obj 103 82 unpack f f;
#X obj 184 117 t b f;
#X obj 104 35 inlet;
#X msg 180 216 1 2 0 \, 0 \$1 3;
#X obj 182 320 *~;
#X obj 166 158 float;
#X connect 0 0 3 0;
#X connect 1 0 2 0;
#X connect 1 0 2 1;
#X connect 2 0 11 0;
#X connect 3 0 4 0;
#X connect 5 0 0 0;
#X connect 6 0 12 1;
#X connect 7 0 5 0;
#X connect 7 1 8 0;
#X connect 8 0 12 0;
#X connect 8 1 11 1;
#X connect 9 0 7 0;
#X connect 10 0 1 0;
#X connect 11 0 3 1;
#X connect 12 0 10 0;
#X restore 463 283 pd blip;
#N canvas 42 139 517 419 blip 0;
#X obj 120 253 osc~;
#X obj 181 251 vline~;
#X obj 169 286 *~;
#X obj 137 342 *~;
#X obj 137 369 outlet~;
#X obj 104 117 mtof;
#X obj 301 42 inlet;
#X obj 103 82 unpack f f;
#X obj 184 117 t b f;
#X obj 104 35 inlet;
#X msg 180 216 1 2 0 \, 0 \$1 3;
#X obj 182 320 *~;
#X obj 166 158 float;
#X connect 0 0 3 0;
#X connect 1 0 2 0;
#X connect 1 0 2 1;
#X connect 2 0 11 0;
#X connect 3 0 4 0;
#X connect 5 0 0 0;
#X connect 6 0 12 1;
#X connect 7 0 5 0;
#X connect 7 1 8 0;
#X connect 8 0 12 0;
#X connect 8 1 11 1;
#X connect 9 0 7 0;
#X connect 10 0 1 0;
#X connect 11 0 3 1;
#X connect 12 0 10 0;
#X restore 529 283 pd blip;
#X obj 178 566 outlet~;
#N canvas 42 139 517 419 blip 0;
#X obj 120 253 osc~;
#X obj 181 251 vline~;
#X obj 169 286 *~;
#X obj 137 342 *~;
#X obj 137 369 outlet~;
#X obj 104 117 mtof;
#X obj 301 42 inlet;
#X obj 103 82 unpack f f;
#X obj 184 117 t b f;
#X obj 104 35 inlet;
#X msg 180 216 1 2 0 \, 0 \$1 3;
#X obj 182 320 *~;
#X obj 166 158 float;
#X connect 0 0 3 0;
#X connect 1 0 2 0;
#X connect 1 0 2 1;
#X connect 2 0 11 0;
#X connect 3 0 4 0;
#X connect 5 0 0 0;
#X connect 6 0 12 1;
#X connect 7 0 5 0;
#X connect 7 1 8 0;
#X connect 8 0 12 0;
#X connect 8 1 11 1;
#X connect 9 0 7 0;
#X connect 10 0 1 0;
#X connect 11 0 3 1;
#X connect 12 0 10 0;
#X restore 117 332 pd blip;
#N canvas 42 139 517 419 blip 0;
#X obj 120 253 osc~;
#X obj 181 251 vline~;
#X obj 169 286 *~;
#X obj 137 342 *~;
#X obj 137 369 outlet~;
#X obj 104 117 mtof;
#X obj 301 42 inlet;
#X obj 103 82 unpack f f;
#X obj 184 117 t b f;
#X obj 104 35 inlet;
#X msg 180 216 1 2 0 \, 0 \$1 3;
#X obj 182 320 *~;
#X obj 166 158 float;
#X connect 0 0 3 0;
#X connect 1 0 2 0;
#X connect 1 0 2 1;
#X connect 2 0 11 0;
#X connect 3 0 4 0;
#X connect 5 0 0 0;
#X connect 6 0 12 1;
#X connect 7 0 5 0;
#X connect 7 1 8 0;
#X connect 8 0 12 0;
#X connect 8 1 11 1;
#X connect 9 0 7 0;
#X connect 10 0 1 0;
#X connect 11 0 3 1;
#X connect 12 0 10 0;
#X restore 183 332 pd blip;
#N canvas 42 139 517 419 blip 0;
#X obj 120 253 osc~;
#X obj 181 251 vline~;
#X obj 169 286 *~;
#X obj 137 342 *~;
#X obj 137 369 outlet~;
#X obj 104 117 mtof;
#X obj 301 42 inlet;
#X obj 103 82 unpack f f;
#X obj 184 117 t b f;
#X obj 104 35 inlet;
#X msg 180 216 1 2 0 \, 0 \$1 3;
#X obj 182 320 *~;
#X obj 166 158 float;
#X connect 0 0 3 0;
#X connect 1 0 2 0;
#X connect 1 0 2 1;
#X connect 2 0 11 0;
#X connect 3 0 4 0;
#X connect 5 0 0 0;
#X connect 6 0 12 1;
#X connect 7 0 5 0;
#X connect 7 1 8 0;
#X connect 8 0 12 0;
#X connect 8 1 11 1;
#X connect 9 0 7 0;
#X connect 10 0 1 0;
#X connect 11 0 3 1;
#X connect 12 0 10 0;
#X restore 243 333 pd blip;
#N canvas 42 139 517 419 blip 0;
#X obj 120 253 osc~;
#X obj 181 251 vline~;
#X obj 169 286 *~;
#X obj 137 342 *~;
#X obj 137 369 outlet~;
#X obj 104 117 mtof;
#X obj 301 42 inlet;
#X obj 103 82 unpack f f;
#X obj 184 117 t b f;
#X obj 104 35 inlet;
#X msg 180 216 1 2 0 \, 0 \$1 3;
#X obj 182 320 *~;
#X obj 166 158 float;
#X connect 0 0 3 0;
#X connect 1 0 2 0;
#X connect 1 0 2 1;
#X connect 2 0 11 0;
#X connect 3 0 4 0;
#X connect 5 0 0 0;
#X connect 6 0 12 1;
#X connect 7 0 5 0;
#X connect 7 1 8 0;
#X connect 8 0 12 0;
#X connect 8 1 11 1;
#X connect 9 0 7 0;
#X connect 10 0 1 0;
#X connect 11 0 3 1;
#X connect 12 0 10 0;
#X restore 309 333 pd blip;
#N canvas 42 139 517 419 blip 0;
#X obj 120 253 osc~;
#X obj 181 251 vline~;
#X obj 169 286 *~;
#X obj 137 342 *~;
#X obj 137 369 outlet~;
#X obj 104 117 mtof;
#X obj 301 42 inlet;
#X obj 103 82 unpack f f;
#X obj 184 117 t b f;
#X obj 104 35 inlet;
#X msg 180 216 1 2 0 \, 0 \$1 3;
#X obj 182 320 *~;
#X obj 166 158 float;
#X connect 0 0 3 0;
#X connect 1 0 2 0;
#X connect 1 0 2 1;
#X connect 2 0 11 0;
#X connect 3 0 4 0;
#X connect 5 0 0 0;
#X connect 6 0 12 1;
#X connect 7 0 5 0;
#X connect 7 1 8 0;
#X connect 8 0 12 0;
#X connect 8 1 11 1;
#X connect 9 0 7 0;
#X connect 10 0 1 0;
#X connect 11 0 3 1;
#X connect 12 0 10 0;
#X restore 372 337 pd blip;
#N canvas 42 139 517 419 blip 0;
#X obj 120 253 osc~;
#X obj 181 251 vline~;
#X obj 169 286 *~;
#X obj 137 342 *~;
#X obj 137 369 outlet~;
#X obj 104 117 mtof;
#X obj 301 42 inlet;
#X obj 103 82 unpack f f;
#X obj 184 117 t b f;
#X obj 104 35 inlet;
#X msg 180 216 1 2 0 \, 0 \$1 3;
#X obj 182 320 *~;
#X obj 166 158 float;
#X connect 0 0 3 0;
#X connect 1 0 2 0;
#X connect 1 0 2 1;
#X connect 2 0 11 0;
#X connect 3 0 4 0;
#X connect 5 0 0 0;
#X connect 6 0 12 1;
#X connect 7 0 5 0;
#X connect 7 1 8 0;
#X connect 8 0 12 0;
#X connect 8 1 11 1;
#X connect 9 0 7 0;
#X connect 10 0 1 0;
#X connect 11 0 3 1;
#X connect 12 0 10 0;
#X restore 438 337 pd blip;
#N canvas 42 139 517 419 blip 0;
#X obj 120 253 osc~;
#X obj 181 251 vline~;
#X obj 169 286 *~;
#X obj 137 342 *~;
#X obj 137 369 outlet~;
#X obj 104 117 mtof;
#X obj 301 42 inlet;
#X obj 103 82 unpack f f;
#X obj 184 117 t b f;
#X obj 104 35 inlet;
#X msg 180 216 1 2 0 \, 0 \$1 3;
#X obj 182 320 *~;
#X obj 166 158 float;
#X connect 0 0 3 0;
#X connect 1 0 2 0;
#X connect 1 0 2 1;
#X connect 2 0 11 0;
#X connect 3 0 4 0;
#X connect 5 0 0 0;
#X connect 6 0 12 1;
#X connect 7 0 5 0;
#X connect 7 1 8 0;
#X connect 8 0 12 0;
#X connect 8 1 11 1;
#X connect 9 0 7 0;
#X connect 10 0 1 0;
#X connect 11 0 3 1;
#X connect 12 0 10 0;
#X restore 498 338 pd blip;
#N canvas 42 139 517 419 blip 0;
#X obj 120 253 osc~;
#X obj 181 251 vline~;
#X obj 169 286 *~;
#X obj 137 342 *~;
#X obj 137 369 outlet~;
#X obj 104 117 mtof;
#X obj 301 42 inlet;
#X obj 103 82 unpack f f;
#X obj 184 117 t b f;
#X obj 104 35 inlet;
#X msg 180 216 1 2 0 \, 0 \$1 3;
#X obj 182 320 *~;
#X obj 166 158 float;
#X connect 0 0 3 0;
#X connect 1 0 2 0;
#X connect 1 0 2 1;
#X connect 2 0 11 0;
#X connect 3 0 4 0;
#X connect 5 0 0 0;
#X connect 6 0 12 1;
#X connect 7 0 5 0;
#X connect 7 1 8 0;
#X connect 8 0 12 0;
#X connect 8 1 11 1;
#X connect 9 0 7 0;
#X connect 10 0 1 0;
#X connect 11 0 3 1;
#X connect 12 0 10 0;
#X restore 564 338 pd blip;
#X obj 302 17 pack f f;
#X obj 377 132 / 128;
#X obj 302 41 stripnote;
#X obj 307 69 pack f f;
#X obj 181 535 *~ 0.3;
#X connect 0 0 27 0;
#X connect 1 0 23 0;
#X connect 2 0 0 1;
#X connect 2 0 7 1;
#X connect 2 0 8 1;
#X connect 2 0 9 1;
#X connect 2 0 10 1;
#X connect 2 0 11 1;
#X connect 2 0 12 1;
#X connect 2 0 13 1;
#X connect 2 0 15 1;
#X connect 2 0 16 1;
#X connect 2 0 17 1;
#X connect 2 0 18 1;
#X connect 2 0 19 1;
#X connect 2 0 20 1;
#X connect 2 0 21 1;
#X connect 2 0 22 1;
#X connect 3 0 6 0;
#X connect 4 0 3 0;
#X connect 4 1 3 1;
#X connect 4 2 24 0;
#X connect 5 0 23 1;
#X connect 6 0 0 0;
#X connect 6 1 7 0;
#X connect 6 2 8 0;
#X connect 6 3 9 0;
#X connect 6 4 10 0;
#X connect 6 5 11 0;
#X connect 6 6 12 0;
#X connect 6 7 13 0;
#X connect 6 8 15 0;
#X connect 6 9 16 0;
#X connect 6 10 17 0;
#X connect 6 11 18 0;
#X connect 6 12 19 0;
#X connect 6 13 20 0;
#X connect 6 14 21 0;
#X connect 6 15 22 0;
#X connect 7 0 27 0;
#X connect 8 0 27 0;
#X connect 9 0 27 0;
#X connect 10 0 27 0;
#X connect 11 0 27 0;
#X connect 12 0 27 0;
#X connect 13 0 27 0;
#X connect 15 0 27 0;
#X connect 16 0 27 0;
#X connect 17 0 27 0;
#X connect 18 0 27 0;
#X connect 19 0 27 0;
#X connect 20 0 27 0;
#X connect 21 0 27 0;
#X connect 22 0 27 0;
#X connect 23 0 25 0;
#X connect 24 0 3 2;
#X connect 25 0 26 0;
#X connect 25 1 26 1;
#X connect 26 0 4 0;
#X connect 27 0 14 0;
#X coords 0 -1 1 1 111 60 1 100 100;
#X restore 823 834 pd poly_blip1;
#X obj 1057 1170 dac~;
#X obj 87 743 tgl 50 1 bt_send_0_3_1 bt_init_0_3 empty 17 7 0 10 -262144
-1 -1 0 1;
#N canvas 141 168 675 463 (subpatch) 0;
#X array pentatonicArray 80 float 3;
#A 0 57 59 62 64 66 69 71 74 76 78 57 59 62 64 66 69 71 74 76 78 57
59 62 64 66 69 71 74 76 78 57 59 62 64 66 69 71 74 76 78 57 59 62 64
66 69 71 74 76 78 57 59 62 64 66 69 71 74 76 78 57 59 62 64 66 69 71
74 76 78 57 59 62 64 66 69 71 74 76 78;
#X coords 0 50 80 80 200 140 1 0 0;
#X restore 142 -169 graph;
#X msg 52 -26 \; pentatonicArray read pentatonicArray.txt;
#X obj 823 765 tabread pentatonicArray;
#X floatatom 823 786 5 0 0 0 - - -;
#X obj 823 804 makenote 64 250;
#X obj 89 1020 tgl 40 1 bt_send_0_0_1 bt_init_0_0 empty 0 7 0 10 -257985
-1 -1 1 1;
#X obj 89 935 tgl 50 1 bt_send_0_1_1 bt_init_0_1 empty 17 7 0 10 -262144
-1 -1 0 1;
#X obj 87 654 tgl 50 1 bt_send_0_4_1 bt_init_0_4 empty 17 7 0 10 -262144
-1 -1 1 1;
#X obj 12 -184 loadbang;
#X obj 11 41 s setToggleIds;
#X obj 23 -158 bng 15 250 50 0 empty empty empty 17 7 0 10 -262144
-1 -1;
#X floatatom 1035 706 5 0 0 0 - - -;
#X obj 86 831 tgl 50 1 bt_send_0_2_1 bt_init_0_2 empty 17 7 0 10 -262144
-1 -1 0 1;
#X obj 87 295 tgl 50 1 bt_send_0_8_1 bt_init_0_8 empty 17 7 0 10 -262144
-1 -1 0 1;
#X obj 89 567 tgl 50 1 bt_send_0_5_1 bt_init_0_5 empty 17 7 0 10 -262144
-1 -1 0 1;
#X obj 86 473 tgl 50 1 bt_send_0_6_1 bt_init_0_6 empty 17 7 0 10 -262144
-1 -1 0 1;
#X obj 87 197 tgl 50 1 bt_send_0_9_1 bt_init_0_9 empty 17 7 0 10 -262144
-1 -1 0 1;
#X obj 86 384 tgl 50 1 bt_send_0_7_1 bt_init_0_7 empty 17 7 0 10 -262144
-1 -1 0 1;
#X obj 153 761 tgl 50 1 bt_send_1_3_1 bt_init_1_3 empty 17 7 0 10 -262144
-1 -1 0 1;
#X obj 155 1064 tgl 50 1 bt_send_1_0_1 bt_init_1_0 empty 17 7 0 10
-262144 -1 -1 0 1;
#X obj 152 963 tgl 50 1 bt_send_1_1_1 bt_init_1_1 empty 17 7 0 10 -262144
-1 -1 0 1;
#X obj 153 664 tgl 50 1 bt_send_1_4_1 bt_init_1_4 empty 17 7 0 10 -262144
-1 -1 0 1;
#X obj 152 860 tgl 50 1 bt_send_1_2_1 bt_init_1_2 empty 17 7 0 10 -262144
-1 -1 0 1;
#N canvas 58 24 1222 750 MatrixProcessingNullBisNeun 0;
#X obj 110 377 tgl 15 0 empty empty empty 17 7 0 10 -262144 -1 -1 0
1;
#X obj 110 424 moses 1;
#X obj 251 448 bng 15 250 50 0 empty empty empty 17 7 0 10 -262144
-1 -1;
#X obj 110 446 bng 15 250 50 0 empty empty empty 17 7 0 10 -262144
-1 -1;
#X obj 78 351 t f f;
#X obj 60 444 f 0;
#X obj 60 611 moses 1;
#X text 119 611 if Toggle is on when sequencer bangs inlet \; then
send away your ToggleID to tabread;
#X obj 78 320 r Toggle0Send;
#X text 187 320 1 oder 0 vom \; versteckten Toggle;
#X obj 106 703 f 0;
#X obj 251 497 f 0;
#X obj 251 525 s colorOn;
#X obj 110 527 s colorOff;
#X obj 110 500 f 0;
#X obj 682 28 r setToggleIds;
#X text 3327 751 ...to tabread;
#X obj 3185 748 outlet;
#X obj 106 649 bang;
#X floatatom 48 721 5 0 0 0 - - -;
#X floatatom 159 708 5 0 0 0 - - -;
#X obj 220 707 bng 15 250 50 0 empty empty empty 17 7 0 10 -262144
-1 -1;
#X obj 128 473 r toggleId0;
#X obj 269 469 r toggleId0;
#X obj 124 677 r toggleId0;
#X obj 682 96 s toggleId0;
#X msg 682 70 0;
#X obj 521 377 tgl 15 0 empty empty empty 17 7 0 10 -262144 -1 -1 0
1;
#X obj 521 424 moses 1;
#X obj 662 448 bng 15 250 50 0 empty empty empty 17 7 0 10 -262144
-1 -1;
#X obj 521 446 bng 15 250 50 0 empty empty empty 17 7 0 10 -262144
-1 -1;
#X obj 489 351 t f f;
#X obj 471 444 f 0;
#X obj 471 611 moses 1;
#X text 530 611 if Toggle is on when sequencer bangs inlet \; then
send away your ToggleID to tabread;
#X text 598 320 1 oder 0 vom \; versteckten Toggle;
#X obj 517 703 f 0;
#X obj 662 497 f 0;
#X obj 662 525 s colorOn;
#X obj 521 527 s colorOff;
#X obj 521 500 f 0;
#X obj 517 649 bang;
#X obj 489 320 r Toggle1Send;
#X obj 539 473 r toggleId1;
#X obj 680 469 r toggleId1;
#X obj 535 677 r toggleId1;
#X msg 773 70 1;
#X obj 773 96 s toggleId1;
#X obj 904 377 tgl 15 0 empty empty empty 17 7 0 10 -262144 -1 -1 0
1;
#X obj 904 424 moses 1;
#X obj 1015 451 bng 15 250 50 0 empty empty empty 17 7 0 10 -262144
-1 -1;
#X obj 904 446 bng 15 250 50 0 empty empty empty 17 7 0 10 -262144
-1 -1;
#X obj 872 351 t f f;
#X obj 854 444 f 0;
#X obj 854 611 moses 1;
#X text 913 611 if Toggle is on when sequencer bangs inlet \; then
send away your ToggleID to tabread;
#X text 981 320 1 oder 0 vom \; versteckten Toggle;
#X obj 900 703 f 0;
#X obj 1015 500 f 0;
#X obj 1015 528 s colorOn;
#X obj 904 527 s colorOff;
#X obj 904 500 f 0;
#X obj 900 649 bang;
#X obj 872 320 r Toggle2Send;
#X obj 922 473 r toggleId2;
#X obj 1033 472 r toggleId2;
#X obj 918 677 r toggleId2;
#X msg 874 69 2;
#X obj 874 96 s toggleId2;
#X msg 974 69 3;
#X obj 974 96 s toggleId3;
#X msg 1064 67 4;
#X obj 1064 96 s toggleId4;
#X obj 1284 387 tgl 15 0 empty empty empty 17 7 0 10 -262144 -1 -1
0 1;
#X obj 1284 434 moses 1;
#X obj 1395 461 bng 15 250 50 0 empty empty empty 17 7 0 10 -262144
-1 -1;
#X obj 1284 456 bng 15 250 50 0 empty empty empty 17 7 0 10 -262144
-1 -1;
#X obj 1252 361 t f f;
#X obj 1234 454 f 0;
#X obj 1234 621 moses 1;
#X text 1293 621 if Toggle is on when sequencer bangs inlet \; then
send away your ToggleID to tabread;
#X text 1361 330 1 oder 0 vom \; versteckten Toggle;
#X obj 1280 713 f 0;
#X obj 1395 510 f 0;
#X obj 1395 538 s colorOn;
#X obj 1284 537 s colorOff;
#X obj 1284 510 f 0;
#X obj 1280 659 bang;
#X obj 1252 330 r Toggle3Send;
#X obj 1413 482 r toggleId3;
#X obj 1302 483 r toggleId3;
#X obj 1298 687 r toggleId3;
#X obj 1664 387 tgl 15 0 empty empty empty 17 7 0 10 -262144 -1 -1
0 1;
#X obj 1664 434 moses 1;
#X obj 1775 461 bng 15 250 50 0 empty empty empty 17 7 0 10 -262144
-1 -1;
#X obj 1664 456 bng 15 250 50 0 empty empty empty 17 7 0 10 -262144
-1 -1;
#X obj 1632 361 t f f;
#X obj 1614 454 f 0;
#X obj 1614 621 moses 1;
#X text 1673 621 if Toggle is on when sequencer bangs inlet \; then
send away your ToggleID to tabread;
#X text 1741 330 1 oder 0 vom \; versteckten Toggle;
#X obj 1660 713 f 0;
#X obj 1775 510 f 0;
#X obj 1775 538 s colorOn;
#X obj 1664 537 s colorOff;
#X obj 1664 510 f 0;
#X obj 1660 659 bang;
#X obj 1632 330 r Toggle4Send;
#X obj 1682 483 r toggleId4;
#X obj 1793 482 r toggleId4;
#X obj 1678 687 r toggleId4;
#X obj 60 31 inlet sequencerStep;
#X msg 1636 190 \; RcvCanvas\$1 color 1;
#X obj 1795 131 r colorOn;
#X obj 1636 132 r colorOff;
#X msg 1636 162 \$1;
#X msg 1795 164 \$1;
#X msg 1795 188 \; RcvCanvas\$1 color 16;
#X obj 1152 96 s toggleId5;
#X obj 1243 96 s toggleId6;
#X obj 1344 96 s toggleId7;
#X obj 1444 96 s toggleId8;
#X obj 1534 96 s toggleId9;
#X msg 1152 70 5;
#X msg 1243 70 6;
#X msg 1344 69 7;
#X msg 1444 69 8;
#X msg 1534 67 9;
#X obj 2060 377 tgl 15 0 empty empty empty 17 7 0 10 -262144 -1 -1
0 1;
#X obj 2060 424 moses 1;
#X obj 2201 448 bng 15 250 50 0 empty empty empty 17 7 0 10 -262144
-1 -1;
#X obj 2060 446 bng 15 250 50 0 empty empty empty 17 7 0 10 -262144
-1 -1;
#X obj 2028 351 t f f;
#X obj 2010 444 f 0;
#X obj 2010 611 moses 1;
#X text 2069 611 if Toggle is on when sequencer bangs inlet \; then
send away your ToggleID to tabread;
#X text 2137 320 1 oder 0 vom \; versteckten Toggle;
#X obj 2056 703 f 0;
#X obj 2201 497 f 0;
#X obj 2201 525 s colorOn;
#X obj 2060 527 s colorOff;
#X obj 2060 500 f 0;
#X obj 2056 649 bang;
#X obj 2471 377 tgl 15 0 empty empty empty 17 7 0 10 -262144 -1 -1
0 1;
#X obj 2471 424 moses 1;
#X obj 2612 448 bng 15 250 50 0 empty empty empty 17 7 0 10 -262144
-1 -1;
#X obj 2471 446 bng 15 250 50 0 empty empty empty 17 7 0 10 -262144
-1 -1;
#X obj 2439 351 t f f;
#X obj 2421 444 f 0;
#X obj 2421 611 moses 1;
#X text 2480 611 if Toggle is on when sequencer bangs inlet \; then
send away your ToggleID to tabread;
#X text 2548 320 1 oder 0 vom \; versteckten Toggle;
#X obj 2467 703 f 0;
#X obj 2612 497 f 0;
#X obj 2612 525 s colorOn;
#X obj 2471 527 s colorOff;
#X obj 2471 500 f 0;
#X obj 2467 649 bang;
#X obj 2854 377 tgl 15 0 empty empty empty 17 7 0 10 -262144 -1 -1
0 1;
#X obj 2854 424 moses 1;
#X obj 2965 451 bng 15 250 50 0 empty empty empty 17 7 0 10 -262144
-1 -1;
#X obj 2854 446 bng 15 250 50 0 empty empty empty 17 7 0 10 -262144
-1 -1;
#X obj 2822 351 t f f;
#X obj 2804 444 f 0;
#X obj 2804 611 moses 1;
#X text 2863 611 if Toggle is on when sequencer bangs inlet \; then
send away your ToggleID to tabread;
#X text 2931 320 1 oder 0 vom \; versteckten Toggle;
#X obj 2850 703 f 0;
#X obj 2965 500 f 0;
#X obj 2965 528 s colorOn;
#X obj 2854 527 s colorOff;
#X obj 2854 500 f 0;
#X obj 2850 649 bang;
#X obj 2028 320 r Toggle5Send;
#X obj 2078 473 r toggleId5;
#X obj 2219 469 r toggleId5;
#X obj 2074 677 r toggleId5;
#X obj 2439 320 r Toggle6Send;
#X obj 2489 473 r toggleId6;
#X obj 2630 469 r toggleId6;
#X obj 2485 677 r toggleId6;
#X obj 2822 320 r Toggle7Send;
#X obj 2872 473 r toggleId7;
#X obj 2983 472 r toggleId7;
#X obj 2868 677 r toggleId7;
#X obj 3239 376 tgl 15 0 empty empty empty 17 7 0 10 -262144 -1 -1
0 1;
#X obj 3239 423 moses 1;
#X obj 3350 450 bng 15 250 50 0 empty empty empty 17 7 0 10 -262144
-1 -1;
#X obj 3239 445 bng 15 250 50 0 empty empty empty 17 7 0 10 -262144
-1 -1;
#X obj 3207 350 t f f;
#X obj 3189 443 f 0;
#X obj 3189 610 moses 1;
#X text 3248 610 if Toggle is on when sequencer bangs inlet \; then
send away your ToggleID to tabread;
#X text 3316 319 1 oder 0 vom \; versteckten Toggle;
#X obj 3235 702 f 0;
#X obj 3350 499 f 0;
#X obj 3350 527 s colorOn;
#X obj 3239 526 s colorOff;
#X obj 3239 499 f 0;
#X obj 3235 648 bang;
#X obj 3619 376 tgl 15 0 empty empty empty 17 7 0 10 -262144 -1 -1
0 1;
#X obj 3619 423 moses 1;
#X obj 3730 450 bng 15 250 50 0 empty empty empty 17 7 0 10 -262144
-1 -1;
#X obj 3619 445 bng 15 250 50 0 empty empty empty 17 7 0 10 -262144
-1 -1;
#X obj 3587 350 t f f;
#X obj 3569 443 f 0;
#X obj 3569 610 moses 1;
#X text 3628 610 if Toggle is on when sequencer bangs inlet \; then
send away your ToggleID to tabread;
#X text 3696 319 1 oder 0 vom \; versteckten Toggle;
#X obj 3615 702 f 0;
#X obj 3730 499 f 0;
#X obj 3730 527 s colorOn;
#X obj 3619 526 s colorOff;
#X obj 3619 499 f 0;
#X obj 3615 648 bang;
#X obj 3207 319 r Toggle8Send;
#X obj 3257 472 r toggleId8;
#X obj 3368 471 r toggleId8;
#X obj 3253 676 r toggleId8;
#X obj 3587 319 r Toggle9Send;
#X obj 3637 472 r toggleId9;
#X obj 3748 471 r toggleId9;
#X obj 3633 676 r toggleId9;
#X connect 0 0 1 0;
#X connect 1 0 3 0;
#X connect 1 1 2 0;
#X connect 2 0 11 0;
#X connect 3 0 14 0;
#X connect 4 0 5 1;
#X connect 4 1 0 0;
#X connect 5 0 6 0;
#X connect 6 1 18 0;
#X connect 8 0 4 0;
#X connect 10 0 17 0;
#X connect 10 0 19 0;
#X connect 11 0 12 0;
#X connect 14 0 13 0;
#X connect 15 0 26 0;
#X connect 15 0 46 0;
#X connect 15 0 67 0;
#X connect 15 0 69 0;
#X connect 15 0 71 0;
#X connect 15 0 123 0;
#X connect 15 0 124 0;
#X connect 15 0 125 0;
#X connect 15 0 126 0;
#X connect 15 0 127 0;
#X connect 18 0 10 0;
#X connect 22 0 14 1;
#X connect 23 0 11 1;
#X connect 24 0 10 1;
#X connect 24 0 20 0;
#X connect 24 0 21 0;
#X connect 26 0 25 0;
#X connect 27 0 28 0;
#X connect 28 0 30 0;
#X connect 28 1 29 0;
#X connect 29 0 37 0;
#X connect 30 0 40 0;
#X connect 31 0 32 1;
#X connect 31 1 27 0;
#X connect 32 0 33 0;
#X connect 33 1 41 0;
#X connect 36 0 17 0;
#X connect 37 0 38 0;
#X connect 40 0 39 0;
#X connect 41 0 36 0;
#X connect 42 0 31 0;
#X connect 43 0 40 1;
#X connect 44 0 37 1;
#X connect 45 0 36 1;
#X connect 46 0 47 0;
#X connect 48 0 49 0;
#X connect 49 0 51 0;
#X connect 49 1 50 0;
#X connect 50 0 58 0;
#X connect 51 0 61 0;
#X connect 52 0 53 1;
#X connect 52 1 48 0;
#X connect 53 0 54 0;
#X connect 54 1 62 0;
#X connect 57 0 17 0;
#X connect 58 0 59 0;
#X connect 61 0 60 0;
#X connect 62 0 57 0;
#X connect 63 0 52 0;
#X connect 64 0 61 1;
#X connect 65 0 58 1;
#X connect 66 0 57 1;
#X connect 67 0 68 0;
#X connect 69 0 70 0;
#X connect 71 0 72 0;
#X connect 73 0 74 0;
#X connect 74 0 76 0;
#X connect 74 1 75 0;
#X connect 75 0 83 0;
#X connect 76 0 86 0;
#X connect 77 0 78 1;
#X connect 77 1 73 0;
#X connect 78 0 79 0;
#X connect 79 1 87 0;
#X connect 82 0 17 0;
#X connect 83 0 84 0;
#X connect 86 0 85 0;
#X connect 87 0 82 0;
#X connect 88 0 77 0;
#X connect 89 0 83 1;
#X connect 90 0 86 1;
#X connect 91 0 82 1;
#X connect 92 0 93 0;
#X connect 93 0 95 0;
#X connect 93 1 94 0;
#X connect 94 0 102 0;
#X connect 95 0 105 0;
#X connect 96 0 97 1;
#X connect 96 1 92 0;
#X connect 97 0 98 0;
#X connect 98 1 106 0;
#X connect 101 0 17 0;
#X connect 102 0 103 0;
#X connect 105 0 104 0;
#X connect 106 0 101 0;
#X connect 107 0 96 0;
#X connect 108 0 105 1;
#X connect 109 0 102 1;
#X connect 110 0 101 1;
#X connect 111 0 5 0;
#X connect 111 0 32 0;
#X connect 111 0 53 0;
#X connect 111 0 78 0;
#X connect 111 0 97 0;
#X connect 111 0 133 0;
#X connect 111 0 148 0;
#X connect 111 0 163 0;
#X connect 111 0 190 0;
#X connect 111 0 205 0;
#X connect 113 0 116 0;
#X connect 114 0 115 0;
#X connect 115 0 112 0;
#X connect 116 0 117 0;
#X connect 123 0 118 0;
#X connect 124 0 119 0;
#X connect 125 0 120 0;
#X connect 126 0 121 0;
#X connect 127 0 122 0;
#X connect 128 0 129 0;
#X connect 129 0 131 0;
#X connect 129 1 130 0;
#X connect 130 0 138 0;
#X connect 131 0 141 0;
#X connect 132 0 133 1;
#X connect 132 1 128 0;
#X connect 133 0 134 0;
#X connect 134 1 142 0;
#X connect 137 0 17 0;
#X connect 138 0 139 0;
#X connect 141 0 140 0;
#X connect 142 0 137 0;
#X connect 143 0 144 0;
#X connect 144 0 146 0;
#X connect 144 1 145 0;
#X connect 145 0 153 0;
#X connect 146 0 156 0;
#X connect 147 0 148 1;
#X connect 147 1 143 0;
#X connect 148 0 149 0;
#X connect 149 1 157 0;
#X connect 152 0 17 0;
#X connect 153 0 154 0;
#X connect 156 0 155 0;
#X connect 157 0 152 0;
#X connect 158 0 159 0;
#X connect 159 0 161 0;
#X connect 159 1 160 0;
#X connect 160 0 168 0;
#X connect 161 0 171 0;
#X connect 162 0 163 1;
#X connect 162 1 158 0;
#X connect 163 0 164 0;
#X connect 164 1 172 0;
#X connect 167 0 17 0;
#X connect 168 0 169 0;
#X connect 171 0 170 0;
#X connect 172 0 167 0;
#X connect 173 0 132 0;
#X connect 174 0 141 1;
#X connect 175 0 138 1;
#X connect 176 0 137 1;
#X connect 177 0 147 0;
#X connect 178 0 156 1;
#X connect 179 0 153 1;
#X connect 180 0 152 1;
#X connect 181 0 162 0;
#X connect 182 0 171 1;
#X connect 183 0 168 1;
#X connect 184 0 167 1;
#X connect 185 0 186 0;
#X connect 186 0 188 0;
#X connect 186 1 187 0;
#X connect 187 0 195 0;
#X connect 188 0 198 0;
#X connect 189 0 190 1;
#X connect 189 1 185 0;
#X connect 190 0 191 0;
#X connect 191 1 199 0;
#X connect 194 0 17 0;
#X connect 195 0 196 0;
#X connect 198 0 197 0;
#X connect 199 0 194 0;
#X connect 200 0 201 0;
#X connect 201 0 203 0;
#X connect 201 1 202 0;
#X connect 202 0 210 0;
#X connect 203 0 213 0;
#X connect 204 0 205 1;
#X connect 204 1 200 0;
#X connect 205 0 206 0;
#X connect 206 1 214 0;
#X connect 209 0 17 0;
#X connect 210 0 211 0;
#X connect 213 0 212 0;
#X connect 214 0 209 0;
#X connect 215 0 189 0;
#X connect 216 0 198 1;
#X connect 217 0 195 1;
#X connect 218 0 194 1;
#X connect 219 0 204 0;
#X connect 220 0 213 1;
#X connect 221 0 210 1;
#X connect 222 0 209 1;
#X restore 1035 683 pd MatrixProcessingNullBisNeun;
#X obj 153 294 tgl 50 1 bt_send_1_8_1 bt_init_1_8 empty 17 7 0 10 -262144
-1 -1 0 1;
#X obj 155 567 tgl 50 1 bt_send_1_5_1 bt_init_1_5 empty 17 7 0 10 -262144
-1 -1 0 1;
#X obj 152 483 tgl 50 1 bt_send_1_6_1 bt_init_1_6 empty 17 7 0 10 -262144
-1 -1 1 1;
#X obj 153 197 tgl 50 1 bt_send_1_9_1 bt_init_1_9 empty 17 7 0 10 -262144
-1 -1 0 1;
#X obj 152 383 tgl 50 1 bt_send_1_7_1 bt_init_1_7 empty 17 7 0 10 -262144
-1 -1 0 1;
#X obj 220 753 tgl 50 1 bt_send_2_3_1 bt_init_2_3 empty 17 7 0 10 -262144
-1 -1 0 1;
#X obj 223 1064 tgl 50 1 bt_send_2_0_1 bt_init_2_0 empty 17 7 0 10
-262144 -1 -1 0 1;
#X obj 220 964 tgl 50 1 bt_send_2_1_1 bt_init_2_1 empty 17 7 0 10 -262144
-1 -1 0 1;
#X obj 219 658 tgl 50 1 bt_send_2_4_1 bt_init_2_4 empty 17 7 0 10 -262144
-1 -1 0 1;
#X obj 222 866 tgl 50 1 bt_send_2_2_1 bt_init_2_2 empty 17 7 0 10 -262144
-1 -1 0 1;
#X obj 218 300 tgl 50 1 bt_send_2_8_1 bt_init_2_8 empty 17 7 0 10 -262144
-1 -1 0 1;
#X obj 221 576 tgl 50 1 bt_send_2_5_1 bt_init_2_5 empty 17 7 0 10 -262144
-1 -1 0 1;
#X obj 217 482 tgl 50 1 bt_send_2_6_1 bt_init_2_6 empty 17 7 0 10 -262144
-1 -1 0 1;
#X obj 219 201 tgl 50 1 bt_send_2_9_1 bt_init_2_9 empty 17 7 0 10 -262144
-1 -1 0 1;
#X obj 219 387 tgl 50 1 bt_send_2_7_1 bt_init_2_7 empty 17 7 0 10 -262144
-1 -1 1 1;
#X obj 782 91 bng 40 250 50 0 empty empty empty 17 7 0 10 -262144 -1
-1;
#X msg 72 -70 122;
#N canvas 425 128 774 407 Bpm 0;
#X floatatom 264 336 5 0 0 0 - - -;
#X obj 228 369 metro;
#X obj 228 400 bng 15 250 50 0 empty empty empty 17 7 0 10 -262144
-1 -1;
#X obj 228 261 t b b b;
#X obj 251 313 /;
#X msg 251 291 60000;
#X msg 40 171 0;
#X obj 298 311 * 4;
#X obj 40 196 t f f;
#X obj 40 227 s resetCounter;
#X obj 40 33 inlet startStopMetro;
#X obj 40 96 tgl 15 0 empty empty empty 17 7 0 10 -262144 -1 -1 0 1
;
#X obj 40 144 moses 1;
#X obj 298 287 f 0;
#X floatatom 328 218 5 0 0 0 - - -;
#X obj 228 37 inlet increaseBpm;
#X obj 365 37 inlet decreaseBpm;
#N canvas 487 259 793 385 My_RSP_BPM_SETTER 0;
#X obj 17 102 t b b;
#X obj 17 142 f;
#X obj 17 164 + 1;
#X floatatom 90 325 5 0 0 0 - - -;
#X obj 209 154 f;
#X obj 209 102 t b b;
#X obj 209 174 - 1;
#X obj 17 187 t b f;
#X obj 209 193 t b f;
#X obj 90 350 makefilename BPM%d;
#X text 429 42 26th November 2018 \; This patch has two inlets \; When
the first inlet receives \; a bang \, it increases the current bpm
\; by 1 The second inlet decreases the \; current bpm analogically.
The current \; bpm is shown on the blue BPM-Canvas on \; the parent
patch. The default bpm is 122 bpm.;
#X obj 17 23 inlet increaseBpmBang;
#X obj 209 23 inlet decreaseBpmBang;
#X obj 90 226 f 0;
#X obj 108 137 r bpmInit;
#X msg 90 381 \; currentBpm label \$1;
#X obj 90 250 t f f;
#X obj 122 297 outlet currentBPM;
#X connect 0 0 1 0;
#X connect 0 1 13 0;
#X connect 1 0 2 0;
#X connect 2 0 7 0;
#X connect 3 0 9 0;
#X connect 4 0 6 0;
#X connect 5 0 4 0;
#X connect 5 1 13 0;
#X connect 6 0 8 0;
#X connect 6 0 13 1;
#X connect 7 0 13 0;
#X connect 7 1 13 1;
#X connect 8 0 13 0;
#X connect 8 1 13 1;
#X connect 9 0 15 0;
#X connect 11 0 0 0;
#X connect 12 0 5 0;
#X connect 13 0 4 1;
#X connect 13 0 1 1;
#X connect 13 0 16 0;
#X connect 14 0 13 1;
#X connect 16 0 3 0;
#X connect 16 1 17 0;
#X coords 0 385 1 384 100 84 0;
#X restore 228 93 pd My_RSP_BPM_SETTER;
#X obj 40 114 t f f;
#X obj 228 166 f 0;
#X obj 228 187 moses 1;
#X obj 228 127 t b f f;
#X obj 274 151 s setBpm;
#X obj 450 425 + 1;
#X obj 631 623 s resetCounter;
#X obj 434 403 r resetCounter;
#X floatatom 541 527 5 0 0 0 - - -;
#X obj 416 424 f 0;
#X obj 541 548 moses 7;
#X msg 631 601 0;
#X obj 541 646 outlet SequencerTimesFour;
#X msg 233 635 \; currentBpm color 16;
#X obj 416 456 t f f;
#X obj 416 485 % 4;
#X obj 416 527 == 0;
#X obj 416 552 moses 1;
#X obj 477 527 == 2;
#X msg 383 635 \; currentBpm color 28;
#X obj 587 603 t f f;
#X obj 316 198 r bpmInit;
#X obj 316 254 t f f;
#X obj 348 277 s setBpm;
#X obj 643 558 bng 15 250 50 0 empty empty empty 17 7 0 10 -262144
-1 -1;
#X obj 477 549 moses 2;
#X obj 117 642 s BPM_metroBangs;
#X obj 117 615 bng 15 250 50 0 empty empty empty 17 7 0 10 -262144
-1 -1;
#X connect 1 0 2 0;
#X connect 2 0 27 0;
#X connect 3 0 1 0;
#X connect 3 1 5 0;
#X connect 3 2 13 0;
#X connect 4 0 0 0;
#X connect 4 0 1 1;
#X connect 5 0 4 0;
#X connect 6 0 8 0;
#X connect 7 0 4 1;
#X connect 8 0 9 0;
#X connect 8 1 1 0;
#X connect 10 0 11 0;
#X connect 11 0 18 0;
#X connect 12 0 6 0;
#X connect 12 1 3 0;
#X connect 13 0 7 0;
#X connect 15 0 17 0;
#X connect 16 0 17 1;
#X connect 17 0 21 0;
#X connect 18 0 12 0;
#X connect 18 1 19 1;
#X connect 19 0 20 0;
#X connect 20 1 3 0;
#X connect 21 0 19 0;
#X connect 21 1 13 1;
#X connect 21 2 22 0;
#X connect 23 0 27 1;
#X connect 25 0 27 1;
#X connect 26 0 28 0;
#X connect 27 0 23 0;
#X connect 27 0 32 0;
#X connect 28 0 30 0;
#X connect 28 1 38 0;
#X connect 29 0 24 0;
#X connect 32 0 33 0;
#X connect 32 1 26 0;
#X connect 33 0 34 0;
#X connect 33 0 36 0;
#X connect 34 0 35 0;
#X connect 35 1 31 0;
#X connect 35 1 45 0;
#X connect 36 0 43 0;
#X connect 38 0 30 0;
#X connect 38 1 29 0;
#X connect 39 0 14 0;
#X connect 39 0 40 0;
#X connect 40 0 13 1;
#X connect 40 1 41 0;
#X connect 43 1 37 0;
#X connect 45 0 44 0;
#X coords 0 -1 1 1 120 10 1 100 100;
#X restore 782 137 pd Bpm;
#X msg 32 8 \; pd dsp 1;
#X obj 664 70 cnv 30 100 60 empty currentBpm BPM130 5 30 0 25 -24198
-262144 0;
#X obj 72 -46 s bpmInit;
#X obj 838 92 bng 40 250 50 0 empty empty empty 17 7 0 10 -262144 -1
-1;
#X obj 895 92 bng 40 250 50 0 empty empty empty 17 7 0 10 -262144 -1
-1;
#X obj 871 1215 r setBpm;
#X floatatom 904 1263 5 0 0 0 - - -;
#X obj 549 72 cnv 50 60 60 empty StepSeqColor7 empty 20 12 0 14 -225271
-66577 0;
#N canvas 134 29 1061 516 Sequencer 0;
#X obj 56 68 inlet metroCount;
#X obj 46 565 outlet Step0;
#X obj 139 565 outlet Step1;
#X obj 231 565 outlet Step2;
#X obj 326 565 outlet Step3;
#X obj 419 565 outlet Step4;
#X obj 511 565 outlet Step5;
#X obj 605 565 outlet Step6;
#X obj 697 565 outlet Step7;
#X obj 168 144 bng 15 250 50 0 empty empty empty 17 7 0 10 -262144
-1 -1;
#X obj 238 143 bng 15 250 50 0 empty empty empty 17 7 0 10 -262144
-1 -1;
#X obj 308 142 bng 15 250 50 0 empty empty empty 17 7 0 10 -262144
-1 -1;
#X obj 388 142 bng 15 250 50 0 empty empty empty 17 7 0 10 -262144
-1 -1;
#X obj 468 142 bng 15 250 50 0 empty empty empty 17 7 0 10 -262144
-1 -1;
#X msg 88 370 0;
#X obj 56 167 t b b;
#X msg 56 370 7;
#X msg 774 233 \; StepSeqColor\$1 color 14;
#X msg 766 469 \; StepSeqColor\$1 color 6;
#X obj 105 167 t b b;
#X msg 137 346 1;
#X msg 105 346 0;
#X obj 56 143 bng 15 250 50 0 empty empty empty 17 7 0 10 -262144 -1
-1;
#X obj 105 143 bng 15 250 50 0 empty empty empty 17 7 0 10 -262144
-1 -1;
#X obj 168 167 t b b;
#X msg 200 324 2;
#X msg 168 324 1;
#X obj 238 167 t b b;
#X msg 270 304 3;
#X msg 238 304 2;
#X obj 308 167 t b b;
#X msg 340 279 4;
#X msg 308 279 3;
#X obj 388 166 t b b;
#X msg 420 257 5;
#X msg 388 257 4;
#X obj 468 167 t b b;
#X msg 500 237 6;
#X msg 468 237 5;
#X obj 548 167 t b b;
#X msg 580 213 7;
#X msg 548 213 6;
#X obj 548 142 bng 15 250 50 0 empty empty empty 17 7 0 10 -262144
-1 -1;
#X obj 56 97 route 0 1 2 3 4 5 6 7;
#X text 956 246 On-Color;
#X text 927 475 Off-Color;
#X obj 88 501 t f f;
#X obj 136 501 t f f;
#X obj 200 499 t f f;
#X obj 270 497 t f f;
#X obj 340 494 t f f;
#X obj 420 493 t f f;
#X obj 500 492 t f f;
#X obj 580 486 t f f;
#X connect 0 0 43 0;
#X connect 9 0 24 0;
#X connect 10 0 27 0;
#X connect 11 0 30 0;
#X connect 12 0 33 0;
#X connect 13 0 36 0;
#X connect 14 0 46 0;
#X connect 15 0 16 0;
#X connect 15 1 14 0;
#X connect 16 0 18 0;
#X connect 19 0 21 0;
#X connect 19 1 20 0;
#X connect 20 0 47 0;
#X connect 21 0 18 0;
#X connect 22 0 15 0;
#X connect 23 0 19 0;
#X connect 24 0 26 0;
#X connect 24 1 25 0;
#X connect 25 0 48 0;
#X connect 26 0 18 0;
#X connect 27 0 29 0;
#X connect 27 1 28 0;
#X connect 28 0 49 0;
#X connect 29 0 18 0;
#X connect 30 0 32 0;
#X connect 30 1 31 0;
#X connect 31 0 50 0;
#X connect 32 0 18 0;
#X connect 33 0 35 0;
#X connect 33 1 34 0;
#X connect 34 0 51 0;
#X connect 35 0 18 0;
#X connect 36 0 38 0;
#X connect 36 1 37 0;
#X connect 37 0 52 0;
#X connect 38 0 18 0;
#X connect 39 0 41 0;
#X connect 39 1 40 0;
#X connect 40 0 53 0;
#X connect 41 0 18 0;
#X connect 42 0 39 0;
#X connect 43 0 22 0;
#X connect 43 1 23 0;
#X connect 43 2 9 0;
#X connect 43 3 10 0;
#X connect 43 4 11 0;
#X connect 43 5 12 0;
#X connect 43 6 13 0;
#X connect 43 7 42 0;
#X connect 46 0 1 0;
#X connect 46 1 17 0;
#X connect 47 0 2 0;
#X connect 47 1 17 0;
#X connect 48 0 3 0;
#X connect 48 1 17 0;
#X connect 49 0 4 0;
#X connect 49 1 17 0;
#X connect 50 0 5 0;
#X connect 50 1 17 0;
#X connect 51 0 6 0;
#X connect 51 1 17 0;
#X connect 52 0 7 0;
#X connect 52 1 17 0;
#X connect 53 0 8 0;
#X connect 53 1 17 0;
#X restore 782 160 pd Sequencer;
#X f 30;
#X obj 81 72 cnv 50 60 60 empty StepSeqColor0 empty 20 12 0 14 -225271
-66577 0;
#X obj 147 72 cnv 50 60 60 empty StepSeqColor1 empty 20 12 0 14 -225271
-66577 0;
#X obj 213 72 cnv 50 60 60 empty StepSeqColor2 empty 20 12 0 14 -225271
-66577 0;
#X obj 280 72 cnv 50 60 60 empty StepSeqColor3 empty 20 12 0 14 -225271
-66577 0;
#X obj 347 72 cnv 50 60 60 empty StepSeqColor4 empty 20 12 0 14 -225271
-66577 0;
#X obj 415 72 cnv 50 60 60 empty StepSeqColor5 empty 20 12 0 14 -225271
-66577 0;
#X obj 483 72 cnv 50 60 60 empty StepSeqColor6 empty 20 12 0 14 -260818
-66577 0;
#N canvas 281 243 649 492 beatdly1f 0;
#X obj -7 195 inlet~;
#X obj 231 147 inlet;
#X obj 25 593 outlet~;
#X obj 130 230 pow -1;
#X obj 151 268 / 4;
#X obj 182 297 *;
#X obj 166 333 * 60000;
#X obj 68 49 hsl 96 20 0 1 0 1 empty empty Feedbk -60 10 0 15 -258113
-1 -1 7300 1;
#X text 233 41 beatsynced delay with feedback;
#X obj 99 14 nbx 2 20 0 32 0 1 empty empty empty 0 -8 0 14 -262144
-1 -1 3 256;
#X text 268 148 <- bpm in;
#X obj 100 201 float;
#X obj 104 159 t b f;
#X obj 68 79 hsl 96 20 20 5000 1 1 empty empty Freq -60 10 0 15 -4160
-262144 -1 3000 1;
#X obj 80 387 abs_delayline1filt;
#X obj 68 108 hsl 96 20 0 1 0 1 empty empty DryWet -60 10 0 15 -257985
-1 -1 9100 1;
#X obj 26 569 +~;
#X obj 48 539 *~;
#X obj -23 535 *~;
#X obj -7 487 * -1;
#X obj -7 511 + 1;
#X text -70 459 simple crossfader (or dry/wet slider);
#X text 258 69 by Martin Brinkmann!!;
#X connect 0 0 14 0;
#X connect 0 0 18 0;
#X connect 1 0 11 0;
#X connect 3 0 4 0;
#X connect 4 0 5 0;
#X connect 5 0 6 0;
#X connect 6 0 14 1;
#X connect 7 0 14 2;
#X connect 9 0 12 0;
#X connect 11 0 3 0;
#X connect 12 0 11 0;
#X connect 12 1 5 1;
#X connect 13 0 14 3;
#X connect 14 0 17 0;
#X connect 15 0 19 0;
#X connect 15 0 17 1;
#X connect 16 0 2 0;
#X connect 17 0 16 1;
#X connect 18 0 16 0;
#X connect 19 0 20 0;
#X connect 20 0 18 1;
#X coords 0 -1 1 1 180 140 1 0 0;
#X restore 720 1280 pd beatdly1f;
#X text 780 55 start \; stop;
#X text 836 55 tempo \; Up;
#X text 893 56 tempo \; Down;
#X obj 823 952 jakobsdelay;
#X obj 1076 827 r BPM_metroBangs;
#X obj 1076 848 bng 15 250 50 0 empty empty empty 17 7 0 10 -262144
-1 -1;
#X obj 1083 952 jakobsdelay;
#X obj 1336 827 r BPM_metroBangs;
#X obj 1336 848 bng 15 250 50 0 empty empty empty 17 7 0 10 -262144
-1 -1;
#X obj 972 93 bng 40 250 50 0 empty empty empty 17 7 0 10 -262144 -1
-1;
#N canvas 105 213 1012 407 buttonSetter 0;
#X obj 17 102 t b b;
#X obj 17 142 f;
#X obj 17 164 + 1;
#X obj 209 145 f;
#X obj 209 102 t b b;
#X obj 209 177 - 1;
#X obj 27 260 t b f;
#X obj 216 255 t b f;
#X obj 17 23 inlet increaseButtonSet;
#X obj 209 22 inlet decreaseButtonSet;
#X obj 484 23 loadbang;
#X msg 484 113 2;
#X text 519 114 number of different button sets;
#X obj 484 142 s noOfButtSets;
#X obj 128 370 outlet currentButtonSet;
#X obj 128 306 f 1;
#X obj 27 213 moses;
#X obj 54 171 r noOfButtSets;
#X obj 54 191 + 1;
#X obj 54 239 bng 15 250 50 0 empty empty empty 17 7 0 10 -262144 -1
-1;
#X text 276 206 we always have at least on set of buttons;
#X obj 209 204 moses 1;
#X obj 128 275 loadbang;
#X obj 484 69 delay 400;
#X connect 0 0 1 0;
#X connect 0 1 15 0;
#X connect 1 0 2 0;
#X connect 2 0 16 0;
#X connect 3 0 5 0;
#X connect 4 0 3 0;
#X connect 4 1 15 0;
#X connect 5 0 21 0;
#X connect 6 0 15 0;
#X connect 6 1 15 1;
#X connect 7 0 15 0;
#X connect 7 1 15 1;
#X connect 8 0 0 0;
#X connect 9 0 4 0;
#X connect 10 0 23 0;
#X connect 11 0 13 0;
#X connect 15 0 3 1;
#X connect 15 0 1 1;
#X connect 15 0 14 0;
#X connect 16 0 6 0;
#X connect 16 1 19 0;
#X connect 17 0 18 0;
#X connect 18 0 16 1;
#X connect 21 1 15 1;
#X connect 21 1 7 0;
#X connect 22 0 15 0;
#X connect 23 0 11 0;
#X coords 0 407 1 406 120 10 0;
#X restore 972 159 pd buttonSetter;
#X floatatom 972 180 5 0 0 0 - - -;
#X obj 1029 92 bng 40 250 50 0 empty empty empty 17 7 0 10 -262144
-1 -1;
#X text 969 56 button \; set up;
#X text 1026 57 button \; set down;
#X obj 12 -130 t b b b b;
#X text 31 585 id 5;
#X text 28 488 id 6;
#X text 29 406 id 7;
#X text 30 326 id 8;
#X text 30 220 id 9;
#X obj 782 232 matrixprocessing 8 10;
#X text 26 1028 id 0_0;
#X text 27 955 id 0_1;
#X text 28 865 id 0_2;
#X text 29 750 id 0_3;
#X text 30 665 id 0_4;
#X text 162 1043 id 1_0;
#X text 162 942 id 1_1;
#X text 176 843 id 1_2;
#X obj 297 754 tgl 50 1 bt_send_3_3_1 bt_init_3_3 empty 17 7 0 10 -262144
-1 -1 1 1;
#X obj 300 1065 tgl 50 1 bt_send_3_0_1 bt_init_3_0 empty 17 7 0 10
-262144 -1 -1 0 1;
#X obj 297 965 tgl 50 1 bt_send_3_1_1 bt_init_3_1 empty 17 7 0 10 -262144
-1 -1 0 1;
#X obj 296 659 tgl 50 1 bt_send_3_4_1 bt_init_3_4 empty 17 7 0 10 -262144
-1 -1 0 1;
#X obj 299 867 tgl 50 1 bt_send_3_2_1 bt_init_3_2 empty 17 7 0 10 -262144
-1 -1 0 1;
#X obj 295 299 tgl 50 1 bt_send_3_8_1 bt_init_3_8 empty 17 7 0 10 -262144
-1 -1 1 1;
#X obj 298 575 tgl 50 1 bt_send_3_5_1 bt_init_3_5 empty 17 7 0 10 -262144
-1 -1 0 1;
#X obj 294 481 tgl 50 1 bt_send_3_6_1 bt_init_3_6 empty 17 7 0 10 -262144
-1 -1 0 1;
#X obj 296 200 tgl 50 1 bt_send_3_9_1 bt_init_3_9 empty 17 7 0 10 -262144
-1 -1 0 1;
#X obj 296 386 tgl 50 1 bt_send_3_7_1 bt_init_3_7 empty 17 7 0 10 -262144
-1 -1 1 1;
#X obj 387 754 tgl 50 1 bt_send_4_3_1 bt_init_4_3 empty 17 7 0 10 -262144
-1 -1 0 1;
#X obj 390 1065 tgl 50 1 bt_send_4_0_1 bt_init_4_0 empty 17 7 0 10
-262144 -1 -1 0 1;
#X obj 387 965 tgl 50 1 bt_send_4_1_1 bt_init_4_1 empty 17 7 0 10 -262144
-1 -1 0 1;
#X obj 386 659 tgl 50 1 bt_send_4_4_1 bt_init_4_4 empty 17 7 0 10 -262144
-1 -1 1 1;
#X obj 389 867 tgl 50 1 bt_send_4_2_1 bt_init_4_2 empty 17 7 0 10 -262144
-1 -1 0 1;
#X obj 382 300 tgl 50 1 bt_send_4_8_1 bt_init_4_8 empty 17 7 0 10 -262144
-1 -1 0 1;
#X obj 385 576 tgl 50 1 bt_send_4_5_1 bt_init_4_5 empty 17 7 0 10 -262144
-1 -1 0 1;
#X obj 381 482 tgl 50 1 bt_send_4_6_1 bt_init_4_6 empty 17 7 0 10 -262144
-1 -1 0 1;
#X obj 383 201 tgl 50 1 bt_send_4_9_1 bt_init_4_9 empty 17 7 0 10 -262144
-1 -1 0 1;
#X obj 383 387 tgl 50 1 bt_send_4_7_1 bt_init_4_7 empty 17 7 0 10 -262144
-1 -1 1 1;
#X obj 469 759 tgl 50 1 bt_send_5_3_1 bt_init_5_3 empty 17 7 0 10 -262144
-1 -1 0 1;
#X obj 472 1070 tgl 50 1 bt_send_5_0_1 bt_init_5_0 empty 17 7 0 10
-262144 -1 -1 0 1;
#X obj 469 970 tgl 50 1 bt_send_5_1_1 bt_init_5_1 empty 17 7 0 10 -262144
-1 -1 0 1;
#X obj 468 664 tgl 50 1 bt_send_5_4_1 bt_init_5_4 empty 17 7 0 10 -262144
-1 -1 0 1;
#X obj 471 872 tgl 50 1 bt_send_5_2_1 bt_init_5_2 empty 17 7 0 10 -262144
-1 -1 0 1;
#X obj 467 581 tgl 50 1 bt_send_5_5_1 bt_init_5_5 empty 17 7 0 10 -262144
-1 -1 0 1;
#X obj 469 302 tgl 50 1 bt_send_5_8_1 bt_init_5_8 empty 17 7 0 10 -262144
-1 -1 1 1;
#X obj 468 484 tgl 50 1 bt_send_5_6_1 bt_init_5_6 empty 17 7 0 10 -262144
-1 -1 0 1;
#X obj 470 203 tgl 50 1 bt_send_5_9_1 bt_init_5_9 empty 17 7 0 10 -262144
-1 -1 0 1;
#X obj 470 389 tgl 50 1 bt_send_5_7_1 bt_init_5_7 empty 17 7 0 10 -262144
-1 -1 1 1;
#X obj 547 760 tgl 50 1 bt_send_6_3_1 bt_init_6_3 empty 17 7 0 10 -262144
-1 -1 0 1;
#X obj 550 1071 tgl 50 1 bt_send_6_0_1 bt_init_6_0 empty 17 7 0 10
-262144 -1 -1 0 1;
#X obj 547 971 tgl 50 1 bt_send_6_1_1 bt_init_6_1 empty 17 7 0 10 -262144
-1 -1 0 1;
#X obj 546 665 tgl 50 1 bt_send_6_4_1 bt_init_6_4 empty 17 7 0 10 -262144
-1 -1 0 1;
#X obj 549 873 tgl 50 1 bt_send_6_2_1 bt_init_6_2 empty 17 7 0 10 -262144
-1 -1 0 1;
#X obj 545 582 tgl 50 1 bt_send_6_5_1 bt_init_6_5 empty 17 7 0 10 -262144
-1 -1 0 1;
#X obj 546 485 tgl 50 1 bt_send_6_6_1 bt_init_6_6 empty 17 7 0 10 -262144
-1 -1 0 1;
#X obj 547 300 tgl 50 1 bt_send_6_8_1 bt_init_6_8 empty 17 7 0 10 -262144
-1 -1 0 1;
#X obj 548 201 tgl 50 1 bt_send_6_9_1 bt_init_6_9 empty 17 7 0 10 -262144
-1 -1 1 1;
#X obj 548 387 tgl 50 1 bt_send_6_7_1 bt_init_6_7 empty 17 7 0 10 -262144
-1 -1 1 1;
#X obj 621 760 tgl 50 1 bt_send_7_3_1 bt_init_7_3 empty 17 7 0 10 -262144
-1 -1 0 1;
#X obj 624 1071 tgl 50 1 bt_send_7_0_1 bt_init_7_0 empty 17 7 0 10
-262144 -1 -1 0 1;
#X obj 621 971 tgl 50 1 bt_send_7_1_1 bt_init_7_1 empty 17 7 0 10 -262144
-1 -1 0 1;
#X obj 620 665 tgl 50 1 bt_send_7_4_1 bt_init_7_4 empty 17 7 0 10 -262144
-1 -1 0 1;
#X obj 623 873 tgl 50 1 bt_send_7_2_1 bt_init_7_2 empty 17 7 0 10 -262144
-1 -1 0 1;
#X obj 619 582 tgl 50 1 bt_send_7_5_1 bt_init_7_5 empty 17 7 0 10 -262144
-1 -1 0 1;
#X obj 624 484 tgl 50 1 bt_send_7_6_1 bt_init_7_6 empty 17 7 0 10 -262144
-1 -1 0 1;
#X obj 625 299 tgl 50 1 bt_send_7_8_1 bt_init_7_8 empty 17 7 0 10 -262144
-1 -1 0 1;
#X obj 626 200 tgl 50 1 bt_send_7_9_1 bt_init_7_9 empty 17 7 0 10 -262144
-1 -1 0 1;
#X obj 626 386 tgl 50 1 bt_send_7_7_1 bt_init_7_7 empty 17 7 0 10 -262144
-1 -1 1 1;
#X obj 790 465 r bt_send_0_1_1;
#X obj 954 215 buttoninit 8 10;
#X obj 1003 272 updatestepstatus 8 10;
#X connect 0 0 65 0;
#X connect 0 0 65 1;
#X connect 0 0 68 0;
#X connect 0 0 68 1;
#X connect 5 0 6 0;
#X connect 6 0 7 0;
#X connect 7 0 0 0;
#X connect 7 1 0 1;
#X connect 11 0 77 0;
#X connect 13 0 77 0;
#X connect 14 0 5 0;
#X connect 26 0 14 0;
#X connect 42 0 44 0;
#X connect 43 0 47 0;
#X connect 44 0 53 0;
#X connect 48 0 44 1;
#X connect 49 0 44 2;
#X connect 50 0 51 0;
#X connect 50 0 61 1;
#X connect 53 0 83 0;
#X connect 53 1 83 0;
#X connect 53 2 83 0;
#X connect 53 3 83 0;
#X connect 53 4 83 0;
#X connect 53 5 83 0;
#X connect 53 6 83 0;
#X connect 53 7 83 0;
#X connect 65 0 1 0;
#X connect 65 1 1 1;
#X connect 66 0 67 0;
#X connect 67 0 65 2;
#X connect 68 0 1 0;
#X connect 68 1 1 1;
#X connect 69 0 70 0;
#X connect 70 0 68 2;
#X connect 71 0 72 0;
#X connect 72 0 73 0;
#X connect 73 0 143 0;
#X connect 73 0 144 0;
#X connect 74 0 72 1;
#X connect 77 0 12 0;
#X connect 77 1 45 0;
#X connect 77 2 4 0;
#X connect 77 3 43 0;
