#N canvas 27 28 956 668 12;
#X obj 18 30 inlet stepSequencerStepNumberAndBang;
#X floatatom 18 92 5 0 0 0 - - -;
#X text 417 164 put out pitch index for current step if button is pressed.
--> get status of one column in abhaengigkeit of currentButtonSet;
#X obj 80 57 bng 15 250 50 0 empty empty empty 17 7 0 10 -262144 -1
-1;
#X obj 18 577 outlet MP_index for tabread;
#X obj 36 267 r noOfButtSets;
#X obj 18 294 f 0;
#N canvas 249 56 720 509 MP_getButtonStatusForOneColumn 0;
#X obj 69 612 outlet MPGBSFOC_indexToTabread;
#X text 427 252 set array;
#X msg 248 324 symbol ButtonSetArray_\$1;
#X obj 69 360 array get ButtonSetArray_1;
#X text 99 240 onset um nur eine spalte auszulesen = step number *
anzahl rows;
#X obj 102 274 f \$2;
#X obj 69 304 *;
#X obj 136 173 f \$2;
#X text 175 177 number of values to read out;
#X obj 69 138 t f b b, f 10;
#X text 199 210 f \$2 =anzahl rows;
#N canvas 569 156 636 460 MP_serialiseList 0;
#X obj 43 280 until;
#X obj 43 455 list store;
#X obj 44 59 t b b l;
#X obj 43 347 f;
#X obj 81 348 + 1;
#X msg 67 101 0, f 2;
#X msg 43 426 get \$1 1;
#X text 129 425 get sublist at index \$1 with length of 1 = one element
;
#X obj 43 215 f 0;
#X obj 44 25 inlet MP_arrayContentAsList;
#X obj 318 26 inlet MP_sizeOfList;
#X obj 318 50 s MP_sizeOfList;
#X obj 61 184 r MP_sizeOfList;
#X obj 67 125 s MP_resetListCounter;
#X obj 61 318 r MP_resetListCounter;
#X obj 43 380 t f f;
#X obj 43 501 outlet MP_listSerialised;
#X obj 333 503 outlet MP_currentListIndexOfValue;
#X connect 0 0 3 0;
#X connect 1 0 16 0;
#X connect 2 0 8 0;
#X connect 2 1 5 0;
#X connect 2 2 1 1;
#X connect 3 0 4 0;
#X connect 3 0 15 0;
#X connect 4 0 3 1;
#X connect 5 0 13 0;
#X connect 6 0 1 0;
#X connect 8 0 0 0;
#X connect 9 0 2 0;
#X connect 10 0 11 0;
#X connect 12 0 8 1;
#X connect 14 0 3 1;
#X connect 15 0 6 0;
#X connect 15 1 17 0;
#X restore 69 451 pd MP_serialiseList;
#X obj 136 197 t f f;
#X obj 69 480 route 1;
#X obj 69 538 f 0;
#X text 154 524 save current zeilennummer of current button status.
If status == 1 \, dann ist zeilennummer = index für tabread;
#X obj 69 93 f 0;
#X obj 32 24 inlet MPGBSFOC_start;
#X obj 199 23 inlet MPGBSFOC_currentSequencerStep;
#X obj 462 22 inlet MPGBSFOC_currentButtonSet;
#X connect 2 0 3 2;
#X connect 3 0 11 0;
#X connect 5 0 6 1;
#X connect 6 0 3 0;
#X connect 7 0 12 0;
#X connect 9 0 6 0;
#X connect 9 1 5 0;
#X connect 9 2 7 0;
#X connect 11 0 13 0;
#X connect 11 1 14 1;
#X connect 12 0 3 1;
#X connect 12 1 11 1;
#X connect 13 0 14 0;
#X connect 14 0 0 0;
#X connect 16 0 9 0;
#X connect 17 0 16 0;
#X connect 18 0 16 1;
#X connect 19 0 2 0;
#X restore 18 527 pd MP_getButtonStatusForOneColumn;
#X obj 18 339 until;
#X obj 41 217 s MP_currentStepSequencerNumber;
#X obj 132 478 r MP_currentStepSequencerNumber;
#X obj 18 432 f 1;
#X obj 51 431 + 1;
#X text 93 429 ButtonSet to read status from;
#X obj 18 472 t b f;
#X obj 18 124 t b f b;
#X obj 64 183 s MP_resetButtonSetCounter;
#X obj 36 385 r MP_resetButtonSetCounter;
#X msg 64 152 1;
#X connect 0 0 1 0;
#X connect 1 0 15 0;
#X connect 3 0 1 0;
#X connect 5 0 6 1;
#X connect 6 0 8 0;
#X connect 7 0 4 0;
#X connect 8 0 11 0;
#X connect 10 0 7 1;
#X connect 11 0 12 0;
#X connect 11 0 14 0;
#X connect 12 0 11 1;
#X connect 14 0 7 0;
#X connect 14 1 7 2;
#X connect 15 0 6 0;
#X connect 15 1 9 0;
#X connect 15 2 18 0;
#X connect 17 0 11 1;
#X connect 18 0 16 0;
