#N canvas 0 23 957 750 10;
#N canvas 0 23 1280 751 control 1;
#N canvas 506 23 774 514 Bpm 0;
#X floatatom 264 323 5 0 0 0 - - -;
#X obj 228 356 metro;
#X obj 228 377 bng 15 250 50 0 empty empty empty 17 7 0 10 -262144
-1 -1;
#X obj 228 248 t b b b;
#X obj 251 300 /;
#X msg 251 278 60000;
#X msg 40 158 0;
#X obj 298 298 * 4;
#X obj 40 183 t f f;
#X obj 40 214 s resetCounter;
#X obj 40 20 inlet startStopMetro;
#X obj 40 83 tgl 15 0 empty empty empty 17 7 0 10 -262144 -1 -1 0 1
;
#X obj 40 131 moses 1;
#X obj 298 274 f 0;
#X floatatom 328 205 5 0 0 0 - - -;
#X obj 228 24 inlet increaseBpm;
#X obj 365 24 inlet decreaseBpm;
#N canvas 393 133 793 502 My_RSP_BPM_SETTER 0;
#X obj 17 219 t b b;
#X obj 17 259 f;
#X obj 17 281 + 1;
#X floatatom 90 442 5 0 0 0 - - -;
#X obj 209 271 f;
#X obj 209 219 t b b;
#X obj 209 291 - 1;
#X obj 17 304 t b f;
#X obj 209 310 t b f;
#X text 429 159 26th November 2018 \; This patch has two inlets \;
When the first inlet receives \; a bang \, it increases the current
bpm \; by 1 The second inlet decreases the \; current bpm analogically.
The current \; bpm is shown on the blue BPM-Canvas on \; the parent
patch. The default bpm is 122 bpm.;
#X obj 17 140 inlet increaseBpmBang;
#X obj 209 140 inlet decreaseBpmBang;
#X obj 90 343 f 0;
#X obj 108 254 r bpmInit;
#X msg 90 498 \; currentBpm label \$1;
#X obj 90 367 t f f;
#X obj 122 414 outlet currentBPM;
#X obj 90 191 loadbang;
#X obj 90 222 delay 200;
#X obj 90 467 makefilename %d_BPM;
#X connect 0 0 1 0;
#X connect 0 1 12 0;
#X connect 1 0 2 0;
#X connect 2 0 7 0;
#X connect 3 0 19 0;
#X connect 4 0 6 0;
#X connect 5 0 4 0;
#X connect 5 1 12 0;
#X connect 6 0 8 0;
#X connect 6 0 12 1;
#X connect 7 0 12 0;
#X connect 7 1 12 1;
#X connect 8 0 12 0;
#X connect 8 1 12 1;
#X connect 10 0 0 0;
#X connect 11 0 5 0;
#X connect 12 0 4 1;
#X connect 12 0 1 1;
#X connect 12 0 15 0;
#X connect 13 0 12 1;
#X connect 15 0 3 0;
#X connect 15 1 16 0;
#X connect 17 0 18 0;
#X connect 18 0 12 0;
#X connect 19 0 14 0;
#X coords 0 502 1 501 100 84 0;
#X restore 228 80 pd My_RSP_BPM_SETTER;
#X obj 40 101 t f f;
#X obj 228 153 f 0;
#X obj 228 174 moses 1;
#X obj 228 114 t b f f;
#X obj 274 138 s setBpm;
#X obj 262 425 + 1;
#X obj 639 629 s resetCounter;
#X obj 246 403 r resetCounter;
#X floatatom 353 527 5 0 0 0 - - -;
#X obj 228 424 f 0;
#X obj 353 548 moses 7;
#X msg 639 607 0;
#X obj 549 652 outlet SequencerTimesFour;
#X obj 228 456 t f f;
#X obj 228 485 % 4;
#X obj 228 562 moses 1;
#X obj 595 609 t f f;
#X obj 316 185 r bpmInit;
#X obj 316 241 t f f;
#X obj 348 264 s setBpm;
#X obj 455 558 bng 15 250 50 0 empty empty empty 17 7 0 10 -262144
-1 -1;
#X obj 117 749 s BPM_metroBangs;
#X obj 117 722 bng 15 250 50 0 empty empty empty 17 7 0 10 -262144
-1 -1;
#X obj 289 549 moses 1;
#X obj 228 537 == 0;
#X obj 289 527 == 1;
#X msg 233 672 \; currentBpm color 8 \; currentButtonSet_Rcv color
8 \; currentTranspoFactor color 8 \; currentInstrument color 8 \;;
#X msg 418 713 \; currentBpm color 7 \; currentButtonSet_Rcv color
7 \; currentTranspoFactor color 7 \; currentInstrument color 7;
#X connect 1 0 2 0;
#X connect 2 0 27 0;
#X connect 3 0 1 0;
#X connect 3 1 5 0;
#X connect 3 2 13 0;
#X connect 4 0 0 0;
#X connect 4 0 1 1;
#X connect 5 0 4 0;
#X connect 6 0 8 0;
#X connect 7 0 4 1;
#X connect 8 0 9 0;
#X connect 8 1 1 0;
#X connect 10 0 11 0;
#X connect 11 0 18 0;
#X connect 12 0 6 0;
#X connect 12 1 3 0;
#X connect 13 0 7 0;
#X connect 15 0 17 0;
#X connect 16 0 17 1;
#X connect 17 0 21 0;
#X connect 18 0 12 0;
#X connect 18 1 19 1;
#X connect 19 0 20 0;
#X connect 20 1 3 0;
#X connect 21 0 19 0;
#X connect 21 1 13 1;
#X connect 21 2 22 0;
#X connect 23 0 27 1;
#X connect 25 0 27 1;
#X connect 26 0 28 0;
#X connect 27 0 23 0;
#X connect 27 0 31 0;
#X connect 28 0 30 0;
#X connect 28 1 34 0;
#X connect 29 0 24 0;
#X connect 31 0 32 0;
#X connect 31 1 26 0;
#X connect 32 0 42 0;
#X connect 32 0 43 0;
#X connect 33 1 44 0;
#X connect 33 1 40 0;
#X connect 34 0 30 0;
#X connect 34 1 29 0;
#X connect 35 0 14 0;
#X connect 35 0 36 0;
#X connect 36 0 13 1;
#X connect 36 1 37 0;
#X connect 40 0 39 0;
#X connect 41 1 45 0;
#X connect 42 0 33 0;
#X connect 43 0 41 0;
#X coords 0 514 1 513 120 10 0;
#X restore 99 -136 pd Bpm;
#N canvas 134 29 1061 516 Sequencer 0;
#X obj 56 68 inlet metroCount;
#X obj 46 565 outlet Step0;
#X obj 139 565 outlet Step1;
#X obj 231 565 outlet Step2;
#X obj 326 565 outlet Step3;
#X obj 419 565 outlet Step4;
#X obj 511 565 outlet Step5;
#X obj 605 565 outlet Step6;
#X obj 697 565 outlet Step7;
#X obj 168 144 bng 15 250 50 0 empty empty empty 17 7 0 10 -262144
-1 -1;
#X obj 238 143 bng 15 250 50 0 empty empty empty 17 7 0 10 -262144
-1 -1;
#X obj 308 142 bng 15 250 50 0 empty empty empty 17 7 0 10 -262144
-1 -1;
#X obj 388 142 bng 15 250 50 0 empty empty empty 17 7 0 10 -262144
-1 -1;
#X obj 468 142 bng 15 250 50 0 empty empty empty 17 7 0 10 -262144
-1 -1;
#X msg 88 370 0;
#X obj 56 167 t b b;
#X msg 56 370 7;
#X msg 774 233 \; StepSeqColor\$1 color 14;
#X msg 766 469 \; StepSeqColor\$1 color 6;
#X obj 105 167 t b b;
#X msg 137 346 1;
#X msg 105 346 0;
#X obj 56 143 bng 15 250 50 0 empty empty empty 17 7 0 10 -262144 -1
-1;
#X obj 105 143 bng 15 250 50 0 empty empty empty 17 7 0 10 -262144
-1 -1;
#X obj 168 167 t b b;
#X msg 200 324 2;
#X msg 168 324 1;
#X obj 238 167 t b b;
#X msg 270 304 3;
#X msg 238 304 2;
#X obj 308 167 t b b;
#X msg 340 279 4;
#X msg 308 279 3;
#X obj 388 166 t b b;
#X msg 420 257 5;
#X msg 388 257 4;
#X obj 468 167 t b b;
#X msg 500 237 6;
#X msg 468 237 5;
#X obj 548 167 t b b;
#X msg 580 213 7;
#X msg 548 213 6;
#X obj 548 142 bng 15 250 50 0 empty empty empty 17 7 0 10 -262144
-1 -1;
#X obj 56 97 route 0 1 2 3 4 5 6 7;
#X text 956 246 On-Color;
#X text 927 475 Off-Color;
#X obj 88 501 t f f;
#X obj 136 501 t f f;
#X obj 200 499 t f f;
#X obj 270 497 t f f;
#X obj 340 494 t f f;
#X obj 420 493 t f f;
#X obj 500 492 t f f;
#X obj 580 486 t f f;
#X connect 0 0 43 0;
#X connect 9 0 24 0;
#X connect 10 0 27 0;
#X connect 11 0 30 0;
#X connect 12 0 33 0;
#X connect 13 0 36 0;
#X connect 14 0 46 0;
#X connect 15 0 16 0;
#X connect 15 1 14 0;
#X connect 16 0 18 0;
#X connect 19 0 21 0;
#X connect 19 1 20 0;
#X connect 20 0 47 0;
#X connect 21 0 18 0;
#X connect 22 0 15 0;
#X connect 23 0 19 0;
#X connect 24 0 26 0;
#X connect 24 1 25 0;
#X connect 25 0 48 0;
#X connect 26 0 18 0;
#X connect 27 0 29 0;
#X connect 27 1 28 0;
#X connect 28 0 49 0;
#X connect 29 0 18 0;
#X connect 30 0 32 0;
#X connect 30 1 31 0;
#X connect 31 0 50 0;
#X connect 32 0 18 0;
#X connect 33 0 35 0;
#X connect 33 1 34 0;
#X connect 34 0 51 0;
#X connect 35 0 18 0;
#X connect 36 0 38 0;
#X connect 36 1 37 0;
#X connect 37 0 52 0;
#X connect 38 0 18 0;
#X connect 39 0 41 0;
#X connect 39 1 40 0;
#X connect 40 0 53 0;
#X connect 41 0 18 0;
#X connect 42 0 39 0;
#X connect 43 0 22 0;
#X connect 43 1 23 0;
#X connect 43 2 9 0;
#X connect 43 3 10 0;
#X connect 43 4 11 0;
#X connect 43 5 12 0;
#X connect 43 6 13 0;
#X connect 43 7 42 0;
#X connect 46 0 1 0;
#X connect 46 1 17 0;
#X connect 47 0 2 0;
#X connect 47 1 17 0;
#X connect 48 0 3 0;
#X connect 48 1 17 0;
#X connect 49 0 4 0;
#X connect 49 1 17 0;
#X connect 50 0 5 0;
#X connect 50 1 17 0;
#X connect 51 0 6 0;
#X connect 51 1 17 0;
#X connect 52 0 7 0;
#X connect 52 1 17 0;
#X connect 53 0 8 0;
#X connect 53 1 17 0;
#X restore 99 -113 pd Sequencer;
#X f 30;
#X floatatom 416 21 5 0 0 0 - - -;
#X obj 99 -61 matrixprocessing 8 10;
#X obj 463 154 buttoninit 8 10;
#X obj 447 181 updatestepstatus 8 10;
#X text 562 146 change send symbol for each button \; in abhaengingkeit
of the selected button set;
#N canvas 158 120 966 499 transposemanager 0;
#X obj 58 85 inlet TM_midiNoteFromScaleArray;
#X obj 320 268 * 12;
#X obj 58 308 +;
#X text 271 396 actual midi note = midiNoteFromArray + (12 * transposeFactor)
;
#X text 360 268 needs transposeFactorAsInput;
#X obj 320 85 inlet TM_ButtonSetToGetTransposeFactorFrom;
#X obj 320 221 array get TransposeStatusArray;
#X text 419 191 number of values \; to get;
#X msg 408 174 1;
#X obj 320 144 - 1;
#X floatatom 320 242 5 0 0 0 - - -;
#X text 325 190 index to get \; value from;
#X text 530 221 get transpose factor for given \; button set;
#X obj 320 121 t f b f, f 30;
#X obj 58 407 outlet TM_actualMidiNoteToPlay;
#X obj 574 404 outlet TM_correspondingButtonSetForCurrentMidiNote;
#X connect 0 0 2 0;
#X connect 1 0 2 1;
#X connect 2 0 14 0;
#X connect 5 0 13 0;
#X connect 6 0 10 0;
#X connect 8 0 6 1;
#X connect 9 0 6 0;
#X connect 10 0 1 0;
#X connect 13 0 9 0;
#X connect 13 1 8 0;
#X connect 13 2 15 0;
#X restore 99 -6 pd transposemanager;
#N canvas 372 182 908 532 transposeStatus 0;
#X obj 53 70 inlet TS_currentButtonSet;
#X obj 261 70 inlet TS_transposeFactor;
#X obj 300 199 f 0;
#X obj 473 82 array define -yrange -4 4 TransposeStatusArray 100;
#X text 600 103 (-)4=max transpose factors \; 100 initial size of array
;
#X floatatom 639 191 5 0 0 0 - - -;
#X obj 639 157 r noOfButtSets;
#X obj 639 211 array size TransposeStatusArray;
#X text 712 176 size of array is reset \; on loadbang;
#X obj 280 339 array set TransposeStatusArray;
#X text 290 320 value;
#X msg 599 188 2;
#X text 332 209 remember latest button set \; buttonSet - 1 = index
to write to;
#X obj 300 221 - 1;
#X text 267 114 a change in transpose factor \; changes status in array
;
#X floatatom 73 91 5 0 0 0 - - -;
#X obj 53 320 array get TransposeStatusArray;
#X msg 141 193 1;
#X obj 53 163 - 1;
#X obj 53 487 outlet TS_resetUpAndDownCounter;
#X obj 53 142 t f b f;
#X text 464 309 update array with transpose status \; also show current
transpose status visually;
#X obj 53 369 t f f;
#X floatatom 53 341 5 0 0 0 - - -;
#X obj 116 353 print;
#X obj 261 164 t f f b;
#X text 352 319 index;
#X text 155 285 amount of values \; to get;
#X text 56 282 start index \; to get values \; from;
#X obj 261 428 makefilename transpose_%d;
#X msg 261 451 \; currentTranspoFactor label \$1;
#X connect 0 0 15 0;
#X connect 0 0 20 0;
#X connect 1 0 25 0;
#X connect 2 0 13 0;
#X connect 5 0 7 0;
#X connect 6 0 5 0;
#X connect 11 0 7 0;
#X connect 13 0 9 1;
#X connect 16 0 23 0;
#X connect 17 0 16 1;
#X connect 18 0 16 0;
#X connect 20 0 18 0;
#X connect 20 1 17 0;
#X connect 20 2 2 1;
#X connect 22 0 19 0;
#X connect 22 1 29 0;
#X connect 23 0 22 0;
#X connect 25 0 29 0;
#X connect 25 1 9 0;
#X connect 25 2 2 0;
#X connect 29 0 30 0;
#X restore 479 72 pd transposeStatus;
#X obj 479 113 s transposeUpdate;
#X obj 739 -144 r transposeUpdate;
#X floatatom 99 -30 5 0 0 0 - - -;
#X floatatom 486 93 5 0 0 0 - - -;
#X text 530 94 curentButtonSet's transpose factor;
#X floatatom 687 -57 5 0 0 0 - - -;
#X obj 99 -211 r startStopSequencer;
#X obj 235 -211 r tempoUp;
#X obj 303 -211 r tempoDown;
#X obj 416 -208 r buttSetUp;
#X obj 416 -188 bng 15 250 50 0 empty empty empty 17 7 0 10 -262144
-1 -1;
#X obj 503 -188 bng 15 250 50 0 empty empty empty 17 7 0 10 -262144
-1 -1;
#X obj 503 -209 r buttSetDown;
#X obj 687 -208 r transpoUp;
#X obj 687 -187 bng 15 250 50 0 empty empty empty 17 7 0 10 -262144
-1 -1;
#X obj 769 -189 bng 15 250 50 0 empty empty empty 17 7 0 10 -262144
-1 -1;
#X obj 769 -208 r transpoDown;
#X text 578 176 update the matrix visual status' \; in abhaengigkeit
of the selected \; button set.;
#X obj 1 400 cnv 40 898 1050 empty empty empty 20 12 0 14 -203904 -66577
0;
#X obj 86 940 tgl 50 1 bt_send_0_3_1 bt_init_0_3 empty 17 7 0 10 -262144
-1 -1 0 1;
#X obj 86 1112 tgl 50 1 bt_send_0_0_1 bt_init_0_0 empty 0 7 0 10 -262144
-1 -1 0 1;
#X obj 86 1055 tgl 50 1 bt_send_0_1_1 bt_init_0_1 empty 17 7 0 10 -262144
-1 -1 0 1;
#X obj 86 881 tgl 50 1 bt_send_0_4_1 bt_init_0_4 empty 17 7 0 10 -262144
-1 -1 0 1;
#X obj 86 998 tgl 50 1 bt_send_0_2_1 bt_init_0_2 empty 17 7 0 10 -262144
-1 -1 0 1;
#X obj 86 650 tgl 50 1 bt_send_0_8_1 bt_init_0_8 empty 17 7 0 10 -262144
-1 -1 0 1;
#X obj 86 824 tgl 50 1 bt_send_0_5_1 bt_init_0_5 empty 17 7 0 10 -262144
-1 -1 0 1;
#X obj 86 766 tgl 50 1 bt_send_0_6_1 bt_init_0_6 empty 17 7 0 10 -262144
-1 -1 0 1;
#X obj 86 594 tgl 50 1 bt_send_0_9_1 bt_init_0_9 empty 17 7 0 10 -262144
-1 -1 0 1;
#X obj 86 707 tgl 50 1 bt_send_0_7_1 bt_init_0_7 empty 17 7 0 10 -262144
-1 -1 0 1;
#X obj 152 941 tgl 50 1 bt_send_1_3_1 bt_init_1_3 empty 17 7 0 10 -262144
-1 -1 0 1;
#X obj 152 1112 tgl 50 1 bt_send_1_0_1 bt_init_1_0 empty 17 7 0 10
-262144 -1 -1 0 1;
#X obj 152 1055 tgl 50 1 bt_send_1_1_1 bt_init_1_1 empty 17 7 0 10
-262144 -1 -1 0 1;
#X obj 152 884 tgl 50 1 bt_send_1_4_1 bt_init_1_4 empty 17 7 0 10 -262144
-1 -1 0 1;
#X obj 152 999 tgl 50 1 bt_send_1_2_1 bt_init_1_2 empty 17 7 0 10 -262144
-1 -1 0 1;
#X obj 152 650 tgl 50 1 bt_send_1_8_1 bt_init_1_8 empty 17 7 0 10 -262144
-1 -1 0 1;
#X obj 152 826 tgl 50 1 bt_send_1_5_1 bt_init_1_5 empty 17 7 0 10 -262144
-1 -1 0 1;
#X obj 152 768 tgl 50 1 bt_send_1_6_1 bt_init_1_6 empty 17 7 0 10 -262144
-1 -1 0 1;
#X obj 152 594 tgl 50 1 bt_send_1_9_1 bt_init_1_9 empty 17 7 0 10 -262144
-1 -1 0 1;
#X obj 152 708 tgl 50 1 bt_send_1_7_1 bt_init_1_7 empty 17 7 0 10 -262144
-1 -1 0 1;
#X obj 219 940 tgl 50 1 bt_send_2_3_1 bt_init_2_3 empty 17 7 0 10 -262144
-1 -1 0 1;
#X obj 219 1112 tgl 50 1 bt_send_2_0_1 bt_init_2_0 empty 17 7 0 10
-262144 -1 -1 0 1;
#X obj 219 1055 tgl 50 1 bt_send_2_1_1 bt_init_2_1 empty 17 7 0 10
-262144 -1 -1 0 1;
#X obj 219 884 tgl 50 1 bt_send_2_4_1 bt_init_2_4 empty 17 7 0 10 -262144
-1 -1 0 1;
#X obj 220 999 tgl 50 1 bt_send_2_2_1 bt_init_2_2 empty 17 7 0 10 -262144
-1 -1 0 1;
#X obj 219 650 tgl 50 1 bt_send_2_8_1 bt_init_2_8 empty 17 7 0 10 -262144
-1 -1 0 1;
#X obj 219 826 tgl 50 1 bt_send_2_5_1 bt_init_2_5 empty 17 7 0 10 -262144
-1 -1 0 1;
#X obj 219 768 tgl 50 1 bt_send_2_6_1 bt_init_2_6 empty 17 7 0 10 -262144
-1 -1 0 1;
#X obj 219 594 tgl 50 1 bt_send_2_9_1 bt_init_2_9 empty 17 7 0 10 -262144
-1 -1 0 1;
#X obj 219 709 tgl 50 1 bt_send_2_7_1 bt_init_2_7 empty 17 7 0 10 -262144
-1 -1 0 1;
#X obj 286 940 tgl 50 1 bt_send_3_3_1 bt_init_3_3 empty 17 7 0 10 -262144
-1 -1 0 1;
#X obj 286 1112 tgl 50 1 bt_send_3_0_1 bt_init_3_0 empty 17 7 0 10
-262144 -1 -1 0 1;
#X obj 286 1055 tgl 50 1 bt_send_3_1_1 bt_init_3_1 empty 17 7 0 10
-262144 -1 -1 0 1;
#X obj 286 884 tgl 50 1 bt_send_3_4_1 bt_init_3_4 empty 17 7 0 10 -262144
-1 -1 0 1;
#X obj 286 999 tgl 50 1 bt_send_3_2_1 bt_init_3_2 empty 17 7 0 10 -262144
-1 -1 0 1;
#X obj 286 650 tgl 50 1 bt_send_3_8_1 bt_init_3_8 empty 17 7 0 10 -262144
-1 -1 0 1;
#X obj 286 826 tgl 50 1 bt_send_3_5_1 bt_init_3_5 empty 17 7 0 10 -262144
-1 -1 0 1;
#X obj 286 769 tgl 50 1 bt_send_3_6_1 bt_init_3_6 empty 17 7 0 10 -262144
-1 -1 0 1;
#X obj 286 594 tgl 50 1 bt_send_3_9_1 bt_init_3_9 empty 17 7 0 10 -262144
-1 -1 0 1;
#X obj 286 709 tgl 50 1 bt_send_3_7_1 bt_init_3_7 empty 17 7 0 10 -262144
-1 -1 0 1;
#X obj 356 940 tgl 50 1 bt_send_4_3_1 bt_init_4_3 empty 17 7 0 10 -262144
-1 -1 0 1;
#X obj 356 1112 tgl 50 1 bt_send_4_0_1 bt_init_4_0 empty 17 7 0 10
-262144 -1 -1 0 1;
#X obj 356 1055 tgl 50 1 bt_send_4_1_1 bt_init_4_1 empty 17 7 0 10
-262144 -1 -1 0 1;
#X obj 356 884 tgl 50 1 bt_send_4_4_1 bt_init_4_4 empty 17 7 0 10 -262144
-1 -1 0 1;
#X obj 356 999 tgl 50 1 bt_send_4_2_1 bt_init_4_2 empty 17 7 0 10 -262144
-1 -1 0 1;
#X obj 355 651 tgl 50 1 bt_send_4_8_1 bt_init_4_8 empty 17 7 0 10 -262144
-1 -1 0 1;
#X obj 355 827 tgl 50 1 bt_send_4_5_1 bt_init_4_5 empty 17 7 0 10 -262144
-1 -1 0 1;
#X obj 355 770 tgl 50 1 bt_send_4_6_1 bt_init_4_6 empty 17 7 0 10 -262144
-1 -1 0 1;
#X obj 355 595 tgl 50 1 bt_send_4_9_1 bt_init_4_9 empty 17 7 0 10 -262144
-1 -1 0 1;
#X obj 355 710 tgl 50 1 bt_send_4_7_1 bt_init_4_7 empty 17 7 0 10 -262144
-1 -1 0 1;
#X obj 426 942 tgl 50 1 bt_send_5_3_1 bt_init_5_3 empty 17 7 0 10 -262144
-1 -1 0 1;
#X obj 426 1112 tgl 50 1 bt_send_5_0_1 bt_init_5_0 empty 17 7 0 10
-262144 -1 -1 0 1;
#X obj 426 1055 tgl 50 1 bt_send_5_1_1 bt_init_5_1 empty 17 7 0 10
-262144 -1 -1 0 1;
#X obj 426 886 tgl 50 1 bt_send_5_4_1 bt_init_5_4 empty 17 7 0 10 -262144
-1 -1 0 1;
#X obj 426 999 tgl 50 1 bt_send_5_2_1 bt_init_5_2 empty 17 7 0 10 -262144
-1 -1 0 1;
#X obj 425 829 tgl 50 1 bt_send_5_5_1 bt_init_5_5 empty 17 7 0 10 -262144
-1 -1 0 1;
#X obj 424 652 tgl 50 1 bt_send_5_8_1 bt_init_5_8 empty 17 7 0 10 -262144
-1 -1 0 1;
#X obj 425 771 tgl 50 1 bt_send_5_6_1 bt_init_5_6 empty 17 7 0 10 -262144
-1 -1 0 1;
#X obj 423 595 tgl 50 1 bt_send_5_9_1 bt_init_5_9 empty 17 7 0 10 -262144
-1 -1 0 1;
#X obj 424 711 tgl 50 1 bt_send_5_7_1 bt_init_5_7 empty 17 7 0 10 -262144
-1 -1 0 1;
#X obj 493 943 tgl 50 1 bt_send_6_3_1 bt_init_6_3 empty 17 7 0 10 -262144
-1 -1 0 1;
#X obj 493 1112 tgl 50 1 bt_send_6_0_1 bt_init_6_0 empty 17 7 0 10
-262144 -1 -1 0 1;
#X obj 493 1056 tgl 50 1 bt_send_6_1_1 bt_init_6_1 empty 17 7 0 10
-262144 -1 -1 0 1;
#X obj 493 887 tgl 50 1 bt_send_6_4_1 bt_init_6_4 empty 17 7 0 10 -262144
-1 -1 0 1;
#X obj 493 1000 tgl 50 1 bt_send_6_2_1 bt_init_6_2 empty 17 7 0 10
-262144 -1 -1 0 1;
#X obj 493 830 tgl 50 1 bt_send_6_5_1 bt_init_6_5 empty 17 7 0 10 -262144
-1 -1 0 1;
#X obj 492 772 tgl 50 1 bt_send_6_6_1 bt_init_6_6 empty 17 7 0 10 -262144
-1 -1 0 1;
#X obj 491 653 tgl 50 1 bt_send_6_8_1 bt_init_6_8 empty 17 7 0 10 -262144
-1 -1 0 1;
#X obj 491 595 tgl 50 1 bt_send_6_9_1 bt_init_6_9 empty 17 7 0 10 -262144
-1 -1 0 1;
#X obj 491 712 tgl 50 1 bt_send_6_7_1 bt_init_6_7 empty 17 7 0 10 -262144
-1 -1 0 1;
#X obj 557 943 tgl 50 1 bt_send_7_3_1 bt_init_7_3 empty 17 7 0 10 -262144
-1 -1 0 1;
#X obj 557 1112 tgl 50 1 bt_send_7_0_1 bt_init_7_0 empty 17 7 0 10
-262144 -1 -1 0 1;
#X obj 557 1056 tgl 50 1 bt_send_7_1_1 bt_init_7_1 empty 17 7 0 10
-262144 -1 -1 0 1;
#X obj 557 887 tgl 50 1 bt_send_7_4_1 bt_init_7_4 empty 17 7 0 10 -262144
-1 -1 0 1;
#X obj 557 1000 tgl 50 1 bt_send_7_2_1 bt_init_7_2 empty 17 7 0 10
-262144 -1 -1 0 1;
#X obj 557 830 tgl 50 1 bt_send_7_5_1 bt_init_7_5 empty 17 7 0 10 -262144
-1 -1 0 1;
#X obj 556 771 tgl 50 1 bt_send_7_6_1 bt_init_7_6 empty 17 7 0 10 -262144
-1 -1 0 1;
#X obj 556 652 tgl 50 1 bt_send_7_8_1 bt_init_7_8 empty 17 7 0 10 -262144
-1 -1 0 1;
#X obj 556 594 tgl 50 1 bt_send_7_9_1 bt_init_7_9 empty 17 7 0 10 -262144
-1 -1 0 1;
#X obj 556 711 tgl 50 1 bt_send_7_7_1 bt_init_7_7 empty 17 7 0 10 -262144
-1 -1 0 1;
#X obj 11 429 bng 62 250 50 0 startStopSequencer empty Start/Stop 1
-15 0 10 -262144 -1 -1;
#X obj 82 437 cnv 15 130 116 empty currentBpm 122_BPM 35 15 0 14 -225280
-66577 0;
#X obj 215 437 cnv 15 130 117 empty currentButtonSet_Rcv ButtonSet_1
20 15 0 14 -225280 -66577 0;
#X obj 349 437 cnv 15 130 117 empty currentTranspoFactor transpose_0
17 15 0 14 -225280 -66577 0;
#X text 557 228 change instrument of selected button set;
#N canvas 0 111 1280 542 instrumentStatus 0;
#X obj 53 49 inlet IS_currentButtonSet;
#X obj 295 49 inlet IS_selectedInstrument;
#X obj 841 89 r noOfButtSets;
#X floatatom 841 110 5 0 0 0 - - -;
#X obj 334 199 f 0;
#X text 324 320 value;
#X text 366 209 remember latest button set \; buttonSet - 1 = index
to write to;
#X obj 334 221 - 1;
#X obj 295 164 t f f b;
#X text 386 319 index;
#X text 299 114 a change in instrument \; changes status in array;
#X floatatom 295 70 5 0 0 0 - - -;
#X obj 314 339 array set InstrumentStatusArray;
#X obj 295 428 makefilename instr_%d;
#X msg 295 451 \; currentInstrument label \$1;
#X text 508 330 update array with instrument status \;;
#X msg 144 193 1;
#X obj 53 163 - 1;
#X obj 53 487 outlet TS_resetUpAndDownCounter;
#X obj 53 142 t f b f;
#X obj 53 369 t f f;
#X floatatom 53 341 5 0 0 0 - - -;
#X text 155 285 amount of values \; to get;
#X text 56 282 start index \; to get values \; from;
#X obj 53 320 array get InstrumentStatusArray;
#X text 114 107 when the button set \; changes \, get its co- \; responding
instrument \; number and show it.;
#X text 469 431 also show new instrument status visually;
#X floatatom 334 252 5 0 0 0 - - -;
#X text 887 116 set instrument 1 for every button set \; on loadbang
;
#X obj 841 192 until;
#X obj 841 131 t f b;
#X obj 868 220 + 1;
#X msg 868 158 0;
#X obj 841 348 array set InstrumentStatusArray;
#X obj 841 220 f 0;
#X obj 841 241 t b f;
#X msg 841 270 1;
#X text 874 272 instr 1;
#X text 845 330 value;
#X text 935 330 index;
#X obj 591 46 array define InstrumentStatusArray 100;
#X obj 844 401 r noOfButtSets;
#X obj 958 402 r nmbrOfInstruments;
#X floatatom 958 443 5 0 0 0 - - -;
#X obj 958 423 + 1;
#X obj 844 452 - 1;
#X text 1096 573 start intervall_zwischen_ticks wieviele_kleine_ticks
;
#X text 1094 558 xmin ymax xmax ymin;
#X obj 844 479 pack f f f;
#X obj 844 422 t f f;
#X msg 844 540 \; InstrumentStatusArray resize \$2 \; InstrumentStatusArray
bounds 0 \$3 \$1 0 \; InstrumentStatusArray xticks 0 1 1 \; InstrumentStatusArray
yticks 0 1 1;
#X connect 0 0 19 0;
#X connect 1 0 11 0;
#X connect 2 0 3 0;
#X connect 3 0 30 0;
#X connect 4 0 7 0;
#X connect 7 0 12 1;
#X connect 7 0 27 0;
#X connect 8 0 13 0;
#X connect 8 1 12 0;
#X connect 8 2 4 0;
#X connect 11 0 8 0;
#X connect 13 0 14 0;
#X connect 16 0 24 1;
#X connect 17 0 24 0;
#X connect 19 0 17 0;
#X connect 19 1 16 0;
#X connect 19 2 4 1;
#X connect 20 0 18 0;
#X connect 20 1 13 0;
#X connect 21 0 20 0;
#X connect 24 0 21 0;
#X connect 29 0 34 0;
#X connect 30 0 29 0;
#X connect 30 1 32 0;
#X connect 31 0 34 1;
#X connect 32 0 34 1;
#X connect 34 0 31 0;
#X connect 34 0 35 0;
#X connect 35 0 36 0;
#X connect 35 1 33 1;
#X connect 36 0 33 0;
#X connect 41 0 49 0;
#X connect 42 0 44 0;
#X connect 43 0 48 2;
#X connect 44 0 43 0;
#X connect 45 0 48 0;
#X connect 48 0 50 0;
#X connect 49 0 45 0;
#X connect 49 1 48 1;
#X restore 431 228 pd instrumentStatus;
#X obj 960 -206 r instrChangeBang;
#X obj 960 -184 bng 15 250 50 0 empty empty empty 17 7 0 10 -262144
-1 -1;
#X floatatom 960 -62 5 0 0 0 - - -;
#X text 954 -40 current selected \; instrument;
#X obj 431 249 s instrUpdate;
#X obj 1065 -168 r instrUpdate;
#X obj 687 -80 upanddowncounter 0;
#X obj 960 -83 counterwithreset 1;
#X obj 81 491 bng 62 250 50 0 tempoUp empty tempoUp 10 -15 0 10 -262144
-1 -1;
#X obj 148 491 bng 62 250 50 0 tempoDown empty tempoDown 3 -15 0 10
-262144 -1 -1;
#X obj 215 491 bng 62 250 50 0 buttSetUp empty nextSet 11 -15 0 10
-262144 -1 -1;
#X obj 282 492 bng 62 250 50 0 buttSetDown empty prevSet 9 -15 0 10
-203904 -1 -1;
#X obj 349 492 bng 62 250 50 0 transpoUp empty transpoUp 2 -15 0 10
-262144 -1 -1;
#X obj 415 492 bng 62 250 50 0 transpoDown empty transpoDown -2 -15
0 10 -262144 -1 -1;
#N canvas 0 23 1280 672 instrumentmanager 0;
#X obj 40 17 inlet midiNoteToPlay;
#X obj 332 12 inlet correspondingButtonSet;
#X text 432 146 amount of values \; to get;
#X text 335 135 start index \; to get values \; from;
#X obj 332 173 array get InstrumentStatusArray;
#X msg 359 112 1;
#X obj 332 113 - 1;
#X text 552 177 get instrument number \; for ButtonSet;
#X msg 289 95 2;
#X obj 332 53 t f b f;
#X obj 371 79 s IM_currentButtonSet;
#X obj 40 240 pack f f f;
#X obj 97 213 r IM_currentButtonSet;
#X obj 723 480 bng 15 250 50 0 empty empty empty 17 7 0 10 -262144
-1 -1;
#X obj 759 481 bng 15 250 50 0 empty empty empty 17 7 0 10 -262144
-1 -1;
#X obj 796 480 bng 15 250 50 0 empty empty empty 17 7 0 10 -262144
-1 -1;
#X obj 830 479 bng 15 250 50 0 empty empty empty 17 7 0 10 -262144
-1 -1;
#X obj 867 479 bng 15 250 50 0 empty empty empty 17 7 0 10 -262144
-1 -1;
#X obj 716 456 route 1 2 3 4 5 6 7 8 9 10, f 61;
#X obj 903 483 bng 15 250 50 0 empty empty empty 17 7 0 10 -262144
-1 -1;
#X obj 939 483 bng 15 250 50 0 empty empty empty 17 7 0 10 -262144
-1 -1;
#X obj 976 483 bng 15 250 50 0 empty empty empty 17 7 0 10 -262144
-1 -1;
#X obj 1012 482 bng 15 250 50 0 empty empty empty 17 7 0 10 -262144
-1 -1;
#X obj 1055 483 bng 15 250 50 0 empty empty empty 17 7 0 10 -262144
-1 -1;
#X obj 42 588 clone -s 1 instrumentcollection_multi 10;
#X msg 67 473 vis 1 1;
#X obj 40 311 t a a;
#X msg 94 340 \$3 \$2;
#X text 138 341 sende an clone nummer \$3 (=buttonset) die instrument
nummer (\$2);
#X msg 40 393 \$3 \$1;
#X text 82 392 sende an das gleiche buttonset (\$3) die zugehörige
midi nummer;
#X text 299 569 1 instrumentcollection per button set. \$3 specifies
which clone the incoming midi pitch + instrument go to. It is a clever
replacement for static [route]ing;
#X connect 0 0 11 0;
#X connect 1 0 9 0;
#X connect 4 0 11 1;
#X connect 5 0 4 1;
#X connect 6 0 4 0;
#X connect 8 0 6 0;
#X connect 9 0 6 0;
#X connect 9 1 5 0;
#X connect 9 2 10 0;
#X connect 11 0 26 0;
#X connect 12 0 11 2;
#X connect 18 0 13 0;
#X connect 18 1 14 0;
#X connect 18 2 15 0;
#X connect 18 3 16 0;
#X connect 18 4 17 0;
#X connect 18 5 19 0;
#X connect 18 6 20 0;
#X connect 18 7 21 0;
#X connect 18 8 22 0;
#X connect 18 9 23 0;
#X connect 25 0 24 0;
#X connect 26 0 29 0;
#X connect 26 1 27 0;
#X connect 27 0 24 1;
#X connect 29 0 24 0;
#X restore 99 84 pd instrumentmanager;
#X obj 552 493 cnv 50 60 60 empty StepSeqColor7 empty 20 12 0 14 -225271
-66577 0;
#X obj 350 493 cnv 50 60 60 empty StepSeqColor4 empty 20 12 0 14 -225271
-66577 0;
#X obj 416 493 cnv 50 60 60 empty StepSeqColor5 empty 20 12 0 14 -225271
-66577 0;
#X obj 283 493 cnv 50 60 60 empty StepSeqColor3 empty 20 12 0 14 -225271
-66577 0;
#X obj 216 492 cnv 50 60 60 empty StepSeqColor2 empty 20 12 0 14 -225271
-66577 0;
#X obj 149 492 cnv 50 60 60 empty StepSeqColor1 empty 20 12 0 14 -225271
-66577 0;
#X obj 82 492 cnv 50 60 60 empty StepSeqColor0 empty 20 12 0 14 -225271
-66577 0;
#X obj 483 434 cnv 15 65 117 empty currentInstrument instr_1 1 15 0
14 -225280 -66577 0;
#X obj 482 492 bng 62 250 50 0 instrChangeBang empty InstrChange -3
-15 0 10 -262144 -1 -1;
#X obj 483 493 cnv 50 60 60 empty StepSeqColor6 empty 20 12 0 14 -260818
-66577 0;
#X obj 854 1286 dac~;
#X text 229 372 hier ein buttonset_ALL \; ALL ist einfach immer das
letzte button set. Nur in der Anzeige steht dann "ALL" \, wenn currentButtonSet
== noOfButtSets;
#X obj 416 45 t f f f f f;
#X obj 992 1242 *~ 0.9;
#X obj 854 1240 *~ 0.9;
#X obj 854 1263 hip~ 20;
#X obj 992 1266 hip~ 20;
#N canvas 258 150 981 547 effectmanager 1;
#X obj 108 729 outlet~ EM_audioLeft;
#X obj 264 731 outlet~ EM_audioRight;
#X obj 431 40 inlet EM_currentButtonSet;
#N canvas 210 172 964 602 delay_effect 0;
#X obj 265 371 r setBpm;
#X floatatom 265 392 5 0 0 0 - - -;
#X obj 210 266 r BPM_metroBangs;
#X obj 210 287 bng 15 250 50 0 empty empty empty 17 7 0 10 -262144
-1 -1;
#X msg 210 336 all \$1;
#X msg 210 310 1;
#X text 252 333 pass bpm and metronome \; to each instance;
#X msg 265 413 all \$1;
#X msg 454 455 1;
#X msg 66 154 vis 1 1;
#X msg 67 184 vis 2 1;
#X msg 68 215 vis 3 1;
#X msg 73 256 vis 4 1;
#X obj 390 128 pack f f;
#X msg 390 152 \$2 \$1;
#X obj 422 347 pack f f;
#X msg 422 375 \$2 \$1;
#X obj 454 666 pack f f;
#X msg 454 685 \$2 \$1;
#X msg 74 282 vis 5 1;
#X obj 390 -53 r DE_dryWet_Send;
#X floatatom 390 -32 5 0 0 0 - - -;
#X obj 422 207 r DE_feedback_Send;
#X obj 454 428 r DE_delayTimeChange_Send;
#X text 494 449 dummy number \, is \; converted to bang \; in clone
;
#X text 435 145 \$2 = current button set = clone index to write to
\; \$1 = dryWet value from slider for that clone index;
#X msg 412 1044 \; DE_currentDelayTimeText label \$1;
#X msg 412 1008 symbol \$2;
#X obj 703 100 cnv 15 160 130 empty empty empty 20 12 0 14 -258113
-66577 0;
#X obj 700 103 cnv 15 160 130 empty empty empty 20 12 0 14 -204786
-66577 0;
#X obj 717 161 cnv 15 132 15 empty empty empty 20 12 0 14 -233017 -66577
0;
#X obj 716 164 hsl 128 15 0 1 0 0 DE_feedback_Send DE_feedback_Recv
feedback -2 -8 0 10 -257985 -1 -1 1900 1;
#X obj 718 121 cnv 15 132 15 empty empty empty 20 12 0 14 -233017 -66577
0;
#X obj 717 124 hsl 128 15 0 1 0 0 DE_dryWet_Send DE_dryWet_Recv dry/wet
-2 -8 0 10 -257985 -1 -1 12300 1;
#X obj 50 1043 outlet~ DE_audioLeft;
#X obj 189 1044 outlet~ DE_audioRight;
#X obj 718 192 cnv 15 132 20 empty empty empty 20 12 0 14 -233017 -66577
0;
#X obj 716 195 cnv 20 131 22 empty empty empty 20 12 0 14 -1 -66577
0;
#X obj 737 196 cnv 16 100 20 empty empty empty 1 12 0 14 -262130 -66577
0;
#X obj 716 196 bng 21 250 50 0 DE_delayTimeChange_Send empty empty
17 7 0 10 -262130 -1 -1;
#X obj 746 196 cnv 15 100 20 empty DE_currentDelayTimeText 1/4 1 12
0 14 -262130 -66577 0;
#X text 552 779 for visual updating in a specific clone. \; Each change
in buttonSet-number triggers visual update. \; Button Set number specifies
clone to trigger update. \; 1 = dummy number \, will be converted to
bang in clone;
#X obj 262 841 clone -s 1 effects/jakobsmultidelay 10;
#X text 492 -54 sliders have to be "non init" \; otherwise we receive
here on \; startup and then we have a clone \; error "instance 0 out
of range";
#X obj 628 1053 s DE_dryWet_Recv;
#X obj 390 74 spigot 0;
#X msg 435 24 0;
#X msg 489 760 1;
#X obj 489 793 pack f f;
#X msg 489 818 \$2 \$1;
#X msg 468 45 1;
#X obj 435 3 r EM_spigotClose;
#X obj 468 24 r EM_spigotOpen;
#X obj 489 728 r EM_updateGui;
#X obj 422 302 spigot 0;
#X msg 467 252 0;
#X msg 500 273 1;
#X obj 467 231 r EM_spigotClose;
#X obj 500 252 r EM_spigotOpen;
#X obj 738 1051 s DE_feedback_Recv;
#X obj 454 593 spigot 0;
#X msg 499 543 0;
#X msg 532 564 1;
#X obj 499 522 r EM_spigotClose;
#X obj 532 543 r EM_spigotOpen;
#X floatatom 934 172 5 0 0 0 - - -;
#X floatatom 942 199 5 0 0 0 - - -;
#X obj 818 -6 loadbang;
#X obj 818 59 s DE_dryWet_Recv;
#X obj 828 37 s DE_feedback_Recv;
#X msg 818 15 0;
#X text 884 -1 slider init;
#X floatatom 731 1012 5 0 0 0 - - -;
#X text 783 955 \$2= current feedback value for gui update \; 500 =
line animation tempo in ms;
#X obj 731 991 line;
#X obj 628 1012 line;
#X msg 628 991 \$2 100;
#X msg 731 961 \$2 100;
#X msg 458 925 \$2;
#X msg 607 929 \$2;
#X obj 435 102 r EM_currentButtonSet;
#X obj 467 325 r EM_currentButtonSet;
#X obj 534 756 r EM_currentButtonSet;
#X obj 499 646 r EM_currentButtonSet;
#X connect 0 0 1 0;
#X connect 1 0 7 0;
#X connect 2 0 3 0;
#X connect 3 0 5 0;
#X connect 4 0 42 2;
#X connect 5 0 4 0;
#X connect 7 0 42 3;
#X connect 8 0 60 0;
#X connect 9 0 42 2;
#X connect 10 0 42 2;
#X connect 11 0 42 2;
#X connect 12 0 42 2;
#X connect 13 0 14 0;
#X connect 14 0 42 4;
#X connect 15 0 16 0;
#X connect 16 0 42 5;
#X connect 17 0 18 0;
#X connect 18 0 42 6;
#X connect 19 0 42 2;
#X connect 20 0 21 0;
#X connect 21 0 45 0;
#X connect 22 0 54 0;
#X connect 23 0 8 0;
#X connect 27 0 26 0;
#X connect 31 0 66 0;
#X connect 33 0 65 0;
#X connect 42 0 34 0;
#X connect 42 1 35 0;
#X connect 42 2 27 0;
#X connect 42 3 78 0;
#X connect 42 4 79 0;
#X connect 45 0 13 0;
#X connect 46 0 45 1;
#X connect 47 0 48 0;
#X connect 48 0 49 0;
#X connect 49 0 42 7;
#X connect 50 0 45 1;
#X connect 51 0 46 0;
#X connect 52 0 50 0;
#X connect 53 0 47 0;
#X connect 54 0 15 0;
#X connect 55 0 54 1;
#X connect 56 0 54 1;
#X connect 57 0 55 0;
#X connect 58 0 56 0;
#X connect 60 0 17 0;
#X connect 61 0 60 1;
#X connect 62 0 60 1;
#X connect 63 0 61 0;
#X connect 64 0 62 0;
#X connect 67 0 70 0;
#X connect 70 0 68 0;
#X connect 70 0 69 0;
#X connect 72 0 59 0;
#X connect 74 0 72 0;
#X connect 75 0 44 0;
#X connect 76 0 75 0;
#X connect 77 0 74 0;
#X connect 78 0 44 0;
#X connect 79 0 59 0;
#X connect 80 0 13 1;
#X connect 81 0 15 1;
#X connect 82 0 48 1;
#X connect 83 0 17 1;
#X coords 0 -1 1 1 163 133 1 700 100;
#X restore 437 536 pd delay_effect;
#X obj 418 90 t b b b f;
#X obj 452 166 s EM_spigotClose;
#X obj 435 207 s EM_updateGui;
#X obj 418 230 s EM_spigotOpen;
#X text 502 104 these go into the different effects for updating the
gui elements;
#X text 620 133 before updating the sliders and \; anzeiges of the
effects \, we need to close the spigot after \; the [receives] that
receive the \; values of the sliders and the anzeiges. \; Otherwise
we have a feedback loop \, because we send the updated value for \;
the slider to the slider and then \; the slider sends this value back
into \; [clone] which leads to unwanted \; behavior;
#N canvas 0 95 1280 646 reverb_effect 1;
#X obj 528 73 hsl 132 15 0 1 0 0 reverb_dry_send reverb_dry_rcv dry
-2 -8 0 10 -257985 -1 -1 2620 1;
#X obj 249 272 r reverb_dry_send;
#X obj 528 113 hsl 132 15 0 1 0 0 reverb_wet_send reverb_wet_rcv wet
-2 -8 0 10 -257985 -1 -1 2620 1;
#X obj 494 273 r reverb_wet_send;
#X obj 528 153 hsl 132 15 0 1 0 0 reverb_time_send reverb_time_rcv
time -2 -8 0 10 -257985 -1 -1 2620 1;
#X obj 734 265 r reverb_time_send;
#X obj 528 190 hsl 132 15 0 1 0 0 reverb_brightness_send reverb_brightness_rcv
breitness -2 -8 0 10 -257985 -1 -1 2620 1;
#X obj 946 265 r reverb_brightness_send;
#X obj 528 225 hsl 132 15 0 0.7 0 0 reverb_gain_send reverb_gain_rcv
gain -2 -8 0 10 -257985 -1 -1 3743 1;
#X obj 1207 263 r reverb_gain_send;
#X obj 203 621 clone -s 1 effects/jakobsmultireverb 10, f 184;
#X obj 1349 528 r EM_currentButtonSet;
#X obj 1304 506 r EM_updateGui;
#X obj 1304 556 pack f f;
#X msg 1304 580 \$2 \$1;
#X obj 249 449 pack f f;
#X msg 249 473 \$2 \$1;
#X obj 249 395 spigot 0;
#X msg 294 345 0;
#X msg 327 366 1;
#X obj 294 324 r EM_spigotClose;
#X obj 327 345 r EM_spigotOpen;
#X obj 294 423 r EM_currentButtonSet;
#X text 294 466 \$2 = current button set = clone index to write to
\; \$1 = dry value from slider for that clone index;
#X msg 47 455 vis 1 1;
#X msg 48 485 vis 2 1;
#X msg 49 516 vis 3 1;
#X msg 50 552 vis 4 1;
#X msg 51 578 vis 5 1;
#X obj 494 419 pack f f;
#X msg 494 443 \$2 \$1;
#X obj 494 365 spigot 0;
#X msg 539 315 0;
#X msg 572 336 1;
#X obj 539 294 r EM_spigotClose;
#X obj 572 315 r EM_spigotOpen;
#X obj 539 393 r EM_currentButtonSet;
#X text 369 256 from main sliders;
#X obj 734 439 pack f f;
#X msg 734 463 \$2 \$1;
#X obj 734 385 spigot 0;
#X msg 779 335 0;
#X msg 812 356 1;
#X obj 779 314 r EM_spigotClose;
#X obj 812 335 r EM_spigotOpen;
#X obj 779 413 r EM_currentButtonSet;
#X obj 946 427 pack f f;
#X msg 946 451 \$2 \$1;
#X obj 946 373 spigot 0;
#X msg 991 323 0;
#X msg 1024 344 1;
#X obj 991 302 r EM_spigotClose;
#X obj 1024 323 r EM_spigotOpen;
#X obj 991 401 r EM_currentButtonSet;
#X obj 1207 422 pack f f;
#X msg 1207 446 \$2 \$1;
#X obj 1207 368 spigot 0;
#X msg 1252 318 0;
#X msg 1285 339 1;
#X obj 1252 297 r EM_spigotClose;
#X obj 1285 318 r EM_spigotOpen;
#X obj 1252 396 r EM_currentButtonSet;
#X text 205 661 audio out is [throw~]n inside clone-specifically inside
the clones and [catch~]ed clone-specifically inside the delay-clones
;
#X obj 1068 44 loadbang;
#X obj 928 130 s reverb_dry_rcv;
#X obj 938 155 s reverb_wet_rcv;
#X obj 948 179 s reverb_time_rcv;
#X obj 958 201 s reverb_brightness_rcv;
#X obj 978 224 s reverb_gain_rcv;
#X msg 1068 75 0.2;
#X obj 1123 77 print hallo;
#X connect 1 0 17 0;
#X connect 3 0 31 0;
#X connect 5 0 40 0;
#X connect 7 0 48 0;
#X connect 9 0 56 0;
#X connect 11 0 13 1;
#X connect 12 0 13 0;
#X connect 13 0 14 0;
#X connect 14 0 10 7;
#X connect 15 0 16 0;
#X connect 16 0 10 2;
#X connect 17 0 15 0;
#X connect 18 0 17 1;
#X connect 19 0 17 1;
#X connect 20 0 18 0;
#X connect 21 0 19 0;
#X connect 22 0 15 1;
#X connect 24 0 10 2;
#X connect 25 0 10 2;
#X connect 26 0 10 2;
#X connect 27 0 10 2;
#X connect 28 0 10 2;
#X connect 29 0 30 0;
#X connect 30 0 10 3;
#X connect 31 0 29 0;
#X connect 32 0 31 1;
#X connect 33 0 31 1;
#X connect 34 0 32 0;
#X connect 35 0 33 0;
#X connect 36 0 29 1;
#X connect 38 0 39 0;
#X connect 39 0 10 4;
#X connect 40 0 38 0;
#X connect 41 0 40 1;
#X connect 42 0 40 1;
#X connect 43 0 41 0;
#X connect 44 0 42 0;
#X connect 45 0 38 1;
#X connect 46 0 47 0;
#X connect 47 0 10 5;
#X connect 48 0 46 0;
#X connect 49 0 48 1;
#X connect 50 0 48 1;
#X connect 51 0 49 0;
#X connect 52 0 50 0;
#X connect 53 0 46 1;
#X connect 54 0 55 0;
#X connect 55 0 10 6;
#X connect 56 0 54 0;
#X connect 57 0 56 1;
#X connect 58 0 56 1;
#X connect 59 0 57 0;
#X connect 60 0 58 0;
#X connect 61 0 54 1;
#X connect 63 0 69 0;
#X connect 63 0 70 0;
#X connect 69 0 64 0;
#X connect 69 0 65 0;
#X connect 69 0 66 0;
#X connect 69 0 67 0;
#X connect 69 0 68 0;
#X coords 0 -1 1 1 200 200 1 500 50;
#X restore 437 317 pd reverb_effect;
#X obj 470 137 s EM_currentButtonSet;
#X connect 2 0 4 0;
#X connect 3 0 0 0;
#X connect 3 1 1 0;
#X connect 4 0 7 0;
#X connect 4 1 6 0;
#X connect 4 2 5 0;
#X connect 4 3 11 0;
#X coords 0 -1 1 1 230 400 1 430 300;
#X restore 636 575 pd effectmanager;
#X obj 765 -126 r transposeFactorMax;
#X obj 792 -106 r transposeFactorMin;
#X obj 443 -35 makefilename %d;
#X msg 443 -14 \; currentButtonSet_Rcv label ButtonSet_\$1;
#X obj 416 -79 upanddowncounter 1;
#X obj 416 -57 t f f;
#X obj 494 -130 r buttonSetCounterMax;
#X obj 521 -110 r buttonSetCounterMin;
#N canvas 303 169 547 343 initStuff 0;
#X msg 76 89 \; pentatonicArray read pentatonicArray.txt;
#X obj 12 -246 loadbang;
#X obj 45 157 s setToggleIds;
#X obj 86 -221 bng 15 250 50 0 empty empty empty 17 7 0 10 -262144
-1 -1;
#X msg 92 45 122;
#X msg 60 123 \; pd dsp 1;
#X obj 92 69 s bpmInit;
#X obj 108 13 s nmbrOfInstruments;
#X text 157 -66 ms for smooth \; instrument changes;
#X msg 120 -57 200;
#X text 76 208 number of different button sets;
#X obj 41 237 s noOfButtSets;
#X obj 120 -35 s smoothInstrChangeMs;
#X obj 41 183 delay 1;
#X msg 41 207 10;
#X obj 12 -192 t b b b b b b b b b b b;
#X obj 147 -147 s transposeFactorMax;
#X obj 133 -105 s transposeFactorMin;
#X msg 147 -168 3;
#X msg 133 -124 -3;
#X obj 11 269 s buttonSetCounterMin;
#X msg 11 245 1;
#X obj 142 237 s buttonSetCounterMax;
#N canvas 141 168 675 463 (subpatch) 0;
#X array pentatonicArray 80 float 3;
#A 0 57 59 62 64 66 69 71 74 76 78 78 78 78 78 78 78 78 78 78 78 78
78 78 78 78 78 78 78 78 78 78 78 78 78 78 78 78 78 78 78 78 78 78 78
78 78 78 78 78 78 78 78 78 78 78 78 78 78 78 78 78 78 78 78 78 78 78
78 78 78 78 78 78 78 78 78 78 78 78 78;
#X coords 0 50 80 80 200 140 1 0 0;
#X restore 310 -212 graph;
#X msg 108 -9 5;
#X connect 1 0 15 0;
#X connect 3 0 15 0;
#X connect 4 0 6 0;
#X connect 9 0 12 0;
#X connect 13 0 14 0;
#X connect 14 0 11 0;
#X connect 14 0 22 0;
#X connect 15 1 21 0;
#X connect 15 2 13 0;
#X connect 15 3 2 0;
#X connect 15 4 5 0;
#X connect 15 5 0 0;
#X connect 15 6 4 0;
#X connect 15 7 24 0;
#X connect 15 8 9 0;
#X connect 15 9 19 0;
#X connect 15 10 18 0;
#X connect 18 0 16 0;
#X connect 19 0 17 0;
#X connect 21 0 20 0;
#X connect 24 0 7 0;
#X restore 14 -211 pd initStuff;
#X text 1006 944 todo: delay und adnere effekte auf jedem button set
\, chance \, das eine note gespielt wird. lautstärke pro button set
\; instrumente als absractions? oder clone? \; instrument 2 polyphon.
\; andere scales \; master befehle \; clear current button set. \;
decay von instrument "corona challenge" (random \, aber on time) und
von anderen instrumenten \; step_sequencer length fuer krumme takte
(master und auf button-set-level \; number of buttonset muss generisch
in init-argument der clone-objekte sein für effekte und instrumente
\; velocity control oder random changes einstellbar;
#N canvas 127 65 1113 646 probabilitygate 0;
#X obj 221 126 inlet PG_midiNoteToPlay;
#X text 753 526 This is effect decides whether the midi \; note that
should be played is really passed \; through to the instrument collection
\; based on the given probability that the user \; adjusts in the effect
gui. \; This gives variation in the music. \; The effect is cloned
for each button set.;
#X obj 337 1011 outlet PG_midiNoteForwarded;
#X obj 531 1015 outlet correspondingButtonSet;
#X floatatom 428 443 5 0 0 0 - - -;
#X obj 428 419 r PG_Slider_Send;
#X obj 428 649 pack f f;
#X obj 447 676 print;
#X text 531 415 slider from \; main gui;
#X obj 337 848 clone -s 1 rollthedice_multi 10;
#X msg 33 351 vis 1 1;
#X msg 34 381 vis 2 1;
#X msg 35 412 vis 3 1;
#X msg 35 440 vis 4 1;
#X msg 36 466 vis 5 1;
#X msg 428 706 \$2 \$1;
#X text 485 655 \$2 = button set = clone index \; \$1 = slider value
for that index;
#X obj 749 177 t b b b f;
#X obj 783 328 s PG_spigotClose;
#X obj 766 348 s PG_updateGui;
#X obj 749 369 s PG_spigotOpen;
#X obj 428 577 spigot 0;
#X msg 473 527 0;
#X msg 506 548 1;
#X obj 473 506 r PG_spigotClose;
#X obj 506 527 r PG_spigotOpen;
#X obj 800 309 s PG_currentButtonSet;
#X obj 473 624 r PG_currentButtonSet;
#X obj 565 780 r PG_currentButtonSet;
#X obj 520 754 r PG_updateGui;
#X msg 520 778 1;
#X obj 520 804 pack f f;
#X msg 520 826 \$2 \$1;
#X obj 221 362 pack f f;
#X msg 221 389 \$2 \$1;
#X obj 445 127 inlet PG_correspondingButtonSet;
#X obj 749 153 inlet currentselectedButtonSet;
#X obj 221 177 t f f;
#X obj 337 980 f 0;
#X obj 531 976 f 0;
#X obj 445 173 t f f;
#X text 254 229 for pushing out of \; outlet \, if probability \; is
fulfilled;
#X text 496 154 button sets specifies \; clone index in which \; we
want the probability \; calculation to take place;
#X obj 248 207 s PG_midiNoteToPlayForOutlet;
#X obj 472 215 s PG_correspondingButtonSetForOutlet;
#X text 527 236 for pushing out of outlet \; if probability is fulfilled
;
#X obj 352 954 r PG_midiNoteToPlayForOutlet;
#X obj 546 949 r PG_correspondingButtonSetForOutlet;
#X obj 337 888 t b b, f 14;
#X connect 0 0 37 0;
#X connect 4 0 21 0;
#X connect 5 0 4 0;
#X connect 6 0 7 0;
#X connect 6 0 15 0;
#X connect 9 0 48 0;
#X connect 10 0 9 0;
#X connect 11 0 9 0;
#X connect 12 0 9 0;
#X connect 13 0 9 0;
#X connect 14 0 9 0;
#X connect 15 0 9 1;
#X connect 17 0 20 0;
#X connect 17 1 19 0;
#X connect 17 2 18 0;
#X connect 17 3 26 0;
#X connect 21 0 6 0;
#X connect 22 0 21 1;
#X connect 23 0 21 1;
#X connect 24 0 22 0;
#X connect 25 0 23 0;
#X connect 27 0 6 1;
#X connect 28 0 31 1;
#X connect 29 0 30 0;
#X connect 30 0 31 0;
#X connect 31 0 32 0;
#X connect 32 0 9 2;
#X connect 33 0 34 0;
#X connect 34 0 9 0;
#X connect 35 0 40 0;
#X connect 36 0 17 0;
#X connect 37 0 33 0;
#X connect 37 1 43 0;
#X connect 38 0 2 0;
#X connect 39 0 3 0;
#X connect 40 0 33 1;
#X connect 40 1 44 0;
#X connect 46 0 38 1;
#X connect 47 0 39 1;
#X connect 48 0 38 0;
#X connect 48 1 39 0;
#X coords 0 646 1 645 150 60 0;
#X restore 99 58 pd probabilitygate;
#X obj 682 497 hsl 132 15 0 100 0 0 PG_Slider_Send PG_Slider_Rcv probability
-2 -8 0 10 -257985 -1 -1 0 1;
#X obj 416 279 s currentButtonSetForEffects;
#X obj 674 547 r currentButtonSetForEffects;
#X obj 204 28 r currentButtonSetForEffects;
#X floatatom 220 49 5 0 0 0 - - -;
#X connect 0 0 1 0;
#X connect 1 0 3 0;
#X connect 1 1 3 0;
#X connect 1 2 3 0;
#X connect 1 3 3 0;
#X connect 1 4 3 0;
#X connect 1 5 3 0;
#X connect 1 6 3 0;
#X connect 1 7 3 0;
#X connect 2 0 141 0;
#X connect 3 0 11 0;
#X connect 3 1 7 1;
#X connect 7 0 157 0;
#X connect 7 1 157 1;
#X connect 8 0 9 0;
#X connect 8 0 12 0;
#X connect 10 0 120 2;
#X connect 11 0 7 0;
#X connect 14 0 8 1;
#X connect 15 0 0 0;
#X connect 16 0 0 1;
#X connect 17 0 0 2;
#X connect 18 0 19 0;
#X connect 19 0 151 0;
#X connect 20 0 151 1;
#X connect 21 0 20 0;
#X connect 22 0 23 0;
#X connect 23 0 120 0;
#X connect 24 0 120 1;
#X connect 25 0 24 0;
#X connect 113 0 118 0;
#X connect 114 0 115 0;
#X connect 115 0 121 0;
#X connect 116 0 113 1;
#X connect 119 0 121 1;
#X connect 120 0 14 0;
#X connect 121 0 116 0;
#X connect 141 0 159 0;
#X connect 141 1 113 0;
#X connect 141 2 5 0;
#X connect 141 3 4 0;
#X connect 141 4 8 0;
#X connect 142 0 145 0;
#X connect 143 0 144 0;
#X connect 144 0 139 0;
#X connect 145 0 139 1;
#X connect 146 0 143 0;
#X connect 146 1 142 0;
#X connect 147 0 120 3;
#X connect 148 0 120 4;
#X connect 149 0 150 0;
#X connect 151 0 152 0;
#X connect 152 0 2 0;
#X connect 152 1 149 0;
#X connect 153 0 151 3;
#X connect 154 0 151 4;
#X connect 157 0 128 0;
#X connect 157 1 128 1;
#X connect 160 0 146 0;
#X connect 161 0 162 0;
#X connect 161 0 157 2;
#X coords 0 -1 1 1 900 1050 2 0 400;
#X restore 27 -62 pd control;
