#N canvas 157 219 1081 503 12;
#X obj 17 142 f;
#X obj 17 174 + 1;
#X obj 419 154 f;
#X obj 419 190 - 1;
#X obj 246 106 loadbang;
#X obj 246 134 delay 200;
#X obj 200 546 f 1;
#X obj 278 197 f \$1;
#X obj 246 167 t b b;
#X obj 17 23 inlet UADC_increaseBang;
#X obj 419 23 inlet UADC_decreaseBang;
#X obj 200 616 outlet UADC_currentCounterValue;
#X obj 17 283 moses 4;
#X obj 63 312 bng 15 250 50 0 empty empty empty 17 7 0 10 -262144 -1
-1;
#X obj 660 27 inlet UADC_valueToResetTo;
#X floatatom 210 570 5 0 0 0 - - -;
#X obj 151 565 bng 15 250 50 0 empty empty empty 17 7 0 10 -262144
-1 -1;
#X obj 284 577 print;
#X obj 419 241 bng 15 250 50 0 empty empty empty 17 7 0 10 -262144
-1 -1;
#X obj 17 338 t b f;
#X obj 451 246 t b f;
#X obj 35 100 r \$0-UADC_resetValue;
#X obj 218 488 r \$0-UADC_resetValue;
#X obj 437 108 r \$0-UADC_resetValue;
#X obj 660 71 s \$0-UADC_resetValue;
#X obj 869 28 inlet UADC_maxCounterValue;
#X text 491 504 26th November 2018 \; This patch has two inlets \;
When the first inlet receives \; a bang \, it increases the counter.
\; The first init argument sets the initial counter value.;
#X obj 869 72 s \$0-UADC_maxCounterValue;
#X obj 63 228 r \$0-UADC_maxCounterValue;
#X obj 63 252 + 1;
#X obj 1069 28 inlet UADC_minCounterValue;
#X obj 1069 72 s \$0-UADC_minCounterValue;
#X obj 451 190 r \$0-UADC_minCounterValue;
#X obj 419 217 moses;
#X text 97 258 transpose factor max;
#X text 463 227 transpose factor min;
#X connect 0 0 1 0;
#X connect 1 0 12 0;
#X connect 2 0 3 0;
#X connect 3 0 33 0;
#X connect 4 0 5 0;
#X connect 5 0 8 0;
#X connect 6 0 15 0;
#X connect 6 0 16 0;
#X connect 6 0 2 1;
#X connect 6 0 0 1;
#X connect 6 0 11 0;
#X connect 7 0 6 1;
#X connect 8 0 6 0;
#X connect 8 1 7 0;
#X connect 9 0 0 0;
#X connect 10 0 2 0;
#X connect 12 0 19 0;
#X connect 12 1 13 0;
#X connect 14 0 24 0;
#X connect 19 0 6 0;
#X connect 19 1 6 1;
#X connect 20 0 6 0;
#X connect 20 1 6 1;
#X connect 21 0 0 1;
#X connect 22 0 6 1;
#X connect 23 0 2 1;
#X connect 25 0 27 0;
#X connect 28 0 29 0;
#X connect 29 0 12 1;
#X connect 30 0 31 0;
#X connect 32 0 33 1;
#X connect 33 0 18 0;
#X connect 33 1 20 0;
