#N canvas 317 24 963 503 12;
#X obj 17 142 f;
#X obj 17 174 + 1;
#X obj 419 154 f;
#X obj 419 190 - 1;
#X obj 246 106 loadbang;
#X obj 246 134 delay 200;
#X obj 200 396 f 1;
#X obj 278 197 f \$1;
#X obj 246 167 t b b;
#X obj 17 23 inlet UADC_increaseBang;
#X obj 419 23 inlet UADC_decreaseBang;
#X obj 200 466 outlet UADC_currentCounterValue;
#X text 491 354 26th November 2018 \; This patch has two inlets \;
When the first inlet receives \; a bang \, it increases the counter.
\; The first init argument sets the initial counter value.;
#X obj 17 213 moses 4;
#X text 47 191 transpose factor max 3;
#X obj 63 242 bng 15 250 50 0 empty empty empty 17 7 0 10 -262144 -1
-1;
#X obj 419 217 moses -3;
#X obj 660 27 inlet UADC_valueToResetTo;
#X obj 660 71 s UADC_resetValue;
#X obj 437 108 r UADC_resetValue;
#X obj 35 100 r UADC_resetValue;
#X obj 218 338 r UADC_resetValue;
#X text 484 226 transpose factor min -3;
#X floatatom 210 420 5 0 0 0 - - -;
#X obj 151 415 bng 15 250 50 0 empty empty empty 17 7 0 10 -262144
-1 -1;
#X obj 284 427 print;
#X obj 419 241 bng 15 250 50 0 empty empty empty 17 7 0 10 -262144
-1 -1;
#X obj 17 268 t b f;
#X obj 472 245 t b f;
#X connect 0 0 1 0;
#X connect 1 0 13 0;
#X connect 2 0 3 0;
#X connect 3 0 16 0;
#X connect 4 0 5 0;
#X connect 5 0 8 0;
#X connect 6 0 23 0;
#X connect 6 0 24 0;
#X connect 6 0 2 1;
#X connect 6 0 0 1;
#X connect 6 0 11 0;
#X connect 7 0 6 1;
#X connect 8 0 6 0;
#X connect 8 1 7 0;
#X connect 9 0 0 0;
#X connect 10 0 2 0;
#X connect 13 0 27 0;
#X connect 13 1 15 0;
#X connect 16 0 26 0;
#X connect 16 1 28 0;
#X connect 17 0 18 0;
#X connect 19 0 2 1;
#X connect 20 0 0 1;
#X connect 21 0 6 1;
#X connect 27 0 6 0;
#X connect 27 1 6 1;
#X connect 28 0 6 0;
#X connect 28 1 6 1;
