#N canvas 0 23 1280 751 12;
#X obj 518 619 f \$1;
#X obj 567 931 f \$2;
#X obj 567 959 until;
#X text 613 962 for 0 bis number of pitches..do;
#X obj 567 1016 f 0;
#X obj 598 1016 + 1;
#X text 903 182 creation argument1 = number of steps (rows);
#X text 903 153 creation argument2 = number of pitches for each step
(columns);
#X obj 518 649 until;
#X obj 518 710 f 0;
#X obj 549 710 + 1;
#X msg 545 512 0;
#X msg 627 866 0;
#X text 635 1015 current Inner Iteration;
#X obj 567 831 t b b, f 9;
#X obj 518 736 t b f;
#X text 567 650 for each column/step;
#X text 723 748 Outer Loop = steps = columns;
#X text 799 844 Inner Loop = pitches = rows;
#X obj 492 11 bng 15 250 50 0 empty empty empty 17 7 0 10 -262144 -1
-1;
#X obj 545 544 s USS_resetOuterCounter;
#X obj 562 677 r USS_resetOuterCounter;
#X obj 550 765 s USS_currentOuterIteration;
#X obj 627 888 s USS_resetInnerCounter;
#X obj 585 986 r USS_resetInnerCounter;
#X obj 264 7 inlet USS_currentButtonSet;
#X floatatom 264 31 5 0 0 0 - - -;
#X obj 571 483 s USS_resetXyCounters;
#X msg 571 457 10;
#N canvas 0 23 1280 751 USS_insert_receive_symbols 0;
#X obj 99 63 inlet USSIRS_currentInnerIteration;
#X obj 137 161 r USS_currentOuterIteration;
#X obj 107 370 f 10;
#X obj 206 369 f 10;
#X obj 84 188 pack f f f;
#X msg 84 212 \$2_\$1_\$3;
#X text 156 212 = column_row_buttonSet;
#X obj 84 250 t a b b;
#X obj 132 301 r USS_resetXyCounters;
#X obj 231 331 r USS_resetXyCounters;
#X text 116 347 x;
#X text 209 345 y;
#X obj 151 370 + 5;
#X obj 84 437 pack s f f f, f 30;
#X msg 84 482 \; pd-genericStates_ButtonSet_\$4 obj \$2 \$3 r bt_send_\$1
;
#X obj 291 402 r USS_currentButtonSet;
#X obj 356 160 r USS_currentButtonSet;
#X obj 251 368 + 150;
#X connect 0 0 4 0;
#X connect 1 0 4 1;
#X connect 2 0 12 0;
#X connect 2 0 13 1;
#X connect 3 0 13 2;
#X connect 3 0 17 0;
#X connect 4 0 5 0;
#X connect 5 0 7 0;
#X connect 7 0 13 0;
#X connect 7 1 2 0;
#X connect 7 2 3 0;
#X connect 8 0 2 1;
#X connect 9 0 3 1;
#X connect 12 0 2 1;
#X connect 13 0 14 0;
#X connect 15 0 13 3;
#X connect 16 0 4 2;
#X connect 17 0 3 1;
#X restore 582 1101 pd USS_insert_receive_symbols;
#X text 991 362 add array;
#X msg 678 117 \; pd-genericStates_ButtonSet_\$1 clear;
#X msg 492 50 1;
#X obj 607 356 pack f f;
#X obj 629 115 f \$2;
#X msg 607 388 \; pd-genericStates_ButtonSet_\$2 obj 150 10 array define
-yrange 0 1 ButtonSetArray_\$2 \$1;
#X text 176 102 one array saves status of one button set;
#X text 683 353 number of buttons und buttonSet;
#X obj 598 173 *;
#X obj 598 144 f \$1;
#X floatatom 598 197 5 0 0 0 - - -;
#X text 532 58 button set;
#X obj 264 66 s USS_currentButtonSet;
#N canvas 518 149 762 625 genericStates_ButtonSet_1 1;
#X obj 150 10 array define -yrange 0 1 ButtonSetArray_1 80;
#X obj 10 10 r bt_send_0_0_1;
#X obj 10 60 t f b;
#X msg 45 85 0;
#X obj 10 110 array set ButtonSetArray_1;
#X obj 15 160 r bt_send_0_1_1;
#X obj 15 210 t f b;
#X msg 50 235 1;
#X obj 15 260 array set ButtonSetArray_1;
#X obj 20 310 r bt_send_0_2_1;
#X obj 20 360 t f b;
#X msg 55 385 2;
#X obj 20 410 array set ButtonSetArray_1;
#X obj 25 460 r bt_send_0_3_1;
#X obj 25 510 t f b;
#X msg 60 535 3;
#X obj 25 560 array set ButtonSetArray_1;
#X obj 30 610 r bt_send_0_4_1;
#X obj 30 660 t f b;
#X msg 65 685 4;
#X obj 30 710 array set ButtonSetArray_1;
#X obj 35 760 r bt_send_0_5_1;
#X obj 35 810 t f b;
#X msg 70 835 5;
#X obj 35 860 array set ButtonSetArray_1;
#X obj 40 910 r bt_send_0_6_1;
#X obj 40 960 t f b;
#X msg 75 985 6;
#X obj 40 1010 array set ButtonSetArray_1;
#X obj 45 1060 r bt_send_0_7_1;
#X obj 45 1110 t f b;
#X msg 80 1135 7;
#X obj 45 1160 array set ButtonSetArray_1;
#X obj 50 1210 r bt_send_0_8_1;
#X obj 50 1260 t f b;
#X msg 85 1285 8;
#X obj 50 1310 array set ButtonSetArray_1;
#X obj 55 1360 r bt_send_0_9_1;
#X obj 55 1410 t f b;
#X msg 90 1435 9;
#X obj 55 1460 array set ButtonSetArray_1;
#X obj 60 1510 r bt_send_1_0_1;
#X obj 60 1560 t f b;
#X msg 95 1585 10;
#X obj 60 1610 array set ButtonSetArray_1;
#X obj 65 1660 r bt_send_1_1_1;
#X obj 65 1710 t f b;
#X msg 100 1735 11;
#X obj 65 1760 array set ButtonSetArray_1;
#X obj 70 1810 r bt_send_1_2_1;
#X obj 70 1860 t f b;
#X msg 105 1885 12;
#X obj 70 1910 array set ButtonSetArray_1;
#X obj 75 1960 r bt_send_1_3_1;
#X obj 75 2010 t f b;
#X msg 110 2035 13;
#X obj 75 2060 array set ButtonSetArray_1;
#X obj 80 2110 r bt_send_1_4_1;
#X obj 80 2160 t f b;
#X msg 115 2185 14;
#X obj 80 2210 array set ButtonSetArray_1;
#X obj 85 2260 r bt_send_1_5_1;
#X obj 85 2310 t f b;
#X msg 120 2335 15;
#X obj 85 2360 array set ButtonSetArray_1;
#X obj 90 2410 r bt_send_1_6_1;
#X obj 90 2460 t f b;
#X msg 125 2485 16;
#X obj 90 2510 array set ButtonSetArray_1;
#X obj 95 2560 r bt_send_1_7_1;
#X obj 95 2610 t f b;
#X msg 130 2635 17;
#X obj 95 2660 array set ButtonSetArray_1;
#X obj 100 2710 r bt_send_1_8_1;
#X obj 100 2760 t f b;
#X msg 135 2785 18;
#X obj 100 2810 array set ButtonSetArray_1;
#X obj 105 2860 r bt_send_1_9_1;
#X obj 105 2910 t f b;
#X msg 140 2935 19;
#X obj 105 2960 array set ButtonSetArray_1;
#X obj 110 3010 r bt_send_2_0_1;
#X obj 110 3060 t f b;
#X msg 145 3085 20;
#X obj 110 3110 array set ButtonSetArray_1;
#X obj 115 3160 r bt_send_2_1_1;
#X obj 115 3210 t f b;
#X msg 150 3235 21;
#X obj 115 3260 array set ButtonSetArray_1;
#X obj 120 3310 r bt_send_2_2_1;
#X obj 120 3360 t f b;
#X msg 155 3385 22;
#X obj 120 3410 array set ButtonSetArray_1;
#X obj 125 3460 r bt_send_2_3_1;
#X obj 125 3510 t f b;
#X msg 160 3535 23;
#X obj 125 3560 array set ButtonSetArray_1;
#X obj 130 3610 r bt_send_2_4_1;
#X obj 130 3660 t f b;
#X msg 165 3685 24;
#X obj 130 3710 array set ButtonSetArray_1;
#X obj 135 3760 r bt_send_2_5_1;
#X obj 135 3810 t f b;
#X msg 170 3835 25;
#X obj 135 3860 array set ButtonSetArray_1;
#X obj 140 3910 r bt_send_2_6_1;
#X obj 140 3960 t f b;
#X msg 175 3985 26;
#X obj 140 4010 array set ButtonSetArray_1;
#X obj 145 4060 r bt_send_2_7_1;
#X obj 145 4110 t f b;
#X msg 180 4135 27;
#X obj 145 4160 array set ButtonSetArray_1;
#X obj 150 4210 r bt_send_2_8_1;
#X obj 150 4260 t f b;
#X msg 185 4285 28;
#X obj 150 4310 array set ButtonSetArray_1;
#X obj 155 4360 r bt_send_2_9_1;
#X obj 155 4410 t f b;
#X msg 190 4435 29;
#X obj 155 4460 array set ButtonSetArray_1;
#X obj 160 4510 r bt_send_3_0_1;
#X obj 160 4560 t f b;
#X msg 195 4585 30;
#X obj 160 4610 array set ButtonSetArray_1;
#X obj 165 4660 r bt_send_3_1_1;
#X obj 165 4710 t f b;
#X msg 200 4735 31;
#X obj 165 4760 array set ButtonSetArray_1;
#X obj 170 4810 r bt_send_3_2_1;
#X obj 170 4860 t f b;
#X msg 205 4885 32;
#X obj 170 4910 array set ButtonSetArray_1;
#X obj 175 4960 r bt_send_3_3_1;
#X obj 175 5010 t f b;
#X msg 210 5035 33;
#X obj 175 5060 array set ButtonSetArray_1;
#X obj 180 5110 r bt_send_3_4_1;
#X obj 180 5160 t f b;
#X msg 215 5185 34;
#X obj 180 5210 array set ButtonSetArray_1;
#X obj 185 5260 r bt_send_3_5_1;
#X obj 185 5310 t f b;
#X msg 220 5335 35;
#X obj 185 5360 array set ButtonSetArray_1;
#X obj 190 5410 r bt_send_3_6_1;
#X obj 190 5460 t f b;
#X msg 225 5485 36;
#X obj 190 5510 array set ButtonSetArray_1;
#X obj 195 5560 r bt_send_3_7_1;
#X obj 195 5610 t f b;
#X msg 230 5635 37;
#X obj 195 5660 array set ButtonSetArray_1;
#X obj 200 5710 r bt_send_3_8_1;
#X obj 200 5760 t f b;
#X msg 235 5785 38;
#X obj 200 5810 array set ButtonSetArray_1;
#X obj 205 5860 r bt_send_3_9_1;
#X obj 205 5910 t f b;
#X msg 240 5935 39;
#X obj 205 5960 array set ButtonSetArray_1;
#X obj 210 6010 r bt_send_4_0_1;
#X obj 210 6060 t f b;
#X msg 245 6085 40;
#X obj 210 6110 array set ButtonSetArray_1;
#X obj 215 6160 r bt_send_4_1_1;
#X obj 215 6210 t f b;
#X msg 250 6235 41;
#X obj 215 6260 array set ButtonSetArray_1;
#X obj 220 6310 r bt_send_4_2_1;
#X obj 220 6360 t f b;
#X msg 255 6385 42;
#X obj 220 6410 array set ButtonSetArray_1;
#X obj 225 6460 r bt_send_4_3_1;
#X obj 225 6510 t f b;
#X msg 260 6535 43;
#X obj 225 6560 array set ButtonSetArray_1;
#X obj 230 6610 r bt_send_4_4_1;
#X obj 230 6660 t f b;
#X msg 265 6685 44;
#X obj 230 6710 array set ButtonSetArray_1;
#X obj 235 6760 r bt_send_4_5_1;
#X obj 235 6810 t f b;
#X msg 270 6835 45;
#X obj 235 6860 array set ButtonSetArray_1;
#X obj 240 6910 r bt_send_4_6_1;
#X obj 240 6960 t f b;
#X msg 275 6985 46;
#X obj 240 7010 array set ButtonSetArray_1;
#X obj 245 7060 r bt_send_4_7_1;
#X obj 245 7110 t f b;
#X msg 280 7135 47;
#X obj 245 7160 array set ButtonSetArray_1;
#X obj 250 7210 r bt_send_4_8_1;
#X obj 250 7260 t f b;
#X msg 285 7285 48;
#X obj 250 7310 array set ButtonSetArray_1;
#X obj 255 7360 r bt_send_4_9_1;
#X obj 255 7410 t f b;
#X msg 290 7435 49;
#X obj 255 7460 array set ButtonSetArray_1;
#X obj 260 7510 r bt_send_5_0_1;
#X obj 260 7560 t f b;
#X msg 295 7585 50;
#X obj 260 7610 array set ButtonSetArray_1;
#X obj 265 7660 r bt_send_5_1_1;
#X obj 265 7710 t f b;
#X msg 300 7735 51;
#X obj 265 7760 array set ButtonSetArray_1;
#X obj 270 7810 r bt_send_5_2_1;
#X obj 270 7860 t f b;
#X msg 305 7885 52;
#X obj 270 7910 array set ButtonSetArray_1;
#X obj 275 7960 r bt_send_5_3_1;
#X obj 275 8010 t f b;
#X msg 310 8035 53;
#X obj 275 8060 array set ButtonSetArray_1;
#X obj 280 8110 r bt_send_5_4_1;
#X obj 280 8160 t f b;
#X msg 315 8185 54;
#X obj 280 8210 array set ButtonSetArray_1;
#X obj 285 8260 r bt_send_5_5_1;
#X obj 285 8310 t f b;
#X msg 320 8335 55;
#X obj 285 8360 array set ButtonSetArray_1;
#X obj 290 8410 r bt_send_5_6_1;
#X obj 290 8460 t f b;
#X msg 325 8485 56;
#X obj 290 8510 array set ButtonSetArray_1;
#X obj 295 8560 r bt_send_5_7_1;
#X obj 295 8610 t f b;
#X msg 330 8635 57;
#X obj 295 8660 array set ButtonSetArray_1;
#X obj 300 8710 r bt_send_5_8_1;
#X obj 300 8760 t f b;
#X msg 335 8785 58;
#X obj 300 8810 array set ButtonSetArray_1;
#X obj 305 8860 r bt_send_5_9_1;
#X obj 305 8910 t f b;
#X msg 340 8935 59;
#X obj 305 8960 array set ButtonSetArray_1;
#X obj 310 9010 r bt_send_6_0_1;
#X obj 310 9060 t f b;
#X msg 345 9085 60;
#X obj 310 9110 array set ButtonSetArray_1;
#X obj 315 9160 r bt_send_6_1_1;
#X obj 315 9210 t f b;
#X msg 350 9235 61;
#X obj 315 9260 array set ButtonSetArray_1;
#X obj 320 9310 r bt_send_6_2_1;
#X obj 320 9360 t f b;
#X msg 355 9385 62;
#X obj 320 9410 array set ButtonSetArray_1;
#X obj 325 9460 r bt_send_6_3_1;
#X obj 325 9510 t f b;
#X msg 360 9535 63;
#X obj 325 9560 array set ButtonSetArray_1;
#X obj 330 9610 r bt_send_6_4_1;
#X obj 330 9660 t f b;
#X msg 365 9685 64;
#X obj 330 9710 array set ButtonSetArray_1;
#X obj 335 9760 r bt_send_6_5_1;
#X obj 335 9810 t f b;
#X msg 370 9835 65;
#X obj 335 9860 array set ButtonSetArray_1;
#X obj 340 9910 r bt_send_6_6_1;
#X obj 340 9960 t f b;
#X msg 375 9985 66;
#X obj 340 10010 array set ButtonSetArray_1;
#X obj 345 10060 r bt_send_6_7_1;
#X obj 345 10110 t f b;
#X msg 380 10135 67;
#X obj 345 10160 array set ButtonSetArray_1;
#X obj 350 10210 r bt_send_6_8_1;
#X obj 350 10260 t f b;
#X msg 385 10285 68;
#X obj 350 10310 array set ButtonSetArray_1;
#X obj 355 10360 r bt_send_6_9_1;
#X obj 355 10410 t f b;
#X msg 390 10435 69;
#X obj 355 10460 array set ButtonSetArray_1;
#X obj 360 10510 r bt_send_7_0_1;
#X obj 360 10560 t f b;
#X msg 395 10585 70;
#X obj 360 10610 array set ButtonSetArray_1;
#X obj 365 10660 r bt_send_7_1_1;
#X obj 365 10710 t f b;
#X msg 400 10735 71;
#X obj 365 10760 array set ButtonSetArray_1;
#X obj 370 10810 r bt_send_7_2_1;
#X obj 370 10860 t f b;
#X msg 405 10885 72;
#X obj 370 10910 array set ButtonSetArray_1;
#X obj 375 10960 r bt_send_7_3_1;
#X obj 375 11010 t f b;
#X msg 410 11035 73;
#X obj 375 11060 array set ButtonSetArray_1;
#X obj 380 11110 r bt_send_7_4_1;
#X obj 380 11160 t f b;
#X msg 415 11185 74;
#X obj 380 11210 array set ButtonSetArray_1;
#X obj 385 11260 r bt_send_7_5_1;
#X obj 385 11310 t f b;
#X msg 420 11335 75;
#X obj 385 11360 array set ButtonSetArray_1;
#X obj 390 11410 r bt_send_7_6_1;
#X obj 390 11460 t f b;
#X msg 425 11485 76;
#X obj 390 11510 array set ButtonSetArray_1;
#X obj 395 11560 r bt_send_7_7_1;
#X obj 395 11610 t f b;
#X msg 430 11635 77;
#X obj 395 11660 array set ButtonSetArray_1;
#X obj 400 11710 r bt_send_7_8_1;
#X obj 400 11760 t f b;
#X msg 435 11785 78;
#X obj 400 11810 array set ButtonSetArray_1;
#X obj 405 11860 r bt_send_7_9_1;
#X obj 405 11910 t f b;
#X msg 440 11935 79;
#X obj 405 11960 array set ButtonSetArray_1;
#X connect 1 0 2 0;
#X connect 2 0 4 0;
#X connect 2 1 3 0;
#X connect 3 0 4 1;
#X connect 5 0 6 0;
#X connect 6 0 8 0;
#X connect 6 1 7 0;
#X connect 7 0 8 1;
#X connect 9 0 10 0;
#X connect 10 0 12 0;
#X connect 10 1 11 0;
#X connect 11 0 12 1;
#X connect 13 0 14 0;
#X connect 14 0 16 0;
#X connect 14 1 15 0;
#X connect 15 0 16 1;
#X connect 17 0 18 0;
#X connect 18 0 20 0;
#X connect 18 1 19 0;
#X connect 19 0 20 1;
#X connect 21 0 22 0;
#X connect 22 0 24 0;
#X connect 22 1 23 0;
#X connect 23 0 24 1;
#X connect 25 0 26 0;
#X connect 26 0 28 0;
#X connect 26 1 27 0;
#X connect 27 0 28 1;
#X connect 29 0 30 0;
#X connect 30 0 32 0;
#X connect 30 1 31 0;
#X connect 31 0 32 1;
#X connect 33 0 34 0;
#X connect 34 0 36 0;
#X connect 34 1 35 0;
#X connect 35 0 36 1;
#X connect 37 0 38 0;
#X connect 38 0 40 0;
#X connect 38 1 39 0;
#X connect 39 0 40 1;
#X connect 41 0 42 0;
#X connect 42 0 44 0;
#X connect 42 1 43 0;
#X connect 43 0 44 1;
#X connect 45 0 46 0;
#X connect 46 0 48 0;
#X connect 46 1 47 0;
#X connect 47 0 48 1;
#X connect 49 0 50 0;
#X connect 50 0 52 0;
#X connect 50 1 51 0;
#X connect 51 0 52 1;
#X connect 53 0 54 0;
#X connect 54 0 56 0;
#X connect 54 1 55 0;
#X connect 55 0 56 1;
#X connect 57 0 58 0;
#X connect 58 0 60 0;
#X connect 58 1 59 0;
#X connect 59 0 60 1;
#X connect 61 0 62 0;
#X connect 62 0 64 0;
#X connect 62 1 63 0;
#X connect 63 0 64 1;
#X connect 65 0 66 0;
#X connect 66 0 68 0;
#X connect 66 1 67 0;
#X connect 67 0 68 1;
#X connect 69 0 70 0;
#X connect 70 0 72 0;
#X connect 70 1 71 0;
#X connect 71 0 72 1;
#X connect 73 0 74 0;
#X connect 74 0 76 0;
#X connect 74 1 75 0;
#X connect 75 0 76 1;
#X connect 77 0 78 0;
#X connect 78 0 80 0;
#X connect 78 1 79 0;
#X connect 79 0 80 1;
#X connect 81 0 82 0;
#X connect 82 0 84 0;
#X connect 82 1 83 0;
#X connect 83 0 84 1;
#X connect 85 0 86 0;
#X connect 86 0 88 0;
#X connect 86 1 87 0;
#X connect 87 0 88 1;
#X connect 89 0 90 0;
#X connect 90 0 92 0;
#X connect 90 1 91 0;
#X connect 91 0 92 1;
#X connect 93 0 94 0;
#X connect 94 0 96 0;
#X connect 94 1 95 0;
#X connect 95 0 96 1;
#X connect 97 0 98 0;
#X connect 98 0 100 0;
#X connect 98 1 99 0;
#X connect 99 0 100 1;
#X connect 101 0 102 0;
#X connect 102 0 104 0;
#X connect 102 1 103 0;
#X connect 103 0 104 1;
#X connect 105 0 106 0;
#X connect 106 0 108 0;
#X connect 106 1 107 0;
#X connect 107 0 108 1;
#X connect 109 0 110 0;
#X connect 110 0 112 0;
#X connect 110 1 111 0;
#X connect 111 0 112 1;
#X connect 113 0 114 0;
#X connect 114 0 116 0;
#X connect 114 1 115 0;
#X connect 115 0 116 1;
#X connect 117 0 118 0;
#X connect 118 0 120 0;
#X connect 118 1 119 0;
#X connect 119 0 120 1;
#X connect 121 0 122 0;
#X connect 122 0 124 0;
#X connect 122 1 123 0;
#X connect 123 0 124 1;
#X connect 125 0 126 0;
#X connect 126 0 128 0;
#X connect 126 1 127 0;
#X connect 127 0 128 1;
#X connect 129 0 130 0;
#X connect 130 0 132 0;
#X connect 130 1 131 0;
#X connect 131 0 132 1;
#X connect 133 0 134 0;
#X connect 134 0 136 0;
#X connect 134 1 135 0;
#X connect 135 0 136 1;
#X connect 137 0 138 0;
#X connect 138 0 140 0;
#X connect 138 1 139 0;
#X connect 139 0 140 1;
#X connect 141 0 142 0;
#X connect 142 0 144 0;
#X connect 142 1 143 0;
#X connect 143 0 144 1;
#X connect 145 0 146 0;
#X connect 146 0 148 0;
#X connect 146 1 147 0;
#X connect 147 0 148 1;
#X connect 149 0 150 0;
#X connect 150 0 152 0;
#X connect 150 1 151 0;
#X connect 151 0 152 1;
#X connect 153 0 154 0;
#X connect 154 0 156 0;
#X connect 154 1 155 0;
#X connect 155 0 156 1;
#X connect 157 0 158 0;
#X connect 158 0 160 0;
#X connect 158 1 159 0;
#X connect 159 0 160 1;
#X connect 161 0 162 0;
#X connect 162 0 164 0;
#X connect 162 1 163 0;
#X connect 163 0 164 1;
#X connect 165 0 166 0;
#X connect 166 0 168 0;
#X connect 166 1 167 0;
#X connect 167 0 168 1;
#X connect 169 0 170 0;
#X connect 170 0 172 0;
#X connect 170 1 171 0;
#X connect 171 0 172 1;
#X connect 173 0 174 0;
#X connect 174 0 176 0;
#X connect 174 1 175 0;
#X connect 175 0 176 1;
#X connect 177 0 178 0;
#X connect 178 0 180 0;
#X connect 178 1 179 0;
#X connect 179 0 180 1;
#X connect 181 0 182 0;
#X connect 182 0 184 0;
#X connect 182 1 183 0;
#X connect 183 0 184 1;
#X connect 185 0 186 0;
#X connect 186 0 188 0;
#X connect 186 1 187 0;
#X connect 187 0 188 1;
#X connect 189 0 190 0;
#X connect 190 0 192 0;
#X connect 190 1 191 0;
#X connect 191 0 192 1;
#X connect 193 0 194 0;
#X connect 194 0 196 0;
#X connect 194 1 195 0;
#X connect 195 0 196 1;
#X connect 197 0 198 0;
#X connect 198 0 200 0;
#X connect 198 1 199 0;
#X connect 199 0 200 1;
#X connect 201 0 202 0;
#X connect 202 0 204 0;
#X connect 202 1 203 0;
#X connect 203 0 204 1;
#X connect 205 0 206 0;
#X connect 206 0 208 0;
#X connect 206 1 207 0;
#X connect 207 0 208 1;
#X connect 209 0 210 0;
#X connect 210 0 212 0;
#X connect 210 1 211 0;
#X connect 211 0 212 1;
#X connect 213 0 214 0;
#X connect 214 0 216 0;
#X connect 214 1 215 0;
#X connect 215 0 216 1;
#X connect 217 0 218 0;
#X connect 218 0 220 0;
#X connect 218 1 219 0;
#X connect 219 0 220 1;
#X connect 221 0 222 0;
#X connect 222 0 224 0;
#X connect 222 1 223 0;
#X connect 223 0 224 1;
#X connect 225 0 226 0;
#X connect 226 0 228 0;
#X connect 226 1 227 0;
#X connect 227 0 228 1;
#X connect 229 0 230 0;
#X connect 230 0 232 0;
#X connect 230 1 231 0;
#X connect 231 0 232 1;
#X connect 233 0 234 0;
#X connect 234 0 236 0;
#X connect 234 1 235 0;
#X connect 235 0 236 1;
#X connect 237 0 238 0;
#X connect 238 0 240 0;
#X connect 238 1 239 0;
#X connect 239 0 240 1;
#X connect 241 0 242 0;
#X connect 242 0 244 0;
#X connect 242 1 243 0;
#X connect 243 0 244 1;
#X connect 245 0 246 0;
#X connect 246 0 248 0;
#X connect 246 1 247 0;
#X connect 247 0 248 1;
#X connect 249 0 250 0;
#X connect 250 0 252 0;
#X connect 250 1 251 0;
#X connect 251 0 252 1;
#X connect 253 0 254 0;
#X connect 254 0 256 0;
#X connect 254 1 255 0;
#X connect 255 0 256 1;
#X connect 257 0 258 0;
#X connect 258 0 260 0;
#X connect 258 1 259 0;
#X connect 259 0 260 1;
#X connect 261 0 262 0;
#X connect 262 0 264 0;
#X connect 262 1 263 0;
#X connect 263 0 264 1;
#X connect 265 0 266 0;
#X connect 266 0 268 0;
#X connect 266 1 267 0;
#X connect 267 0 268 1;
#X connect 269 0 270 0;
#X connect 270 0 272 0;
#X connect 270 1 271 0;
#X connect 271 0 272 1;
#X connect 273 0 274 0;
#X connect 274 0 276 0;
#X connect 274 1 275 0;
#X connect 275 0 276 1;
#X connect 277 0 278 0;
#X connect 278 0 280 0;
#X connect 278 1 279 0;
#X connect 279 0 280 1;
#X connect 281 0 282 0;
#X connect 282 0 284 0;
#X connect 282 1 283 0;
#X connect 283 0 284 1;
#X connect 285 0 286 0;
#X connect 286 0 288 0;
#X connect 286 1 287 0;
#X connect 287 0 288 1;
#X connect 289 0 290 0;
#X connect 290 0 292 0;
#X connect 290 1 291 0;
#X connect 291 0 292 1;
#X connect 293 0 294 0;
#X connect 294 0 296 0;
#X connect 294 1 295 0;
#X connect 295 0 296 1;
#X connect 297 0 298 0;
#X connect 298 0 300 0;
#X connect 298 1 299 0;
#X connect 299 0 300 1;
#X connect 301 0 302 0;
#X connect 302 0 304 0;
#X connect 302 1 303 0;
#X connect 303 0 304 1;
#X connect 305 0 306 0;
#X connect 306 0 308 0;
#X connect 306 1 307 0;
#X connect 307 0 308 1;
#X connect 309 0 310 0;
#X connect 310 0 312 0;
#X connect 310 1 311 0;
#X connect 311 0 312 1;
#X connect 313 0 314 0;
#X connect 314 0 316 0;
#X connect 314 1 315 0;
#X connect 315 0 316 1;
#X connect 317 0 318 0;
#X connect 318 0 320 0;
#X connect 318 1 319 0;
#X connect 319 0 320 1;
#X restore 969 471 pd genericStates_ButtonSet_1;
#X obj 1002 581 array set ButtonSetArray_1;
#X msg 1086 541 0;
#X msg 994 543 1;
#N canvas 0 23 842 582 USS_insert_trigger_f_b 0;
#X obj 71 306 f 10;
#X obj 174 305 f 10;
#X obj 96 177 r USS_resetXyCounters;
#X obj 199 212 r USS_resetXyCounters;
#X text 104 280 x;
#X text 177 281 y;
#X obj 115 306 + 5;
#X obj 278 338 r USS_currentButtonSet;
#X obj 71 373 pack f f f, f 30;
#X obj 71 119 t b b;
#X obj 71 47 inlet USSITFB_bangForEachButton;
#X obj 219 304 + 150;
#X obj 199 262 + 50;
#X msg 71 418 \; pd-genericStates_ButtonSet_\$3 obj \$1 \$2 t f b;
#X connect 0 0 6 0;
#X connect 0 0 8 0;
#X connect 1 0 8 1;
#X connect 1 0 11 0;
#X connect 2 0 0 1;
#X connect 3 0 12 0;
#X connect 6 0 0 1;
#X connect 7 0 8 2;
#X connect 8 0 13 0;
#X connect 9 0 0 0;
#X connect 9 1 1 0;
#X connect 10 0 9 0;
#X connect 11 0 1 1;
#X connect 12 0 1 1;
#X restore 562 1131 pd USS_insert_trigger_f_b;
#N canvas 103 96 827 634 USS_insert_msg_boxes 0;
#X obj 167 122 r USS_currentOuterIteration;
#X obj 122 436 f 10;
#X obj 221 435 f 10;
#X obj 147 327 r USS_resetXyCounters;
#X obj 246 357 r USS_resetXyCounters;
#X text 131 373 x;
#X text 224 371 y;
#X text 361 66 Zeilenindex;
#X text 369 124 Spaltenindex;
#X obj 245 160 loadbang;
#X obj 245 184 f \$2;
#X text 312 164 Anzahl an Spalten;
#X text 266 219 absolute button nummer = Spaltennummer * number of
Columns + Zeilenindex;
#X obj 99 227 expr $f2 * $f3 + $f1;
#X obj 99 503 pack f f f f, f 30;
#X obj 99 276 t f b b;
#X msg 99 548 \; pd-genericStates_ButtonSet_\$4 msg \$2 \$3 \$1;
#X obj 306 468 r USS_currentButtonSet;
#X obj 166 436 + 5;
#X obj 246 396 + 75;
#X obj 99 63 inlet USSIMS_currentInnerIteration;
#X obj 266 434 + 150;
#X obj 147 395 + 35;
#X connect 0 0 13 1;
#X connect 1 0 14 1;
#X connect 1 0 18 0;
#X connect 2 0 14 2;
#X connect 2 0 21 0;
#X connect 3 0 22 0;
#X connect 4 0 19 0;
#X connect 9 0 10 0;
#X connect 10 0 13 2;
#X connect 13 0 15 0;
#X connect 14 0 16 0;
#X connect 15 0 14 0;
#X connect 15 1 1 0;
#X connect 15 2 2 0;
#X connect 17 0 14 3;
#X connect 18 0 1 1;
#X connect 19 0 2 1;
#X connect 20 0 13 0;
#X connect 21 0 2 1;
#X connect 22 0 1 1;
#X restore 542 1171 pd USS_insert_msg_boxes;
#N canvas 0 23 795 662 USS_insert_array_setters 0;
#X obj 62 36 inlet USSIAS_bangForEachButton;
#X obj 122 389 f 10;
#X obj 221 388 f 10;
#X obj 147 280 r USS_resetXyCounters;
#X obj 246 310 r USS_resetXyCounters;
#X text 131 326 x;
#X text 224 324 y;
#X obj 306 421 r USS_currentButtonSet;
#X obj 166 389 + 5;
#X msg 99 501 \; pd-genericStates_ButtonSet_\$3 obj \$1 \$2 array set
ButtonSetArray_\$3;
#X obj 99 456 pack f f f, f 30;
#X obj 69 99 t b b;
#X obj 246 349 + 100;
#X obj 266 387 + 150;
#X connect 0 0 11 0;
#X connect 1 0 8 0;
#X connect 1 0 10 0;
#X connect 2 0 10 1;
#X connect 2 0 13 0;
#X connect 3 0 1 1;
#X connect 4 0 12 0;
#X connect 7 0 10 2;
#X connect 8 0 1 1;
#X connect 10 0 9 0;
#X connect 11 0 1 0;
#X connect 11 1 2 0;
#X connect 12 0 2 1;
#X connect 13 0 2 1;
#X restore 522 1212 pd USS_insert_array_setters;
#X text 739 1149 add objects to subpatch "ButtonSetArray_XY" dynamically
;
#X text 335 1297 connect 2 und 3 objekt \; 1ster outlet zu 1stem inlet
;
#X msg 19 1295 \; pd-genericStates_ButtonSet_1 connect 1 0 2 0 \; pd-genericStates_ButtonSet_1
connect 2 1 3 0 \; pd-genericStates_ButtonSet_1 connect 2 0 4 0 \;
pd-genericStates_ButtonSet_1 connect 3 0 4 1;
#X obj 598 235 t f f;
#X obj 630 265 s USS_numberOfButtons;
#X text 192 1266 Beispiel;
#N canvas 0 23 813 605 USS_connect_all_that_shit 0;
#X obj 87 44 inlet USSCATS_startBang;
#X obj 105 247 r USS_numberOfButtons;
#X obj 87 284 f 0;
#X obj 87 308 until;
#X obj 87 372 f 1;
#X obj 87 124 t b b;
#X msg 119 152 1;
#X obj 119 176 s USS_resetConnectCounter;
#X obj 129 336 r USS_resetConnectCounter;
#X obj 87 509 pack f f f f f;
#X obj 182 481 r USS_currentButtonSet;
#X obj 87 405 t f f f f, f 15;
#X obj 107 448 + 1;
#X obj 137 448 + 2;
#X obj 167 448 + 3;
#X msg 87 584 \; pd-genericStates_ButtonSet_\$5 connect \$1 0 \$2 0
\; pd-genericStates_ButtonSet_\$5 connect \$2 1 \$3 0 \; pd-genericStates_ButtonSet_\$5
connect \$2 0 \$4 0 \; pd-genericStates_ButtonSet_\$5 connect \$3 0
\$4 1;
#X obj 123 372 + 4;
#X connect 0 0 5 0;
#X connect 1 0 2 1;
#X connect 2 0 3 0;
#X connect 3 0 4 0;
#X connect 4 0 11 0;
#X connect 4 0 16 0;
#X connect 5 0 2 0;
#X connect 5 1 6 0;
#X connect 6 0 7 0;
#X connect 8 0 4 1;
#X connect 9 0 15 0;
#X connect 10 0 9 4;
#X connect 11 0 9 0;
#X connect 11 1 12 0;
#X connect 11 2 13 0;
#X connect 11 3 14 0;
#X connect 12 0 9 1;
#X connect 13 0 9 2;
#X connect 14 0 9 3;
#X connect 16 0 4 1;
#X restore 492 1259 pd USS_connect_all_that_shit;
#X obj 492 80 t b b b b b b f f, f 27;
#X obj 522 1072 t b f b f;
#X connect 0 0 8 0;
#X connect 1 0 2 0;
#X connect 2 0 4 0;
#X connect 4 0 5 0;
#X connect 4 0 58 0;
#X connect 5 0 4 1;
#X connect 8 0 9 0;
#X connect 9 0 10 0;
#X connect 9 0 15 0;
#X connect 10 0 9 1;
#X connect 11 0 20 0;
#X connect 12 0 23 0;
#X connect 14 0 1 0;
#X connect 14 1 12 0;
#X connect 15 0 14 0;
#X connect 15 1 22 0;
#X connect 19 0 32 0;
#X connect 21 0 9 1;
#X connect 24 0 4 1;
#X connect 25 0 26 0;
#X connect 26 0 42 0;
#X connect 28 0 27 0;
#X connect 32 0 57 0;
#X connect 33 0 35 0;
#X connect 34 0 38 1;
#X connect 38 0 40 0;
#X connect 39 0 38 0;
#X connect 40 0 53 0;
#X connect 45 0 44 1;
#X connect 46 0 44 0;
#X connect 53 0 33 0;
#X connect 53 1 54 0;
#X connect 57 0 56 0;
#X connect 57 1 0 0;
#X connect 57 2 11 0;
#X connect 57 3 28 0;
#X connect 57 4 39 0;
#X connect 57 5 34 0;
#X connect 57 6 33 1;
#X connect 57 7 31 0;
#X connect 58 0 49 0;
#X connect 58 1 48 0;
#X connect 58 2 47 0;
#X connect 58 3 29 0;
