#N canvas 173 63 659 510 10;
#X obj 37 22 loadbang;
#X obj 37 44 \$1;
#X obj 37 106 mtof;
#X obj 37 128 phasor~;
#X obj 37 150 pow~ 1.5;
#X obj 37 172 -~ 0.5;
#X obj 37 194 *~ 2;
#X obj 185 38 inlet;
#X obj 185 60 / 128;
#X msg 185 82 \$1 10;
#X obj 185 104 line~;
#X msg 227 82 0;
#X obj 227 60 loadbang;
#X obj 185 126 pow~ 3;
#X obj 96 237 *~;
#X obj 96 259 *~ 0.2;
#X obj 96 281 lop~ 500;
#X obj 96 303 hip~ 1;
#X obj 96 325 outlet~;
#X obj 383 82 sel 0;
#X obj 383 104 del 100;
#X msg 383 126 0;
#X msg 435 104 1;
#X obj 322 103 loadbang;
#X obj 383 148 switch~;
#X floatatom 55 67 5 0 0 0 - - -;
#X obj 55 87 print;
#X connect 0 0 1 0;
#X connect 1 0 2 0;
#X connect 1 0 25 0;
#X connect 2 0 3 0;
#X connect 3 0 4 0;
#X connect 4 0 5 0;
#X connect 5 0 6 0;
#X connect 6 0 14 0;
#X connect 7 0 8 0;
#X connect 7 0 19 0;
#X connect 8 0 9 0;
#X connect 9 0 10 0;
#X connect 10 0 13 0;
#X connect 11 0 10 0;
#X connect 12 0 11 0;
#X connect 13 0 14 1;
#X connect 14 0 15 0;
#X connect 15 0 16 0;
#X connect 16 0 17 0;
#X connect 17 0 18 0;
#X connect 19 0 20 0;
#X connect 19 1 22 0;
#X connect 20 0 21 0;
#X connect 21 0 24 0;
#X connect 22 0 24 0;
#X connect 23 0 21 0;
#X connect 25 0 26 0;
