#N canvas 700 159 450 300 10;
#X obj 118 32 midikeyboard;
#X msg 118 54 \$1 128;
#X msg 187 54 \$1 0;
#X obj 254 78 unpack f f;
#X floatatom 252 101 5 0 0 0 - - -, f 5;
#X floatatom 314 102 5 0 0 0 - - -, f 5;
#X obj 110 105 clone kunit 88;
#X obj 110 127 output~;
#X connect 0 0 1 0;
#X connect 0 1 2 0;
#X connect 1 0 3 0;
#X connect 1 0 6 0;
#X connect 2 0 3 0;
#X connect 2 0 6 0;
#X connect 3 0 4 0;
#X connect 3 1 5 0;
#X connect 6 0 7 0;
#X connect 6 0 7 1;
