#N canvas 60 95 1252 525 10;
#X obj 47 25 key;
#X floatatom 47 47 5 0 0 0 - - -, f 5;
#X msg 47 90 48;
#X obj 47 142 outlet;
#X msg 77 90 50;
#X msg 107 90 52;
#X msg 137 90 53;
#X msg 166 90 55;
#X msg 193 90 57;
#X msg 220 90 59;
#X obj 47 68 sel 122 120 99 118 98 110 109 44;
#X msg 248 90 60;
#X msg 277 89 49;
#X msg 308 89 51;
#X msg 337 89 54;
#X msg 366 89 56;
#X msg 395 89 58;
#X obj 277 67 sel 115 100 103 104 106;
#X text 87 47 ZXCVBNM \, = C-C;
#X text 283 50 SD GHJ = C#-A#;
#X obj 90 158 keyup;
#X floatatom 90 179 5 0 0 0 - - -, f 5;
#X msg 90 222 48;
#X msg 120 222 50;
#X msg 150 222 52;
#X msg 180 222 53;
#X msg 209 222 55;
#X msg 236 222 57;
#X msg 263 222 59;
#X obj 90 200 sel 122 120 99 118 98 110 109 44;
#X msg 291 222 60;
#X msg 320 221 49;
#X msg 351 221 51;
#X msg 380 221 54;
#X msg 409 221 56;
#X msg 438 221 58;
#X obj 320 199 sel 115 100 103 104 106;
#X text 130 179 ZXCVBNM \, = C-C;
#X text 326 182 SD GHJ = C#-A#;
#X obj 90 248 outlet;
#X floatatom 427 44 5 0 0 0 - - -, f 5;
#X text 467 44 qwertyuiop = C-E;
#X msg 427 91 60;
#X msg 458 91 62;
#X msg 487 91 64;
#X msg 517 92 65;
#X msg 546 91 67;
#X msg 573 91 69;
#X msg 601 91 71;
#X msg 628 91 72;
#X obj 430 68 sel 113 119 101 114 116 121 117 105 111 112;
#X msg 656 91 74;
#X msg 684 91 76;
#X floatatom 467 172 5 0 0 0 - - -, f 5;
#X text 507 172 qwertyuiop = C-E;
#X msg 467 219 60;
#X msg 498 219 62;
#X msg 527 219 64;
#X msg 557 220 65;
#X msg 586 219 67;
#X msg 613 219 69;
#X msg 641 219 71;
#X msg 668 219 72;
#X obj 470 196 sel 113 119 101 114 116 121 117 105 111 112;
#X msg 696 219 74;
#X msg 724 219 76;
#X msg 724 93 61;
#X msg 755 93 63;
#X msg 784 93 66;
#X msg 813 93 68;
#X msg 842 93 70;
#X obj 724 71 sel 50 51 53 54 55 57 48;
#X msg 868 93 73;
#X msg 898 93 75;
#X text 730 54 2.34569e+006 = C#-D#;
#X msg 757 220 61;
#X msg 788 220 63;
#X msg 817 220 66;
#X msg 846 220 68;
#X msg 875 220 70;
#X obj 757 198 sel 50 51 53 54 55 57 48;
#X msg 901 220 73;
#X msg 931 220 75;
#X text 763 181 2.34569e+006 = C#-D#;
#X connect 0 0 1 0;
#X connect 0 0 40 0;
#X connect 1 0 10 0;
#X connect 1 0 17 0;
#X connect 2 0 3 0;
#X connect 4 0 3 0;
#X connect 5 0 3 0;
#X connect 6 0 3 0;
#X connect 7 0 3 0;
#X connect 8 0 3 0;
#X connect 9 0 3 0;
#X connect 10 0 2 0;
#X connect 10 1 4 0;
#X connect 10 2 5 0;
#X connect 10 3 6 0;
#X connect 10 4 7 0;
#X connect 10 5 8 0;
#X connect 10 6 9 0;
#X connect 10 7 11 0;
#X connect 11 0 3 0;
#X connect 12 0 3 0;
#X connect 13 0 3 0;
#X connect 14 0 3 0;
#X connect 15 0 3 0;
#X connect 16 0 3 0;
#X connect 17 0 12 0;
#X connect 17 1 13 0;
#X connect 17 2 14 0;
#X connect 17 3 15 0;
#X connect 17 4 16 0;
#X connect 20 0 21 0;
#X connect 20 0 53 0;
#X connect 21 0 29 0;
#X connect 21 0 36 0;
#X connect 22 0 39 0;
#X connect 23 0 39 0;
#X connect 24 0 39 0;
#X connect 25 0 39 0;
#X connect 26 0 39 0;
#X connect 27 0 39 0;
#X connect 28 0 39 0;
#X connect 29 0 22 0;
#X connect 29 1 23 0;
#X connect 29 2 24 0;
#X connect 29 3 25 0;
#X connect 29 4 26 0;
#X connect 29 5 27 0;
#X connect 29 6 28 0;
#X connect 29 7 30 0;
#X connect 30 0 39 0;
#X connect 31 0 39 0;
#X connect 32 0 39 0;
#X connect 33 0 39 0;
#X connect 34 0 39 0;
#X connect 35 0 39 0;
#X connect 36 0 31 0;
#X connect 36 1 32 0;
#X connect 36 2 33 0;
#X connect 36 3 34 0;
#X connect 36 4 35 0;
#X connect 40 0 50 0;
#X connect 40 0 71 0;
#X connect 42 0 3 0;
#X connect 43 0 3 0;
#X connect 44 0 3 0;
#X connect 45 0 3 0;
#X connect 46 0 3 0;
#X connect 47 0 3 0;
#X connect 48 0 3 0;
#X connect 49 0 3 0;
#X connect 50 0 42 0;
#X connect 50 1 43 0;
#X connect 50 2 44 0;
#X connect 50 3 45 0;
#X connect 50 4 46 0;
#X connect 50 5 47 0;
#X connect 50 6 48 0;
#X connect 50 7 49 0;
#X connect 50 8 51 0;
#X connect 50 9 52 0;
#X connect 51 0 3 0;
#X connect 52 0 3 0;
#X connect 53 0 63 0;
#X connect 53 0 80 0;
#X connect 55 0 39 0;
#X connect 56 0 39 0;
#X connect 57 0 39 0;
#X connect 58 0 39 0;
#X connect 59 0 39 0;
#X connect 60 0 39 0;
#X connect 61 0 39 0;
#X connect 62 0 39 0;
#X connect 63 0 55 0;
#X connect 63 1 56 0;
#X connect 63 2 57 0;
#X connect 63 3 58 0;
#X connect 63 4 59 0;
#X connect 63 5 60 0;
#X connect 63 6 61 0;
#X connect 63 7 62 0;
#X connect 63 8 64 0;
#X connect 63 9 65 0;
#X connect 64 0 39 0;
#X connect 65 0 39 0;
#X connect 66 0 3 0;
#X connect 67 0 3 0;
#X connect 68 0 3 0;
#X connect 69 0 3 0;
#X connect 70 0 3 0;
#X connect 71 0 66 0;
#X connect 71 1 67 0;
#X connect 71 2 68 0;
#X connect 71 3 69 0;
#X connect 71 4 70 0;
#X connect 71 5 72 0;
#X connect 71 6 73 0;
#X connect 72 0 3 0;
#X connect 73 0 3 0;
#X connect 75 0 39 0;
#X connect 76 0 39 0;
#X connect 77 0 39 0;
#X connect 78 0 39 0;
#X connect 79 0 39 0;
#X connect 80 0 75 0;
#X connect 80 1 76 0;
#X connect 80 2 77 0;
#X connect 80 3 78 0;
#X connect 80 4 79 0;
#X connect 80 5 81 0;
#X connect 80 6 82 0;
#X connect 81 0 39 0;
#X connect 82 0 39 0;
