#N canvas 0 23 850 631 12;
#X obj 90 726 outlet~ audioLeft;
#X obj 208 726 outlet~ audioRight;
#X text 579 236 1 = instrument index \; the second instrument has a
\; 2 in there.;
#X obj 529 418 switch~;
#X floatatom 529 256 5 0 0 0 - - -;
#X obj 529 394 f 0;
#X obj 529 317 t b f f, f 30;
#X obj 706 455 line~;
#X floatatom 751 356 5 0 0 0 - - -;
#X obj 706 379 pack f f;
#X obj 529 365 delay;
#X obj 556 341 r smoothAudioChangeMs;
#X obj 90 700 *~;
#X obj 208 683 *~;
#X text 579 418 switch on/off dsp \; for this instrument;
#X obj 751 335 r smoothInstrChangeMs;
#X obj 90 73 inlet instr4_midiPitch;
#X obj 529 64 inlet instrSelector;
#X obj 86 213 osc~;
#X obj 166 104 hsl 295 15 27 127 0 0 empty empty pitch 115 8 0 12 -4140
-257985 -262144 22050 0;
#X obj 86 432 *~;
#X obj 102 362 vline~;
#X obj 102 394 *~;
#X obj 86 193 mtof;
#X msg 350 196 0.75;
#X obj 86 541 +~;
#X obj 153 235 hsl 128 15 0 0.7 0 0 empty empty 0-1 15 9 0 12 -228856
-1 -1 2700 1;
#X text 261 195 resets phase >;
#X obj 469 27 loadbang;
#X msg 469 83 1;
#X text 131 394 < input is squared (multiplied by itself);
#X floatatom 118 193 8 0 0 1 Hz - -;
#X floatatom 117 135 8 0 0 1 MIDI_note - -;
#X obj 86 135 int;
#X msg 488 63 102;
#X obj 86 233 *~ 0.7;
#X obj 86 102 t b f;
#X msg 102 332 1 0 \, 0 100 \, 0 100 0;
#X obj 690 122 loadbang;
#X obj 690 146 f \$1;
#X floatatom 690 170 5 0 0 0 - - -;
#X obj 529 235 ==;
#X connect 4 0 6 0;
#X connect 5 0 3 0;
#X connect 6 0 10 0;
#X connect 6 1 5 1;
#X connect 6 2 9 0;
#X connect 7 0 13 1;
#X connect 7 0 12 1;
#X connect 8 0 9 1;
#X connect 9 0 7 0;
#X connect 10 0 5 0;
#X connect 11 0 10 1;
#X connect 12 0 0 0;
#X connect 13 0 1 0;
#X connect 15 0 8 0;
#X connect 16 0 36 0;
#X connect 17 0 41 0;
#X connect 18 0 35 0;
#X connect 19 0 33 0;
#X connect 20 0 25 0;
#X connect 21 0 22 0;
#X connect 21 0 22 1;
#X connect 22 0 20 1;
#X connect 23 0 18 0;
#X connect 23 0 31 0;
#X connect 24 0 18 1;
#X connect 25 0 12 0;
#X connect 25 0 13 0;
#X connect 26 0 35 1;
#X connect 28 0 29 0;
#X connect 28 0 34 0;
#X connect 33 0 32 0;
#X connect 33 0 23 0;
#X connect 34 0 19 0;
#X connect 35 0 20 0;
#X connect 36 0 37 0;
#X connect 36 1 33 0;
#X connect 37 0 21 0;
#X connect 38 0 39 0;
#X connect 39 0 40 0;
#X connect 40 0 41 1;
#X connect 41 0 4 0;
