#N canvas 362 59 728 493 12;
#X obj 193 108 mtof;
#X msg 193 176 0 \$1;
#X floatatom 193 129 5 0 0 0 - - -;
#X obj 193 149 / 100;
#X obj 116 15 inlet midiPitch;
#X obj 116 47 t b f;
#X obj 123 243 perk-bassdrum;
#X obj 137 427 outlet~ audio;
#X text 464 118 1 = instrument index \; the second instrument has a
\; 2 in there.;
#X obj 414 340 switch~;
#X floatatom 414 138 5 0 0 0 - - -;
#X text 464 340 switch on/off dsp for this instrument;
#X msg 466 172 0;
#X msg 498 173 1;
#X obj 414 316 f 0;
#X obj 414 199 t b f f, f 30;
#X obj 590 277 line~;
#X floatatom 636 218 5 0 0 0 - - -;
#X obj 591 241 pack f f;
#X obj 414 247 delay;
#X obj 441 223 r smoothAudioChangeMs;
#X obj 636 197 r smoothInstrChangeMs;
#X obj 620 44 loadbang;
#X obj 620 68 f \$1;
#X obj 414 117 ==;
#X floatatom 620 92 5 0 0 0 - - -;
#X text 674 70 \$1 = clone index = buttonset \; When a midi note comes
in \; and it belongs to the curren button set \; then audio is turned
on [~*]. Otherwise \, \; audio is turned off.;
#X obj 316 15 inlet decay;
#X obj 455 18 inlet instrSelector;
#X obj 136 390 *~;
#X connect 0 0 2 0;
#X connect 1 0 6 1;
#X connect 2 0 3 0;
#X connect 3 0 1 0;
#X connect 4 0 5 0;
#X connect 5 0 6 0;
#X connect 5 1 0 0;
#X connect 6 0 29 0;
#X connect 10 0 15 0;
#X connect 12 0 15 0;
#X connect 13 0 15 0;
#X connect 14 0 9 0;
#X connect 15 0 19 0;
#X connect 15 1 14 1;
#X connect 15 2 18 0;
#X connect 16 0 29 1;
#X connect 17 0 18 1;
#X connect 18 0 16 0;
#X connect 19 0 14 0;
#X connect 20 0 19 1;
#X connect 21 0 17 0;
#X connect 22 0 23 0;
#X connect 23 0 25 0;
#X connect 24 0 10 0;
#X connect 25 0 24 1;
#X connect 28 0 24 0;
#X connect 29 0 7 0;
