#N canvas 0 23 787 604 12;
#X obj 90 73 inlet instr2_midiPitch;
#X obj 90 486 outlet~ audioLeft;
#X obj 225 486 outlet~ audioRight;
#X obj 396 367 switch~;
#X floatatom 396 205 5 0 0 0 - - -;
#X obj 396 343 f 0;
#X obj 396 266 t b f f, f 30;
#X obj 573 404 line~;
#X floatatom 618 305 5 0 0 0 - - -;
#X obj 573 328 pack f f;
#X obj 396 314 delay;
#X obj 423 290 r smoothAudioChangeMs;
#X obj 90 420 *~;
#X obj 208 422 *~;
#X text 446 367 switch on/off dsp \; for this instrument;
#X obj 618 284 r smoothInstrChangeMs;
#X obj 396 63 inlet instrSelector;
#X obj 539 115 loadbang;
#X obj 539 139 f \$1;
#X obj 396 184 ==;
#X text 446 185 == instrument index \; the second instrument has a
\; 2 in there.;
#X obj 90 131 coronaChallengeSynth;
#X connect 0 0 21 0;
#X connect 4 0 6 0;
#X connect 5 0 3 0;
#X connect 6 0 10 0;
#X connect 6 1 5 1;
#X connect 6 2 9 0;
#X connect 7 0 13 1;
#X connect 7 0 12 1;
#X connect 8 0 9 1;
#X connect 9 0 7 0;
#X connect 10 0 5 0;
#X connect 11 0 10 1;
#X connect 12 0 1 0;
#X connect 13 0 2 0;
#X connect 15 0 8 0;
#X connect 16 0 19 0;
#X connect 17 0 18 0;
#X connect 18 0 19 1;
#X connect 19 0 4 0;
#X connect 21 0 12 0;
#X connect 21 1 13 0;
