#N canvas 536 51 640 507 12;
#N canvas 57 131 516 345 playSomeNotes 0;
#X obj 52 112 bng 15 250 50 0 empty empty empty 17 7 0 10 -262144 -1
-1;
#X msg 52 232 60;
#X obj 52 210 bng 15 250 50 0 empty empty empty 17 7 0 10 -262144 -1
-1;
#X obj 84 210 bng 15 250 50 0 empty empty empty 17 7 0 10 -262144 -1
-1;
#X obj 117 211 bng 15 250 50 0 empty empty empty 17 7 0 10 -262144
-1 -1;
#X obj 152 211 bng 15 250 50 0 empty empty empty 17 7 0 10 -262144
-1 -1;
#X floatatom 52 162 5 0 0 0 - - -;
#X text 403 217 c maj 7;
#X obj 52 31 inlet;
#X obj 51 321 outlet;
#X obj 52 186 sel 0 1 2 3 4 5 6 7 8 9, f 48;
#X obj 187 218 bng 15 250 50 0 empty empty empty 17 7 0 10 -262144
-1 -1;
#X obj 219 218 bng 15 250 50 0 empty empty empty 17 7 0 10 -262144
-1 -1;
#X obj 252 219 bng 15 250 50 0 empty empty empty 17 7 0 10 -262144
-1 -1;
#X obj 287 219 bng 15 250 50 0 empty empty empty 17 7 0 10 -262144
-1 -1;
#X obj 328 218 bng 15 250 50 0 empty empty empty 17 7 0 10 -262144
-1 -1;
#X obj 360 218 bng 15 250 50 0 empty empty empty 17 7 0 10 -262144
-1 -1;
#X msg 84 233 64;
#X msg 117 233 67;
#X msg 187 240 57;
#X msg 219 241 55;
#X msg 252 241 53;
#X msg 152 232 69;
#X msg 328 240 76;
#X msg 360 241 79;
#X msg 287 240 71;
#X obj 52 88 metro 500;
#X obj 52 138 random 10;
#X connect 0 0 27 0;
#X connect 1 0 9 0;
#X connect 2 0 1 0;
#X connect 3 0 17 0;
#X connect 4 0 18 0;
#X connect 5 0 22 0;
#X connect 6 0 10 0;
#X connect 8 0 26 0;
#X connect 10 0 2 0;
#X connect 10 1 3 0;
#X connect 10 2 4 0;
#X connect 10 3 5 0;
#X connect 10 4 11 0;
#X connect 10 5 12 0;
#X connect 10 6 13 0;
#X connect 10 7 14 0;
#X connect 10 8 15 0;
#X connect 10 9 16 0;
#X connect 11 0 19 0;
#X connect 12 0 20 0;
#X connect 13 0 21 0;
#X connect 14 0 25 0;
#X connect 15 0 23 0;
#X connect 16 0 24 0;
#X connect 17 0 9 0;
#X connect 18 0 9 0;
#X connect 19 0 9 0;
#X connect 20 0 9 0;
#X connect 21 0 9 0;
#X connect 22 0 9 0;
#X connect 23 0 9 0;
#X connect 24 0 9 0;
#X connect 25 0 9 0;
#X connect 26 0 0 0;
#X connect 27 0 6 0;
#X restore 327 245 pd playSomeNotes;
#X obj 327 206 tgl 15 0 empty empty empty 17 7 0 10 -262144 -1 -1 0
1;
#X floatatom 327 269 5 0 0 0 - - -;
#X obj 327 360 s notes;
#X obj 35 40 r notes;
#X floatatom 35 84 5 0 0 0 - - -;
#X obj 37 441 *~;
#X text 73 444 vol;
#X floatatom 62 391 5 0 1 0 - - -;
#X obj 37 484 dac~;
#N canvas 804 41 450 498 synthsubpatch 1;
#X obj 35 107 mtof;
#X floatatom 35 131 10 0 0 0 - - -;
#X obj 34 319 osc~;
#X obj 34 361 *~;
#X obj 118 163 bng 15 250 50 0 empty empty empty 17 7 0 10 -262144
-1 -1;
#X msg 118 219 1 5;
#X obj 118 188 t b b;
#X obj 168 215 del 10;
#X obj 168 239 pack 0 500;
#X obj 118 276 line~;
#X obj 118 300 *~;
#X obj 118 334 *~;
#X floatatom 235 192 5 10 5000 0 - - -;
#X text 232 167 decay;
#X obj 35 404 outlet~;
#X obj 301 189 loadbang;
#X obj 301 213 f 2000;
#X obj 33 167 t f b;
#X obj 35 53 inlet pitch;
#X obj 226 108 r decay;
#X connect 0 0 1 0;
#X connect 1 0 17 0;
#X connect 2 0 3 0;
#X connect 3 0 14 0;
#X connect 4 0 6 0;
#X connect 5 0 9 0;
#X connect 6 0 7 0;
#X connect 6 1 5 0;
#X connect 7 0 8 0;
#X connect 8 0 9 0;
#X connect 9 0 10 0;
#X connect 9 0 10 1;
#X connect 10 0 11 0;
#X connect 10 0 11 1;
#X connect 11 0 3 1;
#X connect 12 0 8 1;
#X connect 15 0 16 0;
#X connect 16 0 8 1;
#X connect 17 0 2 0;
#X connect 17 1 4 0;
#X connect 18 0 0 0;
#X connect 19 0 12 0;
#X restore 331 153 pd synthsubpatch;
#X floatatom 380 270 5 0 0 0 - - -;
#X msg 37 168 next \$1;
#X obj 130 13 inlet pitch;
#X obj 234 15 inlet duration;
#X obj 37 260 clone mysynth.cl 64;
#X obj 61 306 loadbang;
#X msg 61 347 0.7;
#X floatatom 254 70 5 0 0 0 - - -;
#X obj 235 140 s decay;
#X connect 0 0 2 0;
#X connect 0 0 11 0;
#X connect 1 0 0 0;
#X connect 4 0 5 0;
#X connect 5 0 12 0;
#X connect 6 0 9 0;
#X connect 6 0 9 1;
#X connect 8 0 6 1;
#X connect 11 0 3 0;
#X connect 12 0 15 0;
#X connect 13 0 5 0;
#X connect 14 0 18 0;
#X connect 14 0 19 0;
#X connect 15 0 6 0;
#X connect 16 0 17 0;
#X connect 17 0 8 0;
