#N canvas 0 23 450 300 12;
#X obj 35 107 mtof;
#X floatatom 35 131 10 0 0 0 - - -;
#X obj 34 319 osc~;
#X obj 34 361 *~;
#X obj 118 163 bng 15 250 50 0 empty empty empty 17 7 0 10 -262144
-1 -1;
#X msg 118 219 1 5;
#X obj 118 188 t b b;
#X obj 168 215 del 10;
#X obj 168 239 pack 0 500;
#X obj 118 276 line~;
#X obj 118 300 *~;
#X obj 118 334 *~;
#X floatatom 235 192 5 10 5000 0 - - -;
#X text 232 167 decay;
#X obj 35 404 outlet~;
#X obj 301 189 loadbang;
#X obj 301 213 f 2000;
#X obj 33 167 t f b;
#X obj 35 53 inlet pitch;
#X obj 226 108 r decay;
#X connect 0 0 1 0;
#X connect 1 0 17 0;
#X connect 2 0 3 0;
#X connect 3 0 14 0;
#X connect 4 0 6 0;
#X connect 5 0 9 0;
#X connect 6 0 7 0;
#X connect 6 1 5 0;
#X connect 7 0 8 0;
#X connect 8 0 9 0;
#X connect 9 0 10 0;
#X connect 9 0 10 1;
#X connect 10 0 11 0;
#X connect 10 0 11 1;
#X connect 11 0 3 1;
#X connect 12 0 8 1;
#X connect 15 0 16 0;
#X connect 16 0 8 1;
#X connect 17 0 2 0;
#X connect 17 1 4 0;
#X connect 18 0 0 0;
#X connect 19 0 12 0;
