#N canvas 0 23 1280 751 12;
#X obj 80 511 *~;
#X floatatom 207 401 5 0 1 0 - - -;
#X obj 285 509 *~;
#X text 248 398 feedback;
#N canvas 0 23 1280 751 JD_setdelaytimes 0;
#X obj 121 2139 outlet SDT_delayTimeInMs;
#X obj 408 1388 bng 15 250 50 0 empty empty empty 17 7 0 10 -262144
-1 -1;
#X obj 504 1222 bng 15 250 50 0 empty empty empty 17 7 0 10 -262144
-1 -1;
#X obj 587 1046 bng 15 250 50 0 empty empty empty 17 7 0 10 -262144
-1 -1;
#X obj 150 1880 bng 15 250 50 0 empty empty empty 17 7 0 10 -262144
-1 -1;
#X obj 263 1763 bng 15 250 50 0 empty empty empty 17 7 0 10 -262144
-1 -1;
#X obj 368 1586 bng 15 250 50 0 empty empty empty 17 7 0 10 -262144
-1 -1;
#X obj 656 874 bng 15 250 50 0 empty empty empty 17 7 0 10 -262144
-1 -1;
#X obj 778 703 bng 15 250 50 0 empty empty empty 17 7 0 10 -262144
-1 -1;
#X obj 889 534 bng 15 250 50 0 empty empty empty 17 7 0 10 -262144
-1 -1;
#X obj 975 364 bng 15 250 50 0 empty empty empty 17 7 0 10 -262144
-1 -1;
#X obj 1051 213 bng 15 250 50 0 empty empty empty 17 7 0 10 -262144
-1 -1;
#X obj 1140 11 bng 15 250 50 0 empty empty empty 17 7 0 10 -262144
-1 -1;
#X text 1061 191 1/8 punkt;
#X text 1153 -14 1/8 triol.;
#X obj 1232 -167 bng 15 250 50 0 empty empty empty 17 7 0 10 -262144
-1 -1;
#X obj 1436 -503 bng 15 250 50 0 empty empty empty 17 7 0 10 -262144
-1 -1;
#X text 1742 -1109 1/32 triol.;
#X obj 64 -1572 inlet SDT_changeDelayTimeBang;
#X obj 100 -1391 + 1;
#X obj 64 -1391 f 1;
#X text 484 -1540 change delay time on bang.;
#X obj 64 -1351 moses 18;
#X msg 82 -1420 1;
#X text 170 -1315 reset if counter to go back to first delay time;
#X obj 117 -1314 t f b;
#X obj 64 -1171 route 1 2 3 4 5 6 7 8 9 10 11 12 13 14 15 16 17 18
, f 244;
#X obj 184 -1525 loadbang;
#X obj 544 2135 outlet SDT_delayTimeInWords;
#X obj 118 1844 t b b;
#X obj 231 1713 t b b;
#X obj 336 1558 t b b;
#X obj 376 1355 t b b;
#X obj 472 1188 t b b;
#X obj 555 1023 t b b;
#X obj 624 845 t b b;
#X obj 746 675 t b b;
#X obj 857 503 t b b;
#X obj 943 339 t b b;
#X obj 1019 186 t b b;
#X obj 1108 -19 t b b;
#X obj 1200 -199 t b b;
#X obj 1286 -390 t b b;
#X obj 1404 -532 t b b;
#X obj 1487 -734 t b b;
#X obj 1582 -918 t b b;
#X obj 1674 -1114 t b b;
#X msg 118 2045 symbol 1/1;
#X msg 231 1853 symbol 1/1_punkt.;
#X msg 337 1686 symbol 1/1_triol.;
#X msg 376 1498 symbol 1/2;
#X msg 472 1313 symbol 1/2_punkt.;
#X msg 556 1130 symbol 1/2_triol.;
#X msg 624 971 symbol 1/4;
#X msg 746 817 symbol 1/4_punkt.;
#X msg 857 638 symbol 1/4_triol.;
#X msg 943 472 symbol 1/8;
#X msg 1021 306 symbol 1/8_punkt.;
#X msg 1108 122 symbol 1/8_triol.;
#X msg 1200 -73 symbol 1/16;
#X msg 1286 -247 symbol 1/16_punkt.;
#X msg 1404 -408 symbol 1/16_triol.;
#X msg 1487 -607 symbol 1/32;
#X msg 1582 -778 symbol 1/32_punkt.;
#X msg 1674 -966 symbol 1/32_triol.;
#X obj 427 -1569 inlet SDT_desiredBpm;
#X obj 150 1989 f 0;
#X floatatom 178 1964 5 0 0 0 - - -;
#X obj 263 1800 f 0;
#X floatatom 300 1800 5 0 0 0 - - -;
#X obj 368 1629 f 0;
#X floatatom 399 1630 5 0 0 0 - - -;
#X obj 408 1439 f 0;
#X floatatom 439 1440 5 0 0 0 - - -;
#X obj 504 1257 f 0;
#X floatatom 535 1258 5 0 0 0 - - -;
#X obj 587 1070 f 0;
#X floatatom 618 1069 5 0 0 0 - - -;
#X obj 656 910 f 0;
#X floatatom 688 910 5 0 0 0 - - -;
#X obj 778 738 f 0;
#X floatatom 810 738 5 0 0 0 - - -;
#X obj 889 567 f 0;
#X floatatom 921 567 5 0 0 0 - - -;
#X obj 975 406 f 0;
#X floatatom 1007 410 5 0 0 0 - - -;
#X obj 1051 246 f 0;
#X floatatom 1084 247 5 0 0 0 - - -;
#X obj 1140 50 f 0;
#X floatatom 1173 51 5 0 0 0 - - -;
#X obj 1232 -140 f 0;
#X floatatom 1268 -139 5 0 0 0 - - -;
#X obj 1318 -345 bng 15 250 50 0 empty empty empty 17 7 0 10 -262144
-1 -1;
#X obj 1318 -318 f 0;
#X floatatom 1354 -317 5 0 0 0 - - -;
#X obj 1436 -475 f 0;
#X floatatom 1472 -474 5 0 0 0 - - -;
#X obj 1519 -703 bng 15 250 50 0 empty empty empty 17 7 0 10 -262144
-1 -1;
#X obj 1519 -675 f 0;
#X floatatom 1555 -674 5 0 0 0 - - -;
#X obj 1614 -878 bng 15 250 50 0 empty empty empty 17 7 0 10 -262144
-1 -1;
#X obj 1614 -850 f 0;
#X floatatom 1650 -849 5 0 0 0 - - -;
#X obj 1706 -1073 bng 15 250 50 0 empty empty empty 17 7 0 10 -262144
-1 -1;
#X obj 1706 -1045 f 0;
#X floatatom 1742 -1044 5 0 0 0 - - -;
#X obj 427 -1515 expr 60000/$f1;
#X text 539 -1518 600000/bpm = length of quarter note in ms;
#X obj 64 -1266 t f f;
#X obj 78 -1226 f 0;
#X text 117 -1240 remember latest selected delay time. It has to be
banged when a new bpm is desired;
#X obj 427 -1490 t b f f f f f f f f f f f f f f f f f f, f 151;
#X text 1050 -1512 calculate new delay times;
#X obj 432 -1463 * 4;
#X obj 469 -1462 * 4;
#X obj 469 -1437 * 1.5;
#X obj 517 -1461 * 4;
#X obj 517 -1436 * 0.66667;
#X obj 645 -1434 * 1.5;
#X obj 693 -1433 * 0.66667;
#X obj 608 -1460 * 2;
#X obj 645 -1459 * 2;
#X obj 693 -1458 * 2;
#X obj 815 -1424 * 1.5;
#X obj 863 -1423 * 0.66667;
#X obj 778 -1450 * 1;
#X obj 815 -1449 * 1;
#X obj 863 -1448 * 1;
#X obj 994 -1415 * 1.5;
#X obj 1042 -1414 * 0.66667;
#X obj 948 -1440 * 0.5;
#X obj 994 -1440 * 0.5;
#X obj 1042 -1439 * 0.5;
#X obj 1190 -1417 * 1.5;
#X obj 1238 -1416 * 0.66667;
#X obj 1135 -1442 * 0.25;
#X obj 1190 -1442 * 0.25;
#X obj 1238 -1441 * 0.25;
#X obj 1429 -1407 * 1.5;
#X obj 1490 -1406 * 0.66667;
#X obj 1364 -1432 * 0.125;
#X obj 1429 -1432 * 0.125;
#X obj 1490 -1431 * 0.125;
#X msg 184 -1491 7;
#X obj 184 -1461 t b f;
#X obj 1487 -571 s \$0-SDT_Anzeige;
#X obj 1519 -637 s \$0-SDT_newDelayTime;
#X obj 121 2107 r \$0-SDT_newDelayTime;
#X obj 544 2100 r \$0-SDT_Anzeige;
#X obj 656 948 s \$0-SDT_newDelayTime;
#X obj 624 1001 s \$0-SDT_Anzeige;
#X obj 432 -1416 s \$0-dtime_1_1;
#X obj 469 -1392 s \$0-dtime_1_1pkt;
#X obj 517 -1370 s \$0-dtime_1_1trl;
#X obj 608 -1413 s \$0-dtime_1_2;
#X obj 645 -1389 s \$0-dtime_1_2pkt;
#X obj 693 -1367 s \$0-dtime_1_2trl;
#X obj 778 -1403 s \$0-dtime_1_4;
#X obj 815 -1379 s \$0-dtime_1_4pkt;
#X obj 863 -1357 s \$0-dtime_1_4trl;
#X obj 948 -1394 s \$0-dtime_1_8;
#X obj 994 -1370 s \$0-dtime_1_8pkt;
#X obj 1042 -1348 s \$0-dtime_1_8trl;
#X obj 1135 -1396 s \$0-dtime_1_16;
#X obj 1190 -1372 s \$0-dtime_1_16pkt;
#X obj 1238 -1350 s \$0-dtime_1_16trl;
#X obj 1364 -1386 s \$0-dtime_1_32;
#X obj 1429 -1362 s \$0-dtime_1_32pkt;
#X obj 1490 -1340 s \$0-dtime_1_32trl;
#X obj 118 2070 s \$0-SDT_Anzeige;
#X obj 150 2013 s \$0-SDT_newDelayTime;
#X obj 168 1935 r \$0-dtime_1_1;
#X obj 231 1880 s \$0-SDT_Anzeige;
#X obj 263 1824 s \$0-SDT_newDelayTime;
#X obj 281 1769 r \$0-dtime_1_1pkt;
#X obj 337 1714 s \$0-SDT_Anzeige;
#X obj 368 1655 s \$0-SDT_newDelayTime;
#X obj 386 1601 r \$0-dtime_1_1trl;
#X obj 408 1470 s \$0-SDT_newDelayTime;
#X obj 376 1527 s \$0-SDT_Anzeige;
#X obj 426 1411 r \$0-dtime_1_2;
#X obj 472 1343 s \$0-SDT_Anzeige;
#X obj 522 1229 r \$0-dtime_1_2pkt;
#X obj 504 1288 s \$0-SDT_newDelayTime;
#X obj 556 1160 s \$0-SDT_Anzeige;
#X obj 605 1040 r \$0-dtime_1_2trl;
#X obj 587 1108 s \$0-SDT_newDelayTime;
#X obj 674 880 r \$0-dtime_1_4;
#X obj 746 849 s \$0-SDT_Anzeige;
#X obj 778 776 s \$0-SDT_newDelayTime;
#X obj 796 708 r \$0-dtime_1_4pkt;
#X obj 857 671 s \$0-SDT_Anzeige;
#X obj 889 605 s \$0-SDT_newDelayTime;
#X obj 907 537 r \$0-dtime_1_4trl;
#X obj 943 494 s \$0-SDT_Anzeige;
#X obj 975 444 s \$0-SDT_newDelayTime;
#X obj 993 376 r \$0-dtime_1_8;
#X obj 1021 336 s \$0-SDT_Anzeige;
#X obj 1051 284 s \$0-SDT_newDelayTime;
#X obj 1069 216 r \$0-dtime_1_8pkt;
#X obj 1108 156 s \$0-SDT_Anzeige;
#X obj 1140 88 s \$0-SDT_newDelayTime;
#X obj 1158 20 r \$0-dtime_1_8trl;
#X obj 1200 -48 s \$0-SDT_Anzeige;
#X obj 1232 -102 s \$0-SDT_newDelayTime;
#X obj 1250 -170 r \$0-dtime_1_16;
#X obj 1286 -220 s \$0-SDT_Anzeige;
#X obj 1318 -280 s \$0-SDT_newDelayTime;
#X obj 1336 -348 r \$0-dtime_1_16pkt;
#X obj 1404 -381 s \$0-SDT_Anzeige;
#X obj 1436 -437 s \$0-SDT_newDelayTime;
#X obj 1454 -505 r \$0-dtime_1_16trl;
#X obj 1537 -705 r \$0-dtime_1_32;
#X obj 1582 -745 s \$0-SDT_Anzeige;
#X obj 1614 -812 s \$0-SDT_newDelayTime;
#X obj 1632 -880 r \$0-dtime_1_32pkt;
#X obj 1674 -937 s \$0-SDT_Anzeige;
#X obj 1706 -1007 s \$0-SDT_newDelayTime;
#X obj 1724 -1075 r \$0-dtime_1_32trl;
#X connect 1 0 72 0;
#X connect 2 0 74 0;
#X connect 3 0 76 0;
#X connect 4 0 66 0;
#X connect 5 0 68 0;
#X connect 6 0 70 0;
#X connect 7 0 78 0;
#X connect 8 0 80 0;
#X connect 9 0 82 0;
#X connect 10 0 84 0;
#X connect 11 0 86 0;
#X connect 12 0 88 0;
#X connect 15 0 90 0;
#X connect 16 0 95 0;
#X connect 18 0 20 0;
#X connect 19 0 20 1;
#X connect 20 0 19 0;
#X connect 20 0 22 0;
#X connect 22 0 108 0;
#X connect 22 1 25 0;
#X connect 23 0 20 1;
#X connect 25 0 108 0;
#X connect 25 1 23 0;
#X connect 26 0 29 0;
#X connect 26 1 30 0;
#X connect 26 2 31 0;
#X connect 26 3 32 0;
#X connect 26 4 33 0;
#X connect 26 5 34 0;
#X connect 26 6 35 0;
#X connect 26 7 36 0;
#X connect 26 8 37 0;
#X connect 26 9 38 0;
#X connect 26 10 39 0;
#X connect 26 11 40 0;
#X connect 26 12 41 0;
#X connect 26 13 42 0;
#X connect 26 14 43 0;
#X connect 26 15 44 0;
#X connect 26 16 45 0;
#X connect 26 17 46 0;
#X connect 27 0 143 0;
#X connect 29 0 47 0;
#X connect 29 1 4 0;
#X connect 30 0 48 0;
#X connect 30 1 5 0;
#X connect 31 0 49 0;
#X connect 31 1 6 0;
#X connect 32 0 50 0;
#X connect 32 1 1 0;
#X connect 33 0 51 0;
#X connect 33 1 2 0;
#X connect 34 0 52 0;
#X connect 34 1 3 0;
#X connect 35 0 53 0;
#X connect 35 1 7 0;
#X connect 36 0 54 0;
#X connect 36 1 8 0;
#X connect 37 0 55 0;
#X connect 37 1 9 0;
#X connect 38 0 56 0;
#X connect 38 1 10 0;
#X connect 39 0 57 0;
#X connect 39 1 11 0;
#X connect 40 0 58 0;
#X connect 40 1 12 0;
#X connect 41 0 59 0;
#X connect 41 1 15 0;
#X connect 42 0 60 0;
#X connect 42 1 92 0;
#X connect 43 0 61 0;
#X connect 43 1 16 0;
#X connect 44 0 62 0;
#X connect 44 1 97 0;
#X connect 45 0 63 0;
#X connect 45 1 100 0;
#X connect 46 0 64 0;
#X connect 46 1 103 0;
#X connect 47 0 169 0;
#X connect 48 0 172 0;
#X connect 49 0 175 0;
#X connect 50 0 179 0;
#X connect 51 0 181 0;
#X connect 52 0 184 0;
#X connect 53 0 150 0;
#X connect 54 0 188 0;
#X connect 55 0 191 0;
#X connect 56 0 194 0;
#X connect 57 0 197 0;
#X connect 58 0 200 0;
#X connect 59 0 203 0;
#X connect 60 0 206 0;
#X connect 61 0 209 0;
#X connect 62 0 145 0;
#X connect 63 0 213 0;
#X connect 64 0 216 0;
#X connect 65 0 106 0;
#X connect 66 0 170 0;
#X connect 68 0 173 0;
#X connect 70 0 176 0;
#X connect 72 0 178 0;
#X connect 74 0 183 0;
#X connect 76 0 186 0;
#X connect 78 0 149 0;
#X connect 80 0 189 0;
#X connect 82 0 192 0;
#X connect 84 0 195 0;
#X connect 86 0 198 0;
#X connect 88 0 201 0;
#X connect 90 0 204 0;
#X connect 92 0 93 0;
#X connect 93 0 207 0;
#X connect 95 0 210 0;
#X connect 97 0 98 0;
#X connect 98 0 146 0;
#X connect 100 0 101 0;
#X connect 101 0 214 0;
#X connect 103 0 104 0;
#X connect 104 0 217 0;
#X connect 106 0 111 0;
#X connect 108 0 26 0;
#X connect 108 1 109 1;
#X connect 109 0 26 0;
#X connect 111 0 109 0;
#X connect 111 1 113 0;
#X connect 111 2 114 0;
#X connect 111 3 116 0;
#X connect 111 4 120 0;
#X connect 111 5 121 0;
#X connect 111 6 122 0;
#X connect 111 7 125 0;
#X connect 111 8 126 0;
#X connect 111 9 127 0;
#X connect 111 10 130 0;
#X connect 111 11 131 0;
#X connect 111 12 132 0;
#X connect 111 13 135 0;
#X connect 111 14 136 0;
#X connect 111 15 137 0;
#X connect 111 16 140 0;
#X connect 111 17 141 0;
#X connect 111 18 142 0;
#X connect 113 0 151 0;
#X connect 114 0 115 0;
#X connect 115 0 152 0;
#X connect 116 0 117 0;
#X connect 117 0 153 0;
#X connect 118 0 155 0;
#X connect 119 0 156 0;
#X connect 120 0 154 0;
#X connect 121 0 118 0;
#X connect 122 0 119 0;
#X connect 123 0 158 0;
#X connect 124 0 159 0;
#X connect 125 0 157 0;
#X connect 126 0 123 0;
#X connect 127 0 124 0;
#X connect 128 0 161 0;
#X connect 129 0 162 0;
#X connect 130 0 160 0;
#X connect 131 0 128 0;
#X connect 132 0 129 0;
#X connect 133 0 164 0;
#X connect 134 0 165 0;
#X connect 135 0 163 0;
#X connect 136 0 133 0;
#X connect 137 0 134 0;
#X connect 138 0 167 0;
#X connect 139 0 168 0;
#X connect 140 0 166 0;
#X connect 141 0 138 0;
#X connect 142 0 139 0;
#X connect 143 0 144 0;
#X connect 144 0 20 0;
#X connect 144 1 20 1;
#X connect 147 0 0 0;
#X connect 148 0 28 0;
#X connect 171 0 67 0;
#X connect 171 0 66 1;
#X connect 174 0 69 0;
#X connect 174 0 68 1;
#X connect 177 0 71 0;
#X connect 177 0 70 1;
#X connect 180 0 73 0;
#X connect 180 0 72 1;
#X connect 182 0 75 0;
#X connect 182 0 74 1;
#X connect 185 0 77 0;
#X connect 185 0 76 1;
#X connect 187 0 79 0;
#X connect 187 0 78 1;
#X connect 190 0 81 0;
#X connect 190 0 80 1;
#X connect 193 0 83 0;
#X connect 193 0 82 1;
#X connect 196 0 85 0;
#X connect 196 0 84 1;
#X connect 199 0 87 0;
#X connect 199 0 86 1;
#X connect 202 0 89 0;
#X connect 202 0 88 1;
#X connect 205 0 91 0;
#X connect 205 0 90 1;
#X connect 208 0 94 0;
#X connect 208 0 93 1;
#X connect 211 0 96 0;
#X connect 211 0 95 1;
#X connect 212 0 99 0;
#X connect 212 0 98 1;
#X connect 215 0 102 0;
#X connect 215 0 101 1;
#X connect 218 0 105 0;
#X connect 218 0 104 1;
#X restore 701 371 pd JD_setdelaytimes;
#X floatatom 701 395 5 0 0 0 - - -;
#N canvas 114 23 1003 482 JD_dryWetManagement 0;
#X obj 57 60 inlet~ DWM_audioInLeft;
#X obj 257 60 inlet~ DWM_audioInRight;
#X obj 551 229 *~;
#X obj 57 235 *~;
#X obj 523 61 inlet DWM_dryWetValue;
#X obj 523 103 - 1;
#X floatatom 523 161 5 0 0 0 - - -;
#X obj 523 133 * -1;
#X floatatom 643 169 5 0 0 0 - - -;
#X obj 57 283 outlet~ DWM_audioOutDryLeft;
#X obj 257 229 *~;
#X text 562 160 dry;
#X text 686 171 wet;
#X obj 257 285 outlet~ DWM_audioOutDryRight;
#X obj 666 234 *~;
#X obj 551 286 outlet~ DWM_audioOutWetLeft;
#X obj 761 286 outlet~ DWM_audioOutWetLeft;
#X connect 0 0 3 0;
#X connect 0 0 2 0;
#X connect 1 0 10 0;
#X connect 1 0 14 0;
#X connect 2 0 15 0;
#X connect 3 0 9 0;
#X connect 4 0 5 0;
#X connect 4 0 8 0;
#X connect 5 0 7 0;
#X connect 6 0 3 1;
#X connect 6 0 10 1;
#X connect 7 0 6 0;
#X connect 8 0 2 1;
#X connect 8 0 14 1;
#X connect 10 0 13 0;
#X connect 14 0 16 0;
#X restore 22 286 pd JD_dryWetManagement;
#X obj 701 419 delay-time-syncer;
#X obj 701 492 sig~;
#X floatatom 701 466 5 0 0 0 - - -;
#X obj 22 52 inlet~ JD_audioInLeft;
#X obj 250 52 inlet~ JD_audioInRight;
#X obj 80 479 vd~ \$0-delayLeft;
#X obj 285 480 vd~ \$0-delayRight;
#X obj 22 609 outlet~ JD_audioOutLeft;
#X obj 205 609 outlet~ JD_audioOutRight;
#X obj 620 52 inlet JD_metronomeBang;
#X obj 501 119 cnv 15 218 140 empty empty empty 20 12 0 14 -228856
-66577 0;
#X obj 553 126 hsl 128 15 0 1 0 1 empty empty dry/wet -2 -8 0 10 -257985
-1 -1 5300 1;
#X obj 551 173 hsl 128 15 0 1 0 1 empty empty feedback -2 -8 0 10 -257985
-1 -1 5100 1;
#X symbolatom 576 208 15 0 0 0 - - -;
#X obj 548 207 bng 20 250 50 0 empty empty empty 17 7 0 10 -262130
-1 -1;
#X obj 1071 187 cnv 15 120 30 empty \$1-delay-time 1/4_triol. 20 12
0 14 -233017 -66577 0;
#X obj 1070 337 bng 15 250 50 0 empty empty empty 17 7 0 10 -262144
-1 -1;
#X obj 1055 380 \$0;
#X floatatom 1055 404 5 0 0 0 - - -;
#X text 1125 245 give canvas for showing \; the delay time a unique
\; receive symbol name.;
#X text 1100 354 send newly selected delay time \; to unique canvas-receive-symbol
;
#X msg 985 478 \; \$1-delay-time label hallo;
#X obj 985 447 makefilename %d;
#X msg 1092 299 \; \$1-delay-time receive \$1;
#X obj 891 53 inlet JD_desiredBpm;
#X obj 1070 50 inlet JD_drywet;
#X obj 1209 52 inlet JD_feedback;
#X obj 620 82 bng 15 250 50 0 empty empty empty 17 7 0 10 -262144 -1
-1;
#X obj 1342 48 inlet JD_changeTimingBang;
#X obj 412 308 delwrite~ \$0-delayRight 5000;
#X obj 122 331 delwrite~ \$0-delayLeft 5000;
#X text 169 109 \$1 = clone index \, starting at 1 \; this corresponds
to the [sends~] \; of the different button sets \, sending \; its audio
;
#X obj 51 169 catch~ audioLeftButtonSet_\$1;
#X obj 172 197 catch~ audioRightButtonSet_\$1;
#X obj 464 608 outlet JD_currentDelayTimeText;
#X connect 0 0 37 0;
#X connect 1 0 0 1;
#X connect 1 0 2 1;
#X connect 2 0 36 0;
#X connect 4 0 5 0;
#X connect 4 1 20 0;
#X connect 5 0 7 0;
#X connect 6 0 14 0;
#X connect 6 1 15 0;
#X connect 6 2 37 0;
#X connect 6 3 36 0;
#X connect 7 0 9 0;
#X connect 8 0 12 0;
#X connect 8 0 13 0;
#X connect 9 0 8 0;
#X connect 10 0 6 0;
#X connect 11 0 6 1;
#X connect 12 0 0 0;
#X connect 12 0 14 0;
#X connect 13 0 2 0;
#X connect 13 0 15 0;
#X connect 16 0 34 0;
#X connect 18 0 6 2;
#X connect 19 0 1 0;
#X connect 20 0 41 0;
#X connect 21 0 4 0;
#X connect 23 0 24 0;
#X connect 24 0 25 0;
#X connect 25 0 29 0;
#X connect 29 0 28 0;
#X connect 31 0 4 1;
#X connect 32 0 18 0;
#X connect 33 0 19 0;
#X connect 34 0 7 1;
#X connect 35 0 21 0;
#X connect 39 0 6 0;
#X connect 40 0 6 1;
#X coords 0 -1 1 1 220 160 1 500 100;
